<?xml version="1.0" encoding="utf-8"?>
<!-- Generator: Adobe Illustrator 27.0.0, SVG Export Plug-In . SVG Version: 6.00 Build 0)  -->
<svg version="1.1" id="Layer_1" xmlns="http://www.w3.org/2000/svg" xmlns:xlink="http://www.w3.org/1999/xlink" x="0px" y="0px"
	 viewBox="0 0 1359.6 383.6" style="enable-background:new 0 0 1359.6 383.6;" xml:space="preserve">
<style type="text/css">
	.st0{fill:#FFFFFF;}
	.st1{opacity:0.2;fill:#FFFFFF;}
	.st2{fill:#DBA782;}
	.st3{fill:#E8B290;}
	.st4{opacity:0.1;}
	.st5{fill:#E5E5E5;}
	.st6{fill:#353535;}
	.st7{fill:#DADADA;}
	.st8{fill:#3C3C3B;}
	.st9{fill:#F1C2B1;}
	.st10{opacity:0.7;fill:url(#SVGID_1_);}
	.st11{opacity:0.7;fill:url(#SVGID_00000039821504791989062250000001541918986363397786_);}
	.st12{opacity:0.7;fill:url(#SVGID_00000124878384800011514420000012064173205323007385_);}
	.st13{opacity:0.7;fill:url(#SVGID_00000052096848082515157840000014868442477561140352_);}
</style>
<g>
	<g>
		<path class="st3" d="M237.4,59.5c-0.5,1.2-0.7,2.5-0.8,3.9c-0.1,1.5-0.1,3-0.1,4.6c0.3,10.3-5.7,0.6-4.2,10.7
			c0.4,2.4,0.7,4.8,1,7.2c0.2,1.5,0.4,3.1,0.6,4.6c0.1,0.6,0.2,1.3,0.2,1.9c0.1,0.5,0.1,1,0.2,1.4c0.1,1.2,0.3,2.5,0.4,3.7
			c0.1,0.6,0.1,1.2,0.1,1.8c0.3,3.9,0.8,8.5-0.7,12.2c-13.2-4.3-26.7-7.8-39.9-12.1c-7.5-2.4-14.9-4.9-22.2-8.1
			c-4.7-2-9.3-4.2-14-6.4c-2.6-1.2-5.2-2.5-7.8-3.8c-6.2-3.1-12.4-6.2-18.6-9.4c-2.1-1.1-4.1-2.1-6.1-3.2c-8-4.2-16-8.4-23.9-12.4
			c-4.7-2.4-10.7-5.2-17.6-8c-3.6-1.4-7.3-2.9-10.8-4.3c-1.3-0.5-2.5-1-3.8-1.5c-0.4-0.1-0.7-0.3-1.1-0.4c-0.2-0.1-0.4-0.1-0.6-0.2
			c-0.8-0.3-1.7-0.7-2.5-1c-0.3-0.1-0.7-0.3-1-0.4c-0.6-0.3-1.3-0.5-1.9-0.8c-0.5-0.2-1-0.4-1.5-0.6c-0.1-0.1-0.3-0.1-0.4-0.2
			c-0.1-0.1-0.3-0.1-0.4-0.2c-0.1,0-0.2-0.1-0.3-0.1c-6.5-1.5-12.9-3.2-19.2-5.5c-5-1.8-10.3-3.8-14.4-7.4c-1.3-1.1-2.5-2.4-3.3-4
			l0,0l0,0l0,0l0,0l0,0l0,0l0,0l0,0l0,0l0,0l0,0l0,0l0,0l0,0c-0.1-0.3-0.3-0.7-0.4-1c-0.1-0.2-0.1-0.5-0.2-0.8
			c-0.1-0.6-0.5-2-0.4-2.7c0.1-0.5,0.2-1.9,0.4-2.4c0.1-0.8,0.2-1.4,1.2-3.8c0.3-0.8,0.8-1.3,1-1.6c0.2-0.4,0.5-0.7,1.1-1.3
			c0.1-0.1,0.3-0.3,0.4-0.4c1.4-1.4,2.6-2.3,5-3.6c1.2-0.6,2.6-1,3.9-1.5c0.5-0.2,1.1-0.4,1.7-0.6c0.5-0.2,1.1-0.3,1.7-0.5
			c2.5-0.6,5.5-1,9.5-1.3C49.3,0,50.5,0,51.8,0c3,0.1,5.7-0.1,10.6,0.7c0.5,0.1,0.9,0.1,1.4,0.2c0.9,0.2,1.7,0.3,2.6,0.5
			c3.1,0.6,6.1,1.5,9,2.5c8.9,3.1,15.8,6.3,23.4,9.6c8.3,3.5,13,6.5,15.5,7.7c6.1,2.9,14.1,6.4,21.1,8.5c1.7,0.5,3.5,1.1,5.3,1.7
			c5.5,1.9,11,4,16.5,6c2.5,0.9,5,1.9,7.5,3c11.1,4.7,22.4,9.2,34,12.4c6.2,1.7,12.7,2.8,19.1,3.9C224.2,57.8,230.8,58.8,237.4,59.5
			z"/>
		
			<radialGradient id="SVGID_1_" cx="-906.6245" cy="-7138.3345" r="85.6439" gradientTransform="matrix(0.9337 0.3582 -9.260000e-02 0.2415 279.7225 2086.3879)" gradientUnits="userSpaceOnUse">
			<stop  offset="0" style="stop-color:#878787"/>
			<stop  offset="0.2804" style="stop-color:#B2B2B2"/>
			<stop  offset="0.5995" style="stop-color:#DBDBDB"/>
			<stop  offset="0.8503" style="stop-color:#F5F5F5"/>
			<stop  offset="1" style="stop-color:#FFFFFF"/>
		</radialGradient>
		<path class="st10" d="M174.2,68.4c-4.4,11.4-43.7,7-87.9-10C42.1,41.5,9.9,18.5,14.2,7.1C18.6-4.4,58,0.1,102.2,17
			C146.3,34,178.6,57,174.2,68.4z"/>
		<g>
			<path class="st3" d="M220.2,76.1c-0.5,1.2-0.8,2.5-1,3.8c-0.2,1.5-0.3,3-0.3,4.6c-0.3,10.3-5.8,0.3-4.7,10.5
				c0.2,2.4,0.4,4.8,0.6,7.2c0.1,1.6,0.3,3.1,0.4,4.7c0.1,0.6,0.1,1.3,0.1,1.9c0,0.5,0.1,1,0.1,1.5c0.1,1.2,0.1,2.5,0.2,3.8
				c0,0.6,0,1.2,0.1,1.8c0.1,3.9,0.4,8.5-1.3,12.2c-13-5.1-26.3-9.4-39.3-14.4c-7.4-2.8-14.6-5.8-21.7-9.4
				c-7.2-3.6-14.3-7.5-21.2-11.5c-4.3-2.4-8.5-4.9-12.7-7.4c-3.8-2.2-7.5-4.5-11.3-6.7c-7.8-4.7-15.5-9.3-23.2-13.8
				c-4.5-2.7-10.3-5.9-17.1-9c-3.6-1.7-7.2-3.3-10.6-4.9c-1.3-0.6-2.5-1.2-3.7-1.7c-0.4-0.2-0.7-0.3-1.1-0.5
				c-0.2-0.1-0.4-0.2-0.6-0.3c-0.8-0.4-1.6-0.8-2.4-1.1c-0.3-0.2-0.7-0.3-1-0.5c-0.6-0.3-1.3-0.6-1.9-0.9c-0.5-0.2-1-0.5-1.5-0.7
				c-0.1-0.1-0.3-0.1-0.4-0.2c-0.1-0.1-0.3-0.1-0.4-0.2c-0.1,0-0.2-0.1-0.3-0.1c-6.4-1.9-12.7-4-18.8-6.7c-4.9-2.1-10.1-4.4-14-8.2
				c-1.3-1.2-2.4-2.6-3.1-4.2l0,0l0,0l0,0l0,0l0,0l0,0l0,0l0,0l0,0l0,0l0,0l0,0l0,0l0,0c-0.1-0.3-0.2-0.6-0.3-1
				c-0.1-0.3-0.1-0.5-0.2-0.8c-0.1-0.6-0.4-2.1-0.3-2.7c0.1-0.5,0.2-1.9,0.5-2.4c0.2-0.8,0.3-1.4,1.4-3.7c0.4-0.7,0.9-1.2,1.1-1.5
				c0.2-0.4,0.6-0.6,1.2-1.2c0.1-0.1,0.3-0.3,0.4-0.4c1.5-1.3,2.7-2.1,5.2-3.3c1.2-0.5,2.7-0.9,3.9-1.3c0.5-0.1,1.1-0.3,1.7-0.5
				c0.5-0.2,1.1-0.3,1.7-0.4C27,5.9,30,5.7,34,5.5c1.5-0.1,2.7,0,3.9,0.1c3,0.3,5.7,0.3,10.5,1.3c0.5,0.1,0.9,0.2,1.4,0.3
				c0.9,0.2,1.7,0.4,2.6,0.6c3,0.8,6,1.9,8.8,3c8.7,3.6,15.4,7.3,22.9,11c8.1,4,12.7,7.2,15.1,8.6c5.9,3.2,13.7,7.2,20.6,9.8
				c3.1,1.1,6.5,2.5,9.9,4.1c3.9,1.8,8,3.4,11.5,4.9c0.6,0.2,1.2,0.5,1.8,0.8c2.4,1.1,4.9,2.3,7.5,3.6c2.1,1,4.3,2.1,6.5,3.2
				c2.1,1,4.2,2,6.3,2.8c4.9,2,12.8,5.4,19,7.6c1.2,0.4,2.4,0.8,3.5,1.1c6.9,1.9,13.5,3.5,19.9,4.9c0.3,0,0.5,0.1,0.8,0.2
				C211.1,74.4,215.7,75.4,220.2,76.1z"/>
			<path class="st9" d="M12.2,23c-0.3,0.1-0.6,0.2-0.9,0.3c-0.2,0.1-0.4,0.2-0.7,0.3c-0.3,0.2-0.6,0.4-0.9,0.7
				c-0.3,0.3-0.6,0.7-0.9,1.1c-0.6,0.9-0.9,1-1.3,2C7.3,28,7,29,7.2,29.8c0,0.1,0.1,0.3,0.1,0.4C7.6,30.6,7.7,30.8,8,31
				c1.1,0.6,2.2,1.3,3.3,1.9c0.2,0.1,0.4,0.2,0.6,0.4c1.1,0.6,2.2,1.3,3.3,1.7c2.6,1.1,4.8,2.1,7.2,3.2c0.7,0.3,1.5,0.6,2.3,0.9
				c2.2,0.9,4.6,1.7,6.9,2.4c2,0.6,4,1.1,5.9,1.4c0.5,0.1,1,0.2,1.5,0.3c0.3,0,0.6,0.1,0.9,0.1c0.5,0.1,1.1,0.2,1.6,0.3
				c0.7,0.1,1.3,0.2,1.8,0.2c0.1,0,0.2,0,0.3-0.1c0,0,0,0,0,0c0-0.1,0.1-0.6,0.1-0.7c0,0,0-0.1,0-0.2c0-0.2,0-0.5-0.1-0.9
				c-0.1-0.6-0.2-1.1-0.4-1.6c-0.2-0.5-0.4-0.9-0.7-1.4c-0.2-0.4-0.4-0.7-0.7-1.1c-0.2-0.2-0.3-0.4-0.4-0.6c0,0,0.2,0.3,0.3,0.4
				c0-0.1-0.1-0.1-0.1-0.2c-0.3-0.3-0.6-0.7-0.8-1.1c-0.2-0.3-0.5-0.6-0.7-0.8c-0.1-0.1-0.3-0.3-0.4-0.4c-0.2-0.2-0.5-0.5-0.7-0.8
				c-1-1-2.1-1.9-3.1-2.8c-1.1-0.9-2.2-1.8-3.4-2.6c-0.4-0.3-0.9-0.6-1.3-0.8c-1.4-0.9-2.9-1.6-4.4-2.1c-1.7-0.6-4.7-1.7-7.6-2.4
				c-0.4-0.1-0.9-0.2-1.3-0.2c-1.7-0.2-3.4-0.4-5-0.4C12.5,23,12.4,23,12.2,23z"/>
		</g>
		
			<radialGradient id="SVGID_00000072960328419868909540000011441613660796121779_" cx="-917.6252" cy="-7099.7729" r="85.6521" gradientTransform="matrix(0.9337 0.3582 -9.260000e-02 0.2415 279.7225 2086.3879)" gradientUnits="userSpaceOnUse">
			<stop  offset="0" style="stop-color:#878787"/>
			<stop  offset="0.2804" style="stop-color:#B2B2B2"/>
			<stop  offset="0.5995" style="stop-color:#DBDBDB"/>
			<stop  offset="0.8503" style="stop-color:#F5F5F5"/>
			<stop  offset="1" style="stop-color:#FFFFFF"/>
		</radialGradient>
		<path style="opacity:0.7;fill:url(#SVGID_00000072960328419868909540000011441613660796121779_);" d="M160.4,73.8
			c-4.4,11.4-43.7,7-87.9-10C28.3,46.8-4,23.9,0.4,12.4c4.4-11.4,43.7-7,87.9,10C132.5,39.4,164.7,62.3,160.4,73.8z"/>
		<path class="st3" d="M210.9,88.5c-0.6,1.2,0,0-0.2,1.3c-0.2,1.5-0.3,3-0.4,4.5c-0.5,10.3-5.8,0.2-5,10.4c0.2,2.4,0.4,4.8,0.5,7.3
			c0.1,1.5,0.2,3.1,0.3,4.7c0,0.6,0.1,1.3,0.1,1.9c0,0.5,0,1,0.1,1.5c0,1.2,0.1,2.5,0.1,3.8c0,0.6,0,1.2,0,1.8
			c0,3.9,0.2,8.5-1.5,12.1c-12.9-5.3-26-9.9-38.9-15.2c-9.8-4.1-19.4-8.6-28.7-13.8c-4.6-2.6-9.2-5.3-13.8-8
			c-4.2-2.5-8.3-5-12.5-7.6c-3.7-2.3-7.5-4.6-11.2-7c-7.7-4.9-15.3-9.7-22.9-14.3c-4.5-2.8-10.2-6.1-16.9-9.4
			c-3.5-1.7-7.1-3.5-10.5-5.1c-1.2-0.6-2.5-1.2-3.7-1.8c-0.3-0.2-0.7-0.3-1-0.5c-0.2-0.1-0.4-0.2-0.6-0.3c-0.8-0.4-1.6-0.8-2.4-1.2
			c-0.3-0.2-0.7-0.3-1-0.5c-0.6-0.3-1.2-0.6-1.9-0.9c-0.5-0.2-1-0.5-1.5-0.7c-0.1-0.1-0.2-0.1-0.4-0.2c-0.1-0.1-0.3-0.1-0.4-0.2
			c-0.1-0.1-0.2-0.1-0.3-0.2c-6.4-2-12.6-4.3-18.7-7.1c-4.8-2.2-10-4.6-13.8-8.5c-1.2-1.2-2.3-2.7-3-4.3l0,0l0,0l0,0l0,0l0,0l0,0
			l0,0l0,0l0,0l0,0l0,0l0,0l0,0l0,0c-0.1-0.3-0.2-0.7-0.3-1c-0.1-0.3-0.1-0.5-0.1-0.8c0-0.6-0.4-2.1-0.2-2.7
			c0.1-0.5,0.3-1.9,0.5-2.4c0.2-0.8,0.3-1.4,1.5-3.7c0.4-0.7,0.9-1.2,1.1-1.5c0.3-0.4,0.6-0.6,1.2-1.2c0.1-0.1,0.3-0.3,0.5-0.4
			c1.5-1.3,2.7-2.1,5.2-3.2c1.2-0.5,2.7-0.8,4-1.2c0.5-0.1,1.1-0.3,1.7-0.4c0.5-0.1,1.1-0.2,1.7-0.3c2.5-0.4,5.6-0.5,9.5-0.6
			c1.5,0,2.7,0.1,3.9,0.2c3,0.3,5.7,0.4,10.5,1.5c0.5,0.1,0.9,0.2,1.4,0.3c0.9,0.2,1.7,0.4,2.5,0.7c3,0.9,6,2,8.7,3.2
			c8.6,3.8,15.3,7.6,22.7,11.4c8,4.2,12.5,7.5,14.9,8.9c5.8,3.4,13.6,7.5,20.4,10.2c3.1,1.2,6.5,2.6,9.8,4.3
			c3.9,1.9,7.9,3.6,11.4,5.1c0.6,0.2,1.1,0.5,1.7,0.8c2.4,1.1,4.9,2.4,7.4,3.8c1.4,0.7,2.7,1.4,4.1,2.1c0.7,0.4,1.5,0.8,2.3,1.2
			c2.1,1.1,4.2,2.1,6.3,3c4.8,2.1,12.6,5.7,18.8,7.9c1.2,0.4,2.4,0.9,3.4,1.2c6.8,2.3,13.1,4.8,19.2,6.9c0.2,0.1,0.5,0.2,0.7,0.3
			C201.9,86.3,206.4,87.7,210.9,88.5z"/>
		
			<radialGradient id="SVGID_00000010995951440815148470000013094155506610437796_" cx="-905.5634" cy="-7058.0981" r="85.6472" gradientTransform="matrix(0.9337 0.3582 -9.260000e-02 0.2415 279.7225 2086.3879)" gradientUnits="userSpaceOnUse">
			<stop  offset="0" style="stop-color:#878787"/>
			<stop  offset="0.2804" style="stop-color:#B2B2B2"/>
			<stop  offset="0.5995" style="stop-color:#DBDBDB"/>
			<stop  offset="0.8503" style="stop-color:#F5F5F5"/>
			<stop  offset="1" style="stop-color:#FFFFFF"/>
		</radialGradient>
		<path style="opacity:0.7;fill:url(#SVGID_00000010995951440815148470000013094155506610437796_);" d="M167.8,88.2
			c-4.4,11.4-43.7,7-87.9-10C35.7,61.2,3.4,38.2,7.8,26.8c4.4-11.4,43.7-7,87.9,10C139.9,53.7,172.1,76.7,167.8,88.2z"/>
		<path class="st9" d="M6.1,28.3c-0.2,0.1-0.5,0.1-0.8,0.2c-0.2,0.1-0.4,0.1-0.6,0.2c-0.2,0.1-0.4,0.2-0.7,0.3c-0.3,0.2-0.7,0.6-1,1
			c-0.6,0.7-0.9,0.8-1.3,1.6c-0.3,0.5-0.7,1.3-0.5,2c0,0.1,0,0.2,0.1,0.3c0.1,0.3,0.3,0.6,0.4,0.7c0.9,0.7,1.7,1.3,2.6,1.9
			c0.2,0.1,0.3,0.2,0.5,0.3c0.9,0.6,1.7,1.3,2.6,1.8c2.1,1.1,3.9,2.2,5.8,3.3c0.6,0.3,1.2,0.7,1.8,1c1.8,0.9,3.7,1.8,5.7,2.6
			c1.7,0.7,3.3,1.2,4.9,1.7c0.4,0.1,0.8,0.2,1.3,0.3c0.3,0.1,0.5,0.1,0.8,0.2c0.3,0.1,0.5,0.1,0.8,0.2c0.8,0.2,1.5,0.5,2.1,0.5
			c0.1,0,0.2,0,0.2,0c0,0,0,0,0,0c0-0.1,0.1-0.5,0.2-0.6c0,0,0-0.1,0-0.1c0-0.2,0-0.4,0-0.7c0-0.5-0.1-1-0.2-1.5
			c-0.1-0.4-0.3-0.8-0.4-1.2c-0.1-0.3-0.3-0.7-0.4-1c-0.1-0.2-0.2-0.4-0.3-0.6c0,0,0.2,0.2,0.2,0.3c0,0-0.1-0.1-0.1-0.2
			c-0.4-0.6-0.7-1.2-1.2-1.7c-0.1-0.1-0.2-0.3-0.3-0.4c-0.2-0.2-0.3-0.5-0.5-0.7c-0.7-1-1.6-1.8-2.4-2.6c-0.8-0.9-1.7-1.7-2.6-2.5
			c-0.3-0.3-0.7-0.6-1-0.8c-1.1-0.8-2.3-1.6-3.5-2.1c-1.4-0.7-3.8-1.9-6.3-2.7c-0.4-0.1-0.7-0.2-1-0.3c-1.4-0.3-2.8-0.7-4.2-0.8
			C6.4,28.4,6.3,28.4,6.1,28.3z"/>
		<path class="st3" d="M302.6,187.6c7.7,0.5,40.6,2.6,48.3,0.2c3.1-1,6.2-2,9.4-3.1c10.6-3.8,27.9-11.7,37.5-15.5
			c0.7-0.3,1.5-0.6,2.1-0.8c-0.3-1.7,0-2.9-0.3-3.9c-0.3-1-0.2-2.2-0.6-3.2c-0.2-0.6,0-1-0.1-1.7c0-0.1,0-0.2-0.1-0.3
			c-0.1-0.3-0.2-0.7-0.3-1.1c-0.1-0.6-0.4-2.4-0.5-3c-0.3-1.5-0.5-2.6-0.8-4.1c-0.3-1.7-0.7-2.9-1-4.6c-0.4-2-0.6-3-1.1-5.1
			c-0.4-1.5-0.6-2.8-1.1-4.3c-0.2-0.8,0.7-2.9,0.5-3.8c-0.5-1.7-2-2.7-2.6-4.5c-0.6-0.2-1.2-0.3-1.8-0.4c-8.3-1.8-24.4-2.8-32.7-3.9
			c-2.4-0.3-4.9-0.6-7.4-0.8c-6.2-0.6-12.5-0.9-19-1c-8.9-0.1-17.6-2.8-26.8-1.8c-4.5,0.5-9.3,1.7-14,2.8c-1.5,0.4-2.5-3.5-3.9-3.2
			c-6.1-3.9-11.8-2.2-17.9-5.5c-5.6-3-12.2-3.6-17.5-6.1c-6.5-3-14.5-4.4-21.1-7c-0.2-0.1-0.3-0.1-0.5-0.2c-3.7-1.5-11.4-4-16.6-5.5
			c-4.4-1.3-8.5-2.5-12.5-3.8c-0.2-0.1-0.4-0.2-0.6-0.2c-5.4-1.6-10.8-3.2-16.6-4.7c-5.3-1.4-14-4.5-19.2-6.3
			c-1.8-0.6-3.7-1.4-5.5-2.2c-1.9-0.9-3.9-1.8-5.7-2.8c-2.4-1.2-4.7-2.5-6.9-3.8c-0.6-0.3-1.1-0.6-1.6-0.9
			c-3.3-1.9-6.7-3.6-10.1-5.3c-2.9-1.5-5.9-3-9-4.2c-6.1-2.5-11.9-3.4-19.7-7.4c-2.4-1.3-8.3-5.4-15.8-9.7
			c-7.3-4.1-14.7-7.8-22.5-10.9c-3.9-1.6-8.2-3.1-12.5-4.2c-1.3-0.3-2.6-0.7-3.9-0.9c-7-1.5-14.1-2.1-20.7-0.8
			c-4.2,0.8-8.1,2.3-11.7,4.8c-1.6,1.1-3.1,2.4-4.5,3.8c-0.1,0.1-0.3,0.3-0.4,0.4c-0.4,0.7-0.7,1.5-0.8,2.2
			c-0.1,0.3-0.1,0.7-0.1,1.1c0,0.6,0.1,1.2,0.3,1.9c1.1,3.9,5.5,8,11.2,11.7c7,4.6,14.6,8.2,22.2,11.5c0.3,0.2,0.5,0.4,0.8,0.5
			c0.6,0.4,1.2,0.7,1.8,1.2c1,0.6,2.1,1.3,3.2,2c0.5,0.3,1,0.6,1.5,0.9c1.7,1,3.4,2,5,3.1c3.2,2,6.6,4.1,10,6.1
			c6.3,3.9,11.7,7.8,15.9,11c7.1,5.4,14.2,10.9,21.4,16.5c3.5,2.7,7,5.3,10.5,8c3.9,3,7.8,5.9,11.7,8.8c0.7,0.5,1.4,1,2,1.5
			c2.7,1.9,5.4,3.9,8,5.8c2.2,1.5,4.4,3,6.5,4.5c2.1,1.4,4.2,2.8,6.4,4.2c5.7,3.7,12.4,7.2,18.4,10.4c6.7,3.6,13.5,6.9,20.3,10.3
			c0.3,0.1,0.5,0.3,0.8,0.4C206,166.2,296.2,187,302.6,187.6z"/>
		<path class="st9" d="M17.1,40.1c-0.3,0-0.5,0.1-0.8,0.1c-0.2,0-0.4,0.1-0.6,0.2c-0.2,0.1-0.4,0.2-0.7,0.3
			c-0.3,0.2-0.7,0.5-1.1,0.9c-0.7,0.6-1,0.7-1.5,1.5c-0.3,0.5-0.8,1.2-0.7,2c0,0.1,0,0.2,0,0.3c0.1,0.4,0.2,0.6,0.4,0.8
			c0.8,0.7,1.6,1.4,2.4,2.1c0.2,0.1,0.3,0.3,0.4,0.4c0.8,0.7,1.6,1.4,2.4,2c2,1.3,3.6,2.5,5.5,3.8c0.6,0.4,1.2,0.8,1.8,1.1
			c1.7,1.1,3.6,2.1,5.4,3.1c1.6,0.8,3.2,1.5,4.7,2.2c0.4,0.1,0.8,0.3,1.2,0.5c0.2,0.1,0.5,0.2,0.7,0.3c0.3,0.1,0.5,0.2,0.7,0.3
			c0.8,0.3,1.5,0.6,2,0.6c0.1,0,0.2,0,0.2,0c0,0,0,0,0,0c0-0.1,0.2-0.5,0.2-0.5c0,0,0-0.1,0-0.1c0-0.2,0.1-0.4,0.1-0.7
			c0-0.5,0-1-0.1-1.5c-0.1-0.4-0.2-0.8-0.3-1.2c-0.1-0.4-0.2-0.7-0.4-1c-0.1-0.2-0.2-0.4-0.3-0.6c0,0,0.2,0.3,0.2,0.4
			c0-0.1-0.1-0.1-0.1-0.2c-0.3-0.6-0.6-1.3-1-1.8c-0.1-0.1-0.2-0.3-0.2-0.4c-0.2-0.3-0.3-0.5-0.5-0.8c-0.6-1-1.4-1.9-2.2-2.8
			c-0.8-0.9-1.6-1.8-2.4-2.7c-0.3-0.3-0.6-0.7-0.9-0.9c-1.1-0.9-2.2-1.8-3.3-2.4c-1.4-0.8-3.6-2.2-6-3.2c-0.4-0.1-0.7-0.3-1-0.4
			c-1.4-0.5-2.8-0.9-4.1-1.1C17.4,40.1,17.3,40.1,17.1,40.1z"/>
		
			<radialGradient id="SVGID_00000023960089820955045400000001747141282614324393_" cx="-608.6182" cy="-6618.145" r="141.5932" gradientTransform="matrix(0.9289 0.3705 -9.590000e-02 0.2401 146.5016 1892.3689)" gradientUnits="userSpaceOnUse">
			<stop  offset="0" style="stop-color:#878787"/>
			<stop  offset="0.2804" style="stop-color:#B2B2B2"/>
			<stop  offset="0.5995" style="stop-color:#DBDBDB"/>
			<stop  offset="0.8503" style="stop-color:#F5F5F5"/>
			<stop  offset="1" style="stop-color:#FFFFFF"/>
		</radialGradient>
		<path style="opacity:0.7;fill:url(#SVGID_00000023960089820955045400000001747141282614324393_);" d="M347.3,130.3
			c-7.5,18.8-72.4,10.5-145.1-18.4c-72.6-29-125.4-67.7-117.9-86.5c7.5-18.8,72.4-10.5,145.1,18.4C302,72.8,354.8,111.5,347.3,130.3
			z"/>
		<path class="st3" d="M497.9,79.1l-32.1,76.7L447.3,200c-5.3-1.1-22-2.8-34.4-4.2l-0.1,0c-4.9-0.6-9.1-1.1-11.6-1.6
			c-5.7-1.1-12.7-2.5-18.5-3.1c-5.1-0.5-11.3-0.1-16.3-0.7c-6.1-0.7-12.2-1.1-18.3-1.3c-2.5-0.1-5-0.1-7.5-0.2c0,0-0.1,0-0.1,0
			c-0.6,0-1.2,0-1.7,0c-2.7,0-5.3,0-8,0c0.7-2.2,1.3-4.6,1.8-7l0.1-0.4c0.2-0.9,0.4-1.8,0.6-2.8c0.1-0.3,0.1-0.5,0.2-0.8
			c0.1-0.7,0.3-1.4,0.4-2.1c0.3-1.4,0.5-2.7,0.8-4.1c0.3-1.5,0.5-3.1,0.7-4.6c0.2-1.7,0.6-3.5,0.8-5.2c0.2-1.5,0.4-2.9,0.6-4.4
			c0.2-1.4,1.2-2.1,1.3-3.6c0.2-1.4-0.4-3.5-0.3-4.9c-3.1-1.7-6.4-3.7-9.5-5.4c-2-1.1-4-2.2-6.1-3.3l0,0
			c-20.1-10.6-41.2-20.5-59.1-26.6c-4.9-1.7-9.6-3.1-14.3-4.4c-1.3-0.4-2.6-0.7-3.9-1.1c-2.3-0.6-4.5-1.2-6.7-1.8
			c-1-0.3-2-0.5-2.9-0.8c-1.6-0.5-3.2-0.9-4.8-1.4c-2.1-0.7-4.1-1.2-6-1.9c-1.2-0.4-2.5-0.8-3.9-1.2c-1.9-0.6-3.9-1.1-5.9-1.6
			c-1.7-0.4-3.4-0.9-5.1-1.3c-1.3-0.3-2.6-0.6-3.8-1c-2.7-0.7-5.5-1.4-8.1-2.2c-1.9-0.6-3.8-1.2-5.6-1.9c-1.2-0.5-2.4-0.9-3.6-1.5
			c-3.1-1.3-6.2-2.7-9.3-4c-3.9-1.6-7.7-3.3-11.6-5c-0.6-0.3-1.3-0.6-1.9-0.8c-0.7-0.3-1.4-0.6-2.1-1c0,0,0,0,0,0
			c-2.3-1.1-4.6-2.2-6.9-3.4c-1.4-0.7-2.7-1.4-4.1-2.2c-0.4-0.2-0.8-0.4-1.2-0.7c-0.1-0.1-0.2-0.1-0.3-0.2c-0.8-0.4-1.5-0.9-2.2-1.3
			c-1.2-0.8-2.5-1.5-3.7-2.3c-0.4-0.2-0.7-0.5-1.1-0.7c-6.4-3.3-10.4-6.9-12.7-10.6c-0.8-1.2-1.4-2.5-1.9-3.7
			c-0.2-0.5-0.4-1.1-0.5-1.7c-0.2-0.9-0.4-1.8-0.5-2.7c-0.2-1.6-0.2-3.2,0-4.7c0.1-1,0.2-1.9,0.4-2.8c0.1-0.8,0.3-1.5,0.5-2.2l0,0
			c0.8-2.9,2-5.6,3.7-8.1c0.5-0.7,1-1.4,1.5-2c0.2-0.3,0.5-0.6,0.8-0.9c0.2-0.3,0.5-0.5,0.7-0.7c1.4-1.5,3-2.8,4.9-4
			c1.4-0.8,2.9-1.6,4.5-2.2c1.7-0.6,4-1.4,6.3-1.9c1.3-0.3,2.7-0.5,3.9-0.5c0.5,0.1,1,0.1,1.4,0.1c0.5,0,1,0,1.5,0c0,0,0,0,0,0
			c0.8,0,1.6,0,2.8,0.2c1.3,0.2,2.6,0.3,3.8,0.5c0.6,0.1,1.2,0.2,1.8,0.3c5.6,0.8,11.2,1.6,16.8,2.5c5.6,0.9,11.1,2,16.7,3.1
			c3.8,0.9,7.7,1.7,11.4,2.7c1.3,0.4,2.6,0.8,3.9,1.2c1.9,0.7,3.7,1.4,5.5,2.2c2.4,1.1,4.9,2.4,7.3,3.6c4.4,2.3,8.9,4.7,13.6,6.5
			c1.3,0.5,2.7,1,4,1.4c1.8,0.5,3.7,1.1,5.6,1.7c2.3,0.8,4.6,1.5,6.9,2.3c1.9,0.7,3.9,1.3,5.8,2c1.1,0.4,2.3,0.8,3.4,1.1
			c4,1.3,8.1,2.6,12.4,3.7c17.1,4.6,38.7,8.3,61,2.8c3.2-0.8,7.2-1.1,10.5-2.3c4-0.6,8.5-0.6,12.5-1.1c4.7-0.6,9.8-0.7,14.5-1.2
			c9.7-1,16.8-1.3,25.6-1.9c7-0.5,11.3-0.1,28.2,4.5c2.8,0.8,5.9,1.6,9.5,2.6c0,0,10.8,3.4,21.6,6.7c1.3,0.4,2.6,0.8,3.9,1.2
			c3.3,1,6.8,2.2,10.2,3.3C486,74,493.7,76.9,497.9,79.1z"/>
		<path class="st9" d="M174.3,73.1c0.8-0.3,1.6-0.7,2.4-1.2c1.9-1.3,3.7-3.2,5.2-5.4c1.1-1.6,2-3.4,2.8-5c1-2.1,1.7-4.1,2.2-5.7
			c0.4-1.5,1-3.2,1.3-5c0.3-1.6,0.4-3.3,0.2-5.2c-0.1-0.9-0.3-1.8-0.6-2.8c-0.3-0.8-0.6-1.6-1-2.4l0,0l0,0c-0.2-0.4-0.9-1.1-1.2-1.6
			c-0.2-0.4-0.5-0.8-0.9-1.1c-0.4-0.4-0.9-0.8-1.5-1.3c-3.6-2.7-9.1-4.9-14.7-6.6c-2.3-0.7-4.4-1.4-6.8-1.9c-1.4-0.3-3-0.5-4.7-0.7
			c-0.8-0.1-1.7-0.1-2.7-0.1c-1.2,0-2.4,0-3.8,0.1c-1.4,0.1-2.8,0.3-4.5,0.5c-1.1,0.2-2.1,0.5-3.2,0.8c-1.2,0.4-2.4,1-3.4,1.7
			c-2.3,1.4-4.2,3.2-5.6,5c-1.8,2.2-2.9,4.4-3.4,6.1c-0.5,1.6-0.7,3.4-0.6,5.3c0.1,1.5,0.2,3.1,0.6,4.8c0.5,2.2,0.4,2.6,1.2,4.4
			c0.4,1,2.4,4,3.9,5.4c1.2,1.4,1.5,1.5,2.5,2.2c1,0.8,2,1.4,2.9,2.1c0.7,0.5,1.4,0.9,2.1,1.4c1.4,0.9,2.6,1.3,3.9,1.7
			c2.5,0.8,4.1,1.7,6.4,2.4c6.2,1.9,13,4.3,19.4,2.8C173.2,73.5,173.7,73.3,174.3,73.1L174.3,73.1L174.3,73.1z"/>
	</g>
	<path class="st4" d="M477.9,71.3l-12.1,84.5L447.3,200c-5.3-1.1-22-2.8-34.4-4.2l-0.1,0l19.9-138.4c2.8,0.8,5.9,1.6,9.5,2.6
		c0,0,10.8,3.4,21.6,6.7c1.3,0.4,2.6,0.8,3.9,1.2C471,69,474.5,70.1,477.9,71.3z"/>
	<g>
		<g>
			<path class="st0" d="M467.3,157.1l-11-1.5l-14-1.9l-12.2,89.5c-0.6,4.4,2,8.4,5.8,8.9l6.9,1l11.1,1.5L467.3,157.1z"/>
			<path class="st5" d="M480.3,62.6l-10.8-1.5c0,0-3.2-0.4-7.1-1c-3.9-0.5-7.6,2.6-8.2,7l-11.9,86.5l14,1.9l11,1.5L480.3,62.6z"/>
			<polygon class="st4" points="454,254.6 467.3,157.1 480.3,62.6 469.5,61.2 456.4,155.6 442.9,253.1 			"/>
			<path d="M1352.5,249.5L595,174.3l-127.6-17.2l12.9-94.4l1.6-11.8c0.6-4.4,4.7-7.7,9.1-7.4l868.6,56.4L1352.5,249.5z"/>
			<path class="st6" d="M1351.8,383.6L460.5,266.4c-4.4-0.7-7.6-3.6-7.2-6.5l0.7-5.3l13.4-97.5L595,174.3l757.5,75.1L1351.8,383.6z"
				/>
			<path class="st4" d="M520.8,78.1c4.9-7.1,3.3-16.8-3.8-21.8l0,0c-7.1-5-16.8-3.3-21.8,3.8l0,0c-5,7.1-3.2,16.8,3.8,21.8l0,0
				C506,86.8,515.8,85.1,520.8,78.1L520.8,78.1z"/>
			<path class="st7" d="M522,79.5c4.9-7.1,3.3-16.8-3.8-21.8l0,0c-7.1-5-16.8-3.2-21.8,3.8l0,0c-5,7.1-3.3,16.8,3.8,21.8l0,0
				C507.3,88.3,517,86.6,522,79.5L522,79.5z"/>
		</g>
		<g>
			<path class="st8" d="M505,72.6c1-0.8,1.1-2.4,0.2-3.4c-0.9-1.1-2.4-1.3-3.4-0.4c-1,0.8-1.1,2.4-0.2,3.4
				C502.5,73.3,504,73.5,505,72.6z"/>
			<path class="st8" d="M509.5,78.1c1-0.8,1.1-2.4,0.2-3.5c-0.9-1.1-2.4-1.3-3.4-0.4c-1,0.8-1.1,2.4-0.2,3.4
				C507,78.7,508.5,78.9,509.5,78.1z"/>
			<path class="st8" d="M510.8,67.8c1-0.8,1.1-2.4,0.2-3.4c-0.9-1.1-2.4-1.3-3.4-0.4c-1,0.8-1.1,2.4-0.2,3.4
				C508.2,68.5,509.8,68.7,510.8,67.8z"/>
			<path class="st8" d="M515.3,73.3c1-0.8,1.1-2.4,0.2-3.4c-0.9-1.1-2.4-1.2-3.4-0.4c-1,0.8-1.1,2.4-0.2,3.4
				C512.8,74,514.3,74.1,515.3,73.3z"/>
		</g>
	</g>
</g>
</svg>
