<?xml version="1.0" encoding="utf-8"?>
<!-- Generator: Adobe Illustrator 27.0.0, SVG Export Plug-In . SVG Version: 6.00 Build 0)  -->
<svg version="1.1" id="Layer_1" xmlns="http://www.w3.org/2000/svg" xmlns:xlink="http://www.w3.org/1999/xlink" x="0px" y="0px"
	 viewBox="0 0 1457.2 638.7" style="enable-background:new 0 0 1457.2 638.7;" xml:space="preserve">
<style type="text/css">
	.st0{fill:#DBA782;}
	.st1{fill:#E8B290;}
	.st2{opacity:0.1;enable-background:new    ;}
	.st3{fill:#FFFFFF;}
	.st4{fill:#E5E5E5;}
	.st5{fill:#353535;}
	.st6{fill:#DADADA;}
	.st7{fill:#3C3C3B;}
	.st8{fill:#F1C2B1;}
</style>
<g>
	<path d="M9.9,240.9l-0.1-0.1C9.8,240.8,9.8,240.9,9.9,240.9z"/>
	<path d="M8.1,239.5L8.1,239.5L8.1,239.5z"/>
	<path class="st0" d="M298.3,400.6c-6.3,11.1-18.5,17.9-33.8,17L122,408.8c-4.8,3.1-10.5,4.8-16.7,4.4l156.8,9.7
		C279.7,424,293.2,414.8,298.3,400.6z"/>
	<path class="st0" d="M40.6,348.6l8.7-140.3c0.3-5,1.4-9.7,3.1-14.2c-3.1,5.8-5.1,12.4-5.5,19.5l-8.3,134.9L40.6,348.6z"/>
	<polygon class="st0" points="80.5,411.6 80.5,411.6 87.3,412.1 	"/>
	<path class="st1" d="M263.8,222.3l34.7,151.5c5.8,25.2-10.2,52.1-35.5,51.9l-148.5-7.5l-9.9-0.1l-23.2-0.2c-4.8,0-9.5-0.8-13.9-2.3
		c-3.1-1-6.1-2.4-8.9-4.1c-6.2-3.7-11.5-8.8-15.4-15s-6.5-13.4-7.2-21.1c-0.1-1.6-0.2-3.2-0.2-4.8V367c1.9-2,4.1-3.8,6.5-5.3
		c4.2-2.6,9-4.2,14.2-4.8c-2.6-0.7-5-1.6-7.2-2.7c-5.7-2.8-10.2-6.9-13.3-11.7l0.2-29.3l0.1-18.3c1.5-0.7,3.1-1.3,4.7-1.7l-4.7-0.5
		v-3.5V286l0.3-50.7l0.1-9.2c1-0.2,2.1-0.3,3.1-0.4c-1.1-0.4-2.1-0.8-3.1-1.2v-2.6c0-0.5,0-0.9,0-1.3c0.1-2.2,0.3-4.5,0.7-6.6
		c3.8-22.1,22.7-38.9,45.4-38.7l30.5,0.2h9.3l84.7,0.6C232.8,176.4,258,197,263.8,222.3z"/>
	<path class="st1" d="M283.2,429.1l-119-7.4l-62.5-3.9c-25.3-1.6-44.4-23.8-42.9-49.7L68,219.7c1.6-25.9,23.4-45.6,48.7-44
		l124.3,7.7c25.3,1.6,44.8,24.3,53.7,49L321,385.7C325.4,411.2,308.5,430.7,283.2,429.1z"/>
	<path class="st1" d="M455.9,332.1c-3.3,53.5-50,94.1-104.4,90.8l-2.1-0.1l-6.1-0.4l-40.6-2.5l-6.9-0.4l-43.5-2.6
		c-54.3-3.3-95.7-49.5-92.4-103l0.1-1.7c4.1-52.7,50.4-92.4,104.2-89.1l57.9,3.6l21.8,1.4l19.5,1.2c1.8,0.1,3.6,0.3,5.4,0.5
		c7.5,0.9,14.7,2.6,21.6,5C430.9,248.8,458.6,287.9,455.9,332.1z"/>
	<path class="st0" d="M454.3,344.6c-7,49.7-51.8,86.5-103.6,83.3l-8.6-0.5l-47.5-3l-43-2.7c-54.4-3.4-95.7-49.5-92.4-102.9
		c0.2-4.3,0.8-8.5,1.6-12.5c-0.4,2.5-0.7,4.9-0.8,7.5c-3.3,53.5,38,99.6,92.4,102.9l43.5,2.7l47.5,3l8.2,0.5
		C401.5,426,445.1,391.8,454.3,344.6z"/>
	<path class="st1" d="M315,264.9c-7.2,9.2-30.5,3-52.1-13.9c-21.5-16.9-33.1-38.1-25.9-47.3c7.2-9.2,30.6-3,52.1,14
		C310.6,234.5,322.2,255.7,315,264.9z"/>
	<path class="st2" d="M390.6,234.6l-47.2,187.8l-1.3,5l-47.5-3l1.3-5L344.1,228l19.5,1.2c1.8,0.1,3.6,0.3,5.4,0.5
		C376.5,230.5,383.7,232.2,390.6,234.6z"/>
	<path class="st2" d="M135.1,331.3c-2.5,17.3-21.3,30.3-42,29l-1.2-0.1l-26.8-1.7c-3-0.2-5.9-0.7-8.6-1.4c-9-2.4-16.2-7.6-20.5-14.4
		c-3.4-5.3-4.9-11.5-4-18.1c0.6-4,2-7.8,4.2-11.2c2.8-4.5,6.9-8.4,11.7-11.4c7.3-4.5,16.5-6.9,26.1-6.3l28,1.8
		C122.7,298.8,137.5,314,135.1,331.3z"/>
	<path class="st2" d="M126.2,391.7c-2,14.2-17.4,24.8-34.3,23.7L69,413.9c-16.9-1.1-29-13.5-27-27.6l0,0c2-14.2,17.3-24.7,34.3-23.6
		l22.9,1.5C116.1,365.2,128.2,377.6,126.2,391.7L126.2,391.7z"/>
	<path class="st3" d="M370.5,341.1l-13.1-1.1l-16.8-1.4l9-107.2c0.4-5.3,4.5-9.2,9.1-8.9l8.3,0.7l13.3,1.2L370.5,341.1z"/>
	<path class="st4" d="M361.1,454.2l-12.9-1.1c0,0-3.8-0.3-8.5-0.7s-8.2-5-7.7-10.3l8.6-103.6l16.8,1.4l13.1,1.1L361.1,454.2z"/>
	<polygon class="st2" points="380.3,224.3 370.5,341.1 361.1,454.2 348.2,453.2 357.4,340 367,223.2 	"/>
	<path d="M1423.3,463L523.4,354.1l-152.8-13l-9.5,113.1l-1.2,14.2c-0.4,5.3,3.4,10.2,8.7,11l1024.2,159.3L1423.3,463z"/>
	<path class="st5" d="M1457.2,306.9L390.9,212.3c-5.3-0.4-9.8,2.2-10.1,5.7l-0.5,6.3l-9.7,116.8l152.8,13L1423.3,463L1457.2,306.9z"
		/>
	<path class="st2" d="M412.2,446.8c3.9,9.5-0.6,20.4-10.1,24.3l0,0c-9.5,3.9-20.4-0.6-24.3-10.1l0,0c-3.9-9.5,0.6-20.4,10.1-24.3
		l0,0C397.3,432.8,408.2,437.3,412.2,446.8L412.2,446.8z"/>
	<path class="st6" d="M414,445.4c3.9,9.5-0.6,20.4-10.1,24.3l0,0c-9.5,3.9-20.4-0.6-24.3-10.1l0,0c-3.9-9.5,0.6-20.4,10.1-24.3l0,0
		C399.2,431.4,410.1,435.9,414,445.4L414,445.4z"/>
	<path class="st7" d="M392.5,449c0.9,1.2,0.7,3-0.6,4.1c-1.3,1-3.1,0.8-4.1-0.4s-0.7-3.1,0.6-4.1C389.7,447.6,391.5,447.8,392.5,449
		z"/>
	<path class="st7" d="M399.1,443.8c1,1.2,0.7,3.1-0.6,4.1c-1.3,1-3.1,0.8-4.1-0.4c-0.9-1.2-0.7-3.1,0.6-4.1
		C396.4,442.4,398.2,442.6,399.1,443.8z"/>
	<path class="st7" d="M397.9,456.1c1,1.2,0.7,3-0.6,4.1c-1.3,1-3.1,0.8-4.1-0.4s-0.7-3,0.6-4C395.1,454.7,397,454.8,397.9,456.1z"/>
	<path class="st7" d="M404.6,450.9c0.9,1.2,0.7,3-0.6,4.1c-1.3,1-3.1,0.8-4.1-0.4s-0.7-3,0.6-4.1
		C401.8,449.5,403.7,449.7,404.6,450.9z"/>
	<path class="st0" d="M125,201.6c-0.9,3.8-2.7,7.4-5.4,10.5c-1.3,1.5-2.8,3-4.4,4.4c-3.8,3.2-8.5,5.7-13.8,7.5c-3,1-6.1,1.8-9.4,2.2
		c-3.9,0.6-8,0.7-12.1,0.4l-19.8-1.7l-9-0.7c-0.2,0-0.4,0-0.6-0.1c-0.8-0.1-1.5-0.2-2.3-0.3c-0.2,0-0.4,0-0.6-0.1
		c-0.6-0.1-1.1-0.2-1.7-0.3c-1-0.2-2-0.4-3-0.7c-0.5-0.1-1.1-0.3-1.6-0.4c-0.9-0.2-1.7-0.5-2.5-0.8c-0.6-0.2-1.2-0.4-1.7-0.6
		c-0.6-0.3-1.3-0.5-1.9-0.8c-0.6-0.3-1.2-0.6-1.7-0.9c-0.6-0.3-1.2-0.6-1.8-1c-0.6-0.3-1.2-0.7-1.7-1.1c-0.5-0.3-0.9-0.6-1.3-0.9
		c-0.2-0.1-0.3-0.2-0.4-0.3c-4.7-3.7-8-8.4-9.3-13.5c-0.2-0.7-0.3-1.4-0.4-2.1c-0.4-2.4-0.3-5,0.3-7.5l1.3-3.9
		c0.5-1.2,1.1-2.3,1.8-3.4c2.8-4.5,7-8.3,12.1-11.3c5-2.9,11-5,17.3-6c1-0.2,2-0.3,3-0.4c3.1-0.3,6.3-0.3,9.6-0.1l28.9,2.4H93l0,0
		c2.9,0.2,5.7,0.7,8.3,1.4C117.8,175.9,128.1,188.1,125,201.6z"/>
	<path class="st2" d="M142.3,203.7c-3.5,15.6-23.7,26.8-45,25l-28.9-2.4c-21.3-1.8-35.7-15.8-32.2-31.4l0,0
		c3.5-15.6,23.7-26.8,45-25l28.9,2.4C131.4,174.1,145.9,188.1,142.3,203.7L142.3,203.7z"/>
	<path class="st0" d="M119.7,212.1c-4.7,7.4-13.4,13.1-23.7,15.8c-5.7,1.5-11.9,2.1-18.1,1.6l-23-1.9l-4.4-0.4l-1.5-0.1
		c-21.3-1.8-35.8-15.8-32.2-31.4c0.8-3.8,2.7-7.4,5.4-10.5c-1.5,2.4-2.6,4.9-3.2,7.5c-3.5,15.4,10.6,29.4,31.6,31.3
		c0.2,0,0.4,0,0.6,0.1l28.9,2.4C96.1,227.9,111.6,221.8,119.7,212.1z"/>
	<path class="st1" d="M126.1,199.4c-0.9,3.8-2.7,7.4-5.4,10.5c-1.3,1.5-2.8,3-4.4,4.4c-3.8,3.2-8.5,5.7-13.8,7.5
		c-3,1-6.1,1.8-9.4,2.2c-3.9,0.6-8,0.7-12.1,0.4l-19.9-1.6l-9-0.7c-0.2,0-0.4,0-0.6-0.1c-0.8-0.1-1.5-0.2-2.3-0.3
		c-0.2,0-0.4,0-0.6-0.1c-0.6-0.1-1.1-0.2-1.7-0.3c-1-0.2-2-0.4-3-0.7c-0.5-0.1-1.1-0.3-1.6-0.4c-0.9-0.2-1.7-0.5-2.5-0.8
		c-0.6-0.2-1.2-0.4-1.7-0.7c-0.7-0.2-1.3-0.5-1.9-0.8c-0.6-0.3-1.2-0.5-1.7-0.8c-0.6-0.3-1.2-0.7-1.8-1c-0.6-0.4-1.2-0.7-1.7-1.1
		c-0.5-0.3-0.9-0.6-1.3-0.9c-0.2-0.1-0.3-0.2-0.4-0.3c-4.7-3.7-8-8.4-9.3-13.5c-0.2-0.7-0.3-1.4-0.4-2.1c-0.3-2.5-0.3-5,0.3-7.5
		l1.3-3.9c0.5-1.2,1.1-2.3,1.8-3.4c2.8-4.5,7-8.3,12.1-11.3c5-2.9,11-5,17.3-6c1-0.2,2-0.3,3-0.4c3.1-0.3,6.3-0.3,9.5-0.1l28.9,2.4
		h0.1l0,0c2.9,0.2,5.7,0.7,8.3,1.4C118.9,173.7,129.2,186,126.1,199.4z"/>
	<path class="st0" d="M114.5,264.6c-0.9,4.3-2.8,8.3-5.5,11.8c-1.4,1.7-2.9,3.4-4.6,4.9c-4,3.5-8.9,6.4-14.4,8.3
		c-3.1,1.1-6.4,1.9-9.8,2.4c-4.1,0.6-8.4,0.7-12.7,0.3l-21-2l-9.4-0.9c-0.2,0-0.4,0-0.7-0.1c-0.8-0.1-1.6-0.2-2.4-0.3
		c-0.2,0-0.4-0.1-0.6-0.1c-0.6-0.1-1.2-0.2-1.8-0.3c-1.1-0.2-2.1-0.5-3.2-0.8c-0.6-0.1-1.1-0.3-1.7-0.5c-0.9-0.3-1.8-0.6-2.7-0.9
		c-0.6-0.2-1.2-0.5-1.8-0.7c-0.7-0.3-1.3-0.6-2-0.9c-0.6-0.3-1.2-0.6-1.8-1c-0.6-0.4-1.3-0.7-1.9-1.2c-0.6-0.4-1.2-0.8-1.8-1.3
		c-0.5-0.3-1-0.7-1.4-1.1c-0.2-0.1-0.3-0.3-0.4-0.4c-5-4.2-8.5-9.5-9.9-15.3c-0.2-0.8-0.3-1.6-0.4-2.3c-0.4-2.8-0.3-5.6,0.3-8.5
		l1.3-4.4c0.5-1.3,1.1-2.6,1.8-3.8c2.9-5,7.2-9.3,12.6-12.6c5.3-3.2,11.5-5.5,18.2-6.5c1-0.2,2.1-0.3,3.1-0.4c3.3-0.3,6.7-0.3,10,0
		l30.4,3h0.1l0,0c3,0.3,5.9,0.9,8.7,1.7C106.6,235.6,117.5,249.5,114.5,264.6z"/>
	<path class="st2" d="M132.7,267.2c-3.6,17.6-24.6,30-47.1,27.8l-30.4-3c-22.5-2.2-37.7-18.2-34.2-35.7l0,0
		c3.6-17.5,24.6-30,47.1-27.8l30.4,3C120.9,233.7,136.2,249.7,132.7,267.2L132.7,267.2z"/>
	<path class="st0" d="M108.9,276.5c-4.9,8.3-13.9,14.6-24.7,17.6c-6,1.7-12.4,2.3-19.1,1.6l-24.2-2.4l-4.7-0.5l-1.5-0.1
		C12.2,290.5-3.1,274.5,0.5,257c0.9-4.3,2.8-8.3,5.5-11.8c-1.6,2.7-2.7,5.5-3.3,8.5c-3.5,17.4,11.4,33.2,33.5,35.6
		c0.2,0,0.5,0.1,0.7,0.1l30.4,3C84.3,294.1,100.5,287.4,108.9,276.5z"/>
	<path class="st1" d="M115.6,262.2c-0.9,4.3-2.8,8.3-5.5,11.8c-1.4,1.7-2.9,3.4-4.6,4.9c-4,3.5-8.9,6.4-14.4,8.3
		c-3.1,1.1-6.4,1.9-9.8,2.4c-4.1,0.6-8.4,0.7-12.7,0.3l-21-2l-9.4-0.9c-0.2,0-0.4-0.1-0.7-0.1c-0.8-0.1-1.6-0.2-2.4-0.3
		c-0.2,0-0.4,0-0.6-0.1c-0.6-0.1-1.2-0.2-1.8-0.3c-1.1-0.2-2.1-0.5-3.2-0.8c-0.6-0.1-1.1-0.3-1.7-0.5c-0.9-0.3-1.8-0.6-2.7-1
		c-0.6-0.2-1.2-0.5-1.8-0.8c-0.7-0.3-1.3-0.6-2-0.9c-0.6-0.3-1.2-0.6-1.8-1c-0.6-0.4-1.3-0.8-1.9-1.2c-0.6-0.4-1.2-0.8-1.8-1.2
		c-0.5-0.3-1-0.7-1.4-1.1c-0.2-0.1-0.3-0.2-0.5-0.4c-5-4.2-8.5-9.5-9.9-15.3c-0.2-0.8-0.3-1.5-0.4-2.3c-0.4-2.8-0.3-5.6,0.3-8.5
		l1.3-4.4c0.5-1.3,1.1-2.6,1.8-3.8c2.8-5,7.2-9.3,12.6-12.6c5.3-3.2,11.5-5.5,18.2-6.5c1-0.2,2.1-0.3,3.1-0.4c3.3-0.3,6.6-0.3,10,0
		l30.4,3h0.1l0,0c3.1,0.3,6,0.9,8.7,1.7C107.7,233.1,118.7,247.1,115.6,262.2z"/>
	<path class="st0" d="M118.1,327.6c-2.5,17.3-21.3,30.3-42,29L49,354.8l-0.9-0.1c-20.7-1.3-35.5-16.5-33.1-33.8
		c1.3-9.3,7.4-17.4,15.9-22.7c1.6-1,3.3-1.9,5.1-2.7c1.5-0.7,3.1-1.3,4.7-1.7c5.1-1.6,10.6-2.3,16.3-1.9l27,2.7l1.1,0.1
		C105.8,296,120.5,310.2,118.1,327.6z"/>
	<path class="st0" d="M114,338.7c-7.2,11-22.2,17.6-37.9,16.6l-28-1.8c-20.7-1.4-35.3-16.6-32.9-33.9c0.4-3,1.9-5.9,3.2-8.6
		c-2.4,3.6-4.7,7.8-5.3,12c-2.5,17.3,12.3,32.5,33.1,33.9l28.1,1.8C91.4,359.7,107.7,351.6,114,338.7z"/>
	<path class="st1" d="M119.2,325.1c-2.5,17.3-21.3,30.3-42,29l-27.1-1.8l-0.9-0.1c-20.7-1.3-35.5-16.5-33.1-33.8
		c1.3-9.3,7.4-17.4,15.9-22.7c1.6-1,3.3-1.9,5.1-2.7c1.5-0.7,3.1-1.3,4.7-1.7c5.1-1.6,10.6-2.3,16.3-1.9l27,2.7l1.1,0.1
		C106.9,293.6,121.7,307.8,119.2,325.1z"/>
	<path class="st0" d="M112.7,389.2c-0.5,3.7-1.9,7.2-3.9,10.3v0.1c-0.3,0.4-0.6,0.9-0.9,1.3c0,0,0,0,0,0.1c-0.3,0.4-0.6,0.9-1,1.3
		c-0.3,0.4-0.6,0.7-0.9,1c-0.1,0.1-0.2,0.2-0.4,0.4c-0.2,0.2-0.4,0.4-0.7,0.7c-0.2,0.2-0.4,0.4-0.7,0.6c-0.5,0.4-0.9,0.8-1.4,1.3
		c-0.3,0.3-0.7,0.5-1,0.8c-6.3,4.8-14.7,7.4-23.5,6.6l-19.7-1.9l-3.1-0.3c-16.8-1.6-28.8-15-26.6-30c0.1-0.5,0.2-1.1,0.3-1.7
		c0-0.2,0.1-0.5,0.2-0.7c0.1-0.5,0.3-0.9,0.4-1.4c0.2-0.6,0.4-1.2,0.6-1.8c0.2-0.5,0.4-1,0.6-1.5c1.2-2.6,2.9-5.1,4.8-7.2
		c1.9-2,4.1-3.8,6.5-5.3c4.2-2.6,9-4.2,14.2-4.8c2.2-0.2,4.4-0.3,6.7,0l22.8,2.1c2,0.2,4,0.6,5.9,1.1
		C105.6,364,114.6,376,112.7,389.2z"/>
	<path class="st1" d="M113.8,386.7c-0.6,3.7-1.9,7.2-3.9,10.3v0.1c-0.3,0.4-0.6,0.8-0.9,1.2c0,0,0,0,0,0.1c-0.3,0.4-0.7,0.8-1,1.3
		c-0.3,0.4-0.6,0.7-0.9,1c-0.1,0.1-0.2,0.2-0.3,0.4c-0.2,0.2-0.4,0.4-0.7,0.7c-0.2,0.2-0.5,0.4-0.7,0.6c-0.4,0.4-0.9,0.8-1.4,1.2
		c-0.3,0.3-0.7,0.5-1,0.8c-6.3,4.8-14.7,7.4-23.5,6.6l-19.7-1.8l-3.1-0.3c-16.8-1.6-28.8-15-26.6-30c0.1-0.5,0.2-1.1,0.3-1.7
		c0-0.2,0.1-0.5,0.2-0.7c0.1-0.5,0.2-0.9,0.4-1.4c0.2-0.6,0.4-1.2,0.6-1.8c0.2-0.5,0.4-1,0.6-1.5c1.2-2.6,2.9-5.1,4.9-7.2
		c1.9-2,4.1-3.8,6.5-5.3c4.2-2.6,9-4.2,14.2-4.8c2.2-0.2,4.5-0.3,6.7,0l22.8,2.1c2,0.2,4,0.5,5.9,1.1
		C106.7,361.5,115.7,373.5,113.8,386.7z"/>
	<path class="st0" d="M108.8,399.5c-6,9.3-17.8,15.2-30.5,14l-22.8-2.1c-16.8-1.6-28.8-15-26.6-30c0.4-2.5,1.1-5,2.2-7.2
		c-2,3.1-3.4,6.6-3.9,10.3c-2.1,15,9.8,28.4,26.6,30l22.8,2.1C90.6,417.9,103.5,410.6,108.8,399.5z"/>
	<path class="st1" d="M178.7,197.8c-6.6-27.1-7.6-58.7-18.4-85.7c-8.7-21.9-8.4-47.8-5.2-71c2.2-16.1,18-48.2,38.1-39.7
		c0.9,0.4,1.9,0.9,2.8,1.4c0,0,0.1,0,0.1,0.1c0.1,0.1,0.1,0.2,0.2,0.3c0.1,0.1,0.2,0.3,0.3,0.4s0.2,0.2,0.2,0.3V4
		c0.7,1.1,1.4,2.3,1.9,3.6l0,0c6.5,14.1,4.8,34.7,8.5,48.9c4.1,17,15.8,31.3,21.8,47.5c6.5,18.9,15.5,35.2,23.9,54.1
		c3.7,8.2,27.7,49.5,30.9,57.8L178.7,197.8z"/>
	<path class="st8" d="M181,11.2c0.3-0.5,0.6-1,0.9-1.4c0.3-0.5,0.7-0.9,1.1-1.3c0.9-1,1.7-1.9,2.6-2.7c0.9-0.8,1.8-1.5,2.7-2
		c2.9-1.8,5.6-2.6,7.4-3c0.2,0.3,0.3,0.6,0.5,0.8c0.6,1.1,1.2,2.3,1.6,3.4c0.1,0.4,0.3,0.7,0.4,1.1c0.6,1.5,1.1,3.1,1.5,4.7
		c0.9,3.5,1.6,7.1,2.3,10.8c0.9,4.6,1.6,9.4,2,14.5c0.1,1.1,0.2,2.2,0.2,3.4c0.1,1,0.1,2,0.1,3.1c0.1,1.9,0.5,3.2,0.5,5.1
		c0,0.4,0.1,1,0.1,1.5c-1.7,1.5-4.9,3.7-8.1,3.9c-1,0.1-2,0-3.1-0.4c-0.3-0.1-0.7-0.2-1-0.3c-0.1,0-0.3-0.1-0.4-0.2
		c-0.1,0-0.3-0.1-0.4-0.2l-0.1-0.1c-0.1-0.1-0.3-0.2-0.5-0.3c-0.9-0.6-1.9-1.3-2.6-2c-0.9-0.9-1.5-1.8-1.9-2.2
		c-0.4-0.7-0.5-1-0.6-1.3c-3.3-6.6-3.9-11.2-4.7-16.3c-0.6-3.7-1.1-10.3-0.8-15.6c0-0.4,0.1-0.8,0.1-1.2c0.1-1.2,0-0.5,0.2-1
		C180.9,11.7,180.9,11.5,181,11.2z"/>
</g>
</svg>
