<?xml version="1.0" encoding="UTF-8"?>
<svg id="Layer_1" data-name="Layer 1" xmlns="http://www.w3.org/2000/svg" xmlns:xlink="http://www.w3.org/1999/xlink" viewBox="0 0 1764.99 2185.49">
  <defs>
    <style>
      .cls-1 {
        fill: url(#linear-gradient);
      }

      .cls-2 {
        clip-path: url(#clippath);
      }

      .cls-3 {
        clip-rule: evenodd;
        fill: none;
      }

      .cls-4 {
        clip-path: url(#clippath-1);
      }

      .cls-5 {
        clip-path: url(#clippath-4);
      }

      .cls-6 {
        clip-path: url(#clippath-3);
      }

      .cls-7 {
        clip-path: url(#clippath-2);
      }

      .cls-8 {
        fill: url(#linear-gradient-2);
      }

      .cls-9 {
        fill: #f7f7f7;
      }

      .cls-9, .cls-10, .cls-11, .cls-12, .cls-13, .cls-14, .cls-15, .cls-16, .cls-17, .cls-18, .cls-19, .cls-20, .cls-21, .cls-22, .cls-23, .cls-24, .cls-25, .cls-26, .cls-27, .cls-28, .cls-29, .cls-30, .cls-31, .cls-32, .cls-33, .cls-34, .cls-35, .cls-36, .cls-37, .cls-38, .cls-39, .cls-40, .cls-41, .cls-42, .cls-43, .cls-44, .cls-45, .cls-46, .cls-47, .cls-48, .cls-49, .cls-50, .cls-51, .cls-52, .cls-53, .cls-54, .cls-55, .cls-56, .cls-57, .cls-58, .cls-59, .cls-60, .cls-61, .cls-62, .cls-63, .cls-64, .cls-65, .cls-66, .cls-67, .cls-68, .cls-69, .cls-70, .cls-71, .cls-72, .cls-73, .cls-74, .cls-75, .cls-76, .cls-77, .cls-78, .cls-79, .cls-80, .cls-81, .cls-82, .cls-83, .cls-84, .cls-85, .cls-86, .cls-87, .cls-88, .cls-89, .cls-90, .cls-91, .cls-92, .cls-93, .cls-94, .cls-95, .cls-96, .cls-97, .cls-98, .cls-99, .cls-100, .cls-101, .cls-102, .cls-103, .cls-104, .cls-105, .cls-106, .cls-107, .cls-108, .cls-109, .cls-110, .cls-111, .cls-112, .cls-113, .cls-114, .cls-115, .cls-116, .cls-117, .cls-118, .cls-119, .cls-120, .cls-121, .cls-122, .cls-123, .cls-124, .cls-125, .cls-126, .cls-127, .cls-128, .cls-129, .cls-130, .cls-131, .cls-132, .cls-133, .cls-134, .cls-135, .cls-136, .cls-137, .cls-138, .cls-139, .cls-140, .cls-141, .cls-142, .cls-143, .cls-144, .cls-145, .cls-146, .cls-147, .cls-148, .cls-149, .cls-150, .cls-151, .cls-152, .cls-153, .cls-154, .cls-155, .cls-156, .cls-157, .cls-158, .cls-159, .cls-160, .cls-161, .cls-162, .cls-163, .cls-164, .cls-165, .cls-166, .cls-167, .cls-168, .cls-169, .cls-170, .cls-171, .cls-172, .cls-173, .cls-174, .cls-175, .cls-176, .cls-177, .cls-178, .cls-179, .cls-180, .cls-181, .cls-182, .cls-183, .cls-184, .cls-185, .cls-186, .cls-187, .cls-188, .cls-189, .cls-190, .cls-191, .cls-192, .cls-193, .cls-194, .cls-195, .cls-196, .cls-197, .cls-198, .cls-199, .cls-200, .cls-201, .cls-202, .cls-203, .cls-204, .cls-205, .cls-206, .cls-207, .cls-208, .cls-209, .cls-210, .cls-211, .cls-212, .cls-213, .cls-214, .cls-215, .cls-216, .cls-217, .cls-218, .cls-219, .cls-220, .cls-221, .cls-222, .cls-223, .cls-224, .cls-225, .cls-226, .cls-227, .cls-228, .cls-229, .cls-230, .cls-231, .cls-232, .cls-233, .cls-234, .cls-235, .cls-236, .cls-237, .cls-238, .cls-239, .cls-240, .cls-241, .cls-242, .cls-243, .cls-244, .cls-245, .cls-246, .cls-247, .cls-248, .cls-249, .cls-250, .cls-251, .cls-252, .cls-253, .cls-254, .cls-255, .cls-256, .cls-257, .cls-258, .cls-259, .cls-260, .cls-261, .cls-262, .cls-263, .cls-264, .cls-265, .cls-266, .cls-267, .cls-268, .cls-269, .cls-270, .cls-271, .cls-272, .cls-273, .cls-274, .cls-275, .cls-276, .cls-277, .cls-278, .cls-279, .cls-280, .cls-281, .cls-282, .cls-283, .cls-284, .cls-285, .cls-286, .cls-287, .cls-288, .cls-289, .cls-290, .cls-291 {
        fill-rule: evenodd;
      }

      .cls-10 {
        fill: #f8a40b;
      }

      .cls-11 {
        fill: #f8a50b;
      }

      .cls-12 {
        fill: #f9f9f9;
      }

      .cls-13 {
        fill: #faa70a;
      }

      .cls-14 {
        fill: #faa80a;
      }

      .cls-15 {
        fill: #f9a50b;
      }

      .cls-16 {
        fill: #f9a60a;
      }

      .cls-17 {
        fill: #f8f8f8;
      }

      .cls-18 {
        fill: #f9a60b;
      }

      .cls-19 {
        fill: #f39d0f;
      }

      .cls-20 {
        fill: #f2f2f2;
      }

      .cls-21 {
        fill: #f39e0e;
      }

      .cls-22 {
        fill: #f39d0e;
      }

      .cls-23 {
        fill: #f7a20c;
      }

      .cls-24 {
        fill: #f6f6f6;
      }

      .cls-25 {
        fill: #f7a30c;
      }

      .cls-26 {
        fill: #f7a40c;
      }

      .cls-27 {
        fill: #f49f0e;
      }

      .cls-28 {
        fill: #f3f3f3;
      }

      .cls-29 {
        fill: #f49e0e;
      }

      .cls-30 {
        fill: #df811b;
      }

      .cls-31 {
        fill: #dc7d1c;
      }

      .cls-32 {
        fill: #dc7d1d;
      }

      .cls-33 {
        fill: #dc7e1c;
      }

      .cls-34 {
        fill: #df821a;
      }

      .cls-35 {
        fill: #e1e1e1;
      }

      .cls-36 {
        fill: #e28619;
      }

      .cls-37 {
        fill: #e28618;
      }

      .cls-38 {
        fill: #e28519;
      }

      .cls-39 {
        fill: #de811b;
      }

      .cls-40 {
        fill: #dfdfdf;
      }

      .cls-41 {
        fill: #d77620;
      }

      .cls-42 {
        fill: #d7761f;
      }

      .cls-43 {
        fill: #e18519;
      }

      .cls-44 {
        fill: #e1841a;
      }

      .cls-45 {
        fill: #e18419;
      }

      .cls-46 {
        fill: #d7771f;
      }

      .cls-47 {
        fill: #d67620;
      }

      .cls-48 {
        fill: #d67520;
      }

      .cls-49 {
        fill: #dd7e1c;
      }

      .cls-50 {
        fill: #dd7f1b;
      }

      .cls-51 {
        fill: #dcdcdc;
      }

      .cls-52 {
        fill: #dd7f1c;
      }

      .cls-53 {
        fill: #dbdbdb;
      }

      .cls-54 {
        fill: #db7c1d;
      }

      .cls-55 {
        fill: #db7d1d;
      }

      .cls-56 {
        fill: #da7a1e;
      }

      .cls-57 {
        fill: #dadada;
      }

      .cls-58 {
        fill: #e0821a;
      }

      .cls-59 {
        fill: #db7b1d;
      }

      .cls-60 {
        fill: #e0841a;
      }

      .cls-61 {
        fill: #d9d9d9;
      }

      .cls-62 {
        fill: #da7b1d;
      }

      .cls-63 {
        fill: #da7b1e;
      }

      .cls-64 {
        fill: #e0831a;
      }

      .cls-65 {
        fill: #e0e0e0;
      }

      .cls-66 {
        fill: #dedede;
      }

      .cls-67 {
        fill: #e38818;
      }

      .cls-68 {
        fill: #e38618;
      }

      .cls-69 {
        fill: #e38718;
      }

      .cls-70 {
        fill: #de801b;
      }

      .cls-71 {
        fill: #ddd;
      }

      .cls-72 {
        fill: #d8771f;
      }

      .cls-73 {
        fill: #d8781f;
      }

      .cls-74 {
        fill: #d97a1e;
      }

      .cls-75 {
        fill: #d9791e;
      }

      .cls-76 {
        fill: #fdfdfd;
      }

      .cls-77 {
        fill: #fead07;
      }

      .cls-78 {
        fill: #feac08;
      }

      .cls-79 {
        fill: #fead08;
      }

      .cls-80 {
        fill: #f29c0f;
      }

      .cls-81 {
        fill: #f29b0f;
      }

      .cls-82 {
        fill: #f0f0f0;
      }

      .cls-83 {
        fill: #eaeaea;
      }

      .cls-84 {
        fill: #ebebeb;
      }

      .cls-85 {
        fill: #ed9512;
      }

      .cls-86 {
        fill: #ed9412;
      }

      .cls-87 {
        fill: #eee;
      }

      .cls-88 {
        fill: #f19b0f;
      }

      .cls-89 {
        fill: #e4e4e4;
      }

      .cls-90 {
        fill: #efefef;
      }

      .cls-91 {
        fill: #f19a10;
      }

      .cls-92 {
        fill: #f1f1f1;
      }

      .cls-93 {
        fill: #f09a10;
      }

      .cls-94 {
        fill: #f09910;
      }

      .cls-95 {
        fill: #eb9313;
      }

      .cls-96 {
        fill: #ffea11;
      }

      .cls-97 {
        fill: #fff813;
      }

      .cls-98 {
        fill: #ffe910;
      }

      .cls-99 {
        fill: #ffe20f;
      }

      .cls-100 {
        fill: #fe1;
      }

      .cls-101 {
        fill: #ffef11;
      }

      .cls-102 {
        fill: #ffd90e;
      }

      .cls-103 {
        fill: #fff713;
      }

      .cls-104 {
        fill: #fff613;
      }

      .cls-105 {
        fill: #fff512;
      }

      .cls-106 {
        fill: #ffeb11;
      }

      .cls-107 {
        fill: #ffda0e;
      }

      .cls-108 {
        fill: #ffec11;
      }

      .cls-109 {
        fill: #ffe810;
      }

      .cls-110 {
        fill: #ffed11;
      }

      .cls-111 {
        fill: #ffe710;
      }

      .cls-112 {
        fill: #ffdb0e;
      }

      .cls-113 {
        fill: #fff412;
      }

      .cls-114 {
        fill: #eb9213;
      }

      .cls-115 {
        fill: #e8e8e8;
      }

      .cls-116 {
        fill: #ec9313;
      }

      .cls-117 {
        fill: #ec9412;
      }

      .cls-118 {
        fill: #ec9413;
      }

      .cls-119 {
        fill: #e3e3e3;
      }

      .cls-120 {
        fill: #ef9810;
      }

      .cls-121 {
        fill: #ef9811;
      }

      .cls-122 {
        fill: #e58a17;
      }

      .cls-123 {
        fill: #e58917;
      }

      .cls-124 {
        fill: #ef9711;
      }

      .cls-125 {
        fill: #e48917;
      }

      .cls-126 {
        fill: #fffa25;
      }

      .cls-127 {
        fill: #fffb3e;
      }

      .cls-128 {
        fill: #fffa2d;
      }

      .cls-129 {
        fill: #fffa2a;
      }

      .cls-130 {
        fill: #fffa2c;
      }

      .cls-131 {
        fill: #fffa20;
      }

      .cls-132 {
        fill: #fffa22;
      }

      .cls-133 {
        fill: #fffa2f;
      }

      .cls-134 {
        fill: #fffa29;
      }

      .cls-135 {
        fill: #fffa24;
      }

      .cls-136 {
        fill: #fffa2e;
      }

      .cls-137 {
        fill: #fffa2b;
      }

      .cls-138 {
        fill: #fffa28;
      }

      .cls-139 {
        fill: #fffb3c;
      }

      .cls-140 {
        fill: #fffb39;
      }

      .cls-141 {
        fill: #fffa30;
      }

      .cls-142 {
        fill: #fffa27;
      }

      .cls-143 {
        fill: #fffa21;
      }

      .cls-144 {
        fill: #fffa23;
      }

      .cls-145 {
        fill: #fffa26;
      }

      .cls-146 {
        fill: #fffb3d;
      }

      .cls-147 {
        fill: #fffb40;
      }

      .cls-148 {
        fill: #fffb3a;
      }

      .cls-149 {
        fill: #fffb3f;
      }

      .cls-150 {
        fill: #fffb3b;
      }

      .cls-151 {
        fill: #fffb41;
      }

      .cls-152 {
        fill: #ffaf07;
      }

      .cls-153 {
        fill: #ffb007;
      }

      .cls-154 {
        fill: #e48818;
      }

      .cls-155 {
        fill: #e48817;
      }

      .cls-156 {
        fill: #ffe610;
      }

      .cls-157 {
        fill: #fff212;
      }

      .cls-158 {
        fill: #ffe410;
      }

      .cls-159 {
        fill: #fff312;
      }

      .cls-160 {
        fill: #ffe510;
      }

      .cls-161 {
        fill: #fff112;
      }

      .cls-162 {
        fill: #ffe312;
      }

      .cls-163 {
        fill: #ffe30f;
      }

      .cls-164 {
        fill: #ffdd0e;
      }

      .cls-165 {
        fill: #ffde0f;
      }

      .cls-166 {
        fill: #fff012;
      }

      .cls-167 {
        fill: #ffe10f;
      }

      .cls-168 {
        fill: #ffdc0e;
      }

      .cls-169 {
        fill: #fff;
      }

      .cls-170 {
        fill: #ededed;
      }

      .cls-171 {
        fill: #fff913;
      }

      .cls-172 {
        fill: #ffa405;
      }

      .cls-173 {
        fill: #fff918;
      }

      .cls-174 {
        fill: #fffa31;
      }

      .cls-175 {
        fill: #fffa34;
      }

      .cls-176 {
        fill: #fffa32;
      }

      .cls-177 {
        fill: #fff915;
      }

      .cls-178 {
        fill: #fff914;
      }

      .cls-179 {
        fill: #fff917;
      }

      .cls-180 {
        fill: #fff916;
      }

      .cls-181 {
        fill: #fffa37;
      }

      .cls-182 {
        fill: #fffa38;
      }

      .cls-183 {
        fill: #fffa35;
      }

      .cls-184 {
        fill: #fffa36;
      }

      .cls-185 {
        fill: #fffa33;
      }

      .cls-186 {
        fill: #fff919;
      }

      .cls-187 {
        fill: #fff91e;
      }

      .cls-188 {
        fill: #fff91b;
      }

      .cls-189 {
        fill: #fff91a;
      }

      .cls-190 {
        fill: #fff91d;
      }

      .cls-191 {
        fill: #fff91c;
      }

      .cls-192 {
        fill: #fff91f;
      }

      .cls-193 {
        fill: #ffa305;
      }

      .cls-194 {
        fill: #ea9014;
      }

      .cls-195 {
        fill: #ea9114;
      }

      .cls-196 {
        fill: #f5f5f5;
      }

      .cls-197 {
        fill: #f4f4f4;
      }

      .cls-198 {
        fill: #fcfcfc;
      }

      .cls-199 {
        fill: #e7e7e7;
      }

      .cls-200 {
        fill: #f6a10d;
      }

      .cls-201 {
        fill: #f6a20c;
      }

      .cls-202 {
        fill: #e99014;
      }

      .cls-203 {
        fill: #e98f14;
      }

      .cls-204 {
        fill: #e98f15;
      }

      .cls-205 {
        fill: #e88f15;
      }

      .cls-206 {
        fill: #e88e15;
      }

      .cls-207 {
        fill: #e9e9e9;
      }

      .cls-208 {
        fill: #e88d15;
      }

      .cls-209 {
        fill: #f5a10d;
      }

      .cls-210 {
        fill: #f59f0d;
      }

      .cls-211 {
        fill: #f5a00d;
      }

      .cls-212 {
        fill: #ffe00f;
      }

      .cls-213 {
        fill: #ffdf0f;
      }

      .cls-214 {
        fill: #e6e6e6;
      }

      .cls-215 {
        fill: #fdab08;
      }

      .cls-216 {
        fill: #fdac08;
      }

      .cls-217 {
        fill: #ee9711;
      }

      .cls-218 {
        fill: #e78c16;
      }

      .cls-219 {
        fill: #e78d15;
      }

      .cls-220 {
        fill: #e78d16;
      }

      .cls-221 {
        fill: #e5e5e5;
      }

      .cls-222 {
        fill: #fbfbfb;
      }

      .cls-223 {
        fill: #fcaa09;
      }

      .cls-224 {
        fill: #fba809;
      }

      .cls-225 {
        fill: #fba80a;
      }

      .cls-226 {
        fill: #fba909;
      }

      .cls-227 {
        fill: #e2e2e2;
      }

      .cls-228 {
        fill: #e68c16;
      }

      .cls-229 {
        fill: #e68b16;
      }

      .cls-230 {
        fill: #e68b17;
      }

      .cls-231 {
        fill: #ffab06;
      }

      .cls-232 {
        fill: #ffb608;
      }

      .cls-233 {
        fill: #ffc20a;
      }

      .cls-234 {
        fill: #fca909;
      }

      .cls-235 {
        fill: #ffb909;
      }

      .cls-236 {
        fill: #ffd20d;
      }

      .cls-237 {
        fill: #ffc80b;
      }

      .cls-238 {
        fill: #ffc40a;
      }

      .cls-239 {
        fill: #ffa706;
      }

      .cls-240 {
        fill: #ffc10a;
      }

      .cls-241 {
        fill: #ffae07;
      }

      .cls-242 {
        fill: #ffad07;
      }

      .cls-243 {
        fill: #ffa806;
      }

      .cls-244 {
        fill: #ffb508;
      }

      .cls-245 {
        fill: #ffcf0c;
      }

      .cls-246 {
        fill: #ffac07;
      }

      .cls-247 {
        fill: #ffac06;
      }

      .cls-248 {
        fill: #fafafa;
      }

      .cls-249 {
        fill: #ffaa06;
      }

      .cls-250 {
        fill: #ffa906;
      }

      .cls-251 {
        fill: #ffd40d;
      }

      .cls-252 {
        fill: #ffd10c;
      }

      .cls-253 {
        fill: #ffd10d;
      }

      .cls-254 {
        fill: #ffb708;
      }

      .cls-255 {
        fill: #ffbe09;
      }

      .cls-256 {
        fill: #ffbd09;
      }

      .cls-257 {
        fill: #ffc30a;
      }

      .cls-258 {
        fill: #ffc00a;
      }

      .cls-259 {
        fill: #ffb808;
      }

      .cls-260 {
        fill: #ffbf09;
      }

      .cls-261 {
        fill: #ffbf0a;
      }

      .cls-262 {
        fill: #ffc50b;
      }

      .cls-263 {
        fill: #ffa606;
      }

      .cls-264 {
        fill: #ffa505;
      }

      .cls-265 {
        fill: #ffd30d;
      }

      .cls-266 {
        fill: #ffbc09;
      }

      .cls-267 {
        fill: #ffa605;
      }

      .cls-268 {
        fill: #ffc60b;
      }

      .cls-269 {
        fill: #ffb107;
      }

      .cls-270 {
        fill: #ffb207;
      }

      .cls-271 {
        fill: #ffb408;
      }

      .cls-272 {
        fill: #ffb308;
      }

      .cls-273 {
        fill: #ececec;
      }

      .cls-274 {
        fill: #ffd70e;
      }

      .cls-275 {
        fill: #ffca0b;
      }

      .cls-276 {
        fill: #ffd70d;
      }

      .cls-277 {
        fill: #ffcb0c;
      }

      .cls-278 {
        fill: #ee9611;
      }

      .cls-279 {
        fill: #ee9612;
      }

      .cls-280 {
        fill: #ffba09;
      }

      .cls-281 {
        fill: #ffbb09;
      }

      .cls-282 {
        fill: #ffce0c;
      }

      .cls-283 {
        fill: #ffc90b;
      }

      .cls-284 {
        fill: #ffcc0c;
      }

      .cls-285 {
        fill: #ffd60d;
      }

      .cls-286 {
        fill: #ffcd0c;
      }

      .cls-287 {
        fill: #ffd00c;
      }

      .cls-288 {
        fill: #fefefe;
      }

      .cls-289 {
        fill: #ffc70b;
      }

      .cls-290 {
        fill: #ffd50d;
      }

      .cls-291 {
        fill: #ffd80e;
      }
    </style>
    <clipPath id="clippath">
      <path class="cls-3" d="M882.49,8.73C395.11,8.73,0,403.83,0,891.22s395.11,882.49,882.49,882.49c487.39,0,882.49-395.11,882.49-882.49S1369.88,8.73,882.49,8.73"/>
    </clipPath>
    <clipPath id="clippath-1">
      <path class="cls-3" d="M1164.33,49.78c-364.32-127.52-755.83-1.97-982.96,284.26-42.61,61.94-77.83,130.45-103.86,204.82-157.68,450.5,79.7,943.53,530.2,1101.21,450.5,157.68,943.53-79.7,1101.21-530.2,26.03-74.37,41.23-149.89,46.54-224.88,.95-365.4-226.81-707.7-591.13-835.22"/>
    </clipPath>
    <linearGradient id="linear-gradient" x1="333.1" y1="1484.7" x2="1420.97" y2="340.16" gradientTransform="translate(1764.99) rotate(-180) scale(1 -1)" gradientUnits="userSpaceOnUse">
      <stop offset="0" stop-color="#ffa305"/>
      <stop offset=".54" stop-color="#ffff17"/>
      <stop offset="1" stop-color="#ffd900"/>
    </linearGradient>
    <clipPath id="clippath-2">
      <path class="cls-3" d="M1532.46,1017.67c-77.94,296.08-334.29,497.68-623.28,519.88-59.63,.51-120.3-6.77-180.74-22.68-366.12-96.38-584.79-471.31-488.4-837.43C336.42,311.32,711.35,92.66,1077.47,189.04c60.44,15.91,116.83,39.45,168.48,69.25,240.6,161.61,364.46,463.3,286.51,759.38"/>
    </clipPath>
    <linearGradient id="linear-gradient-2" x1="977.06" y1="152.48" x2="806.22" y2="1423.48" gradientTransform="translate(1764.99) rotate(-180) scale(1 -1)" gradientUnits="userSpaceOnUse">
      <stop offset="0" stop-color="#ffa305"/>
      <stop offset="1" stop-color="#fffc5e"/>
    </linearGradient>
    <clipPath id="clippath-3">
      <path class="cls-3" d="M845.03,1185.06c.39,2.55,.73,5.48,.99,8.92,.12,1.56-.2,4.97-.57,8.91-.54,5.73-1.15,12.26-1.15,17.92,0,21.86,5.97,42.04,33.27,42.04h244.64c24.94,0,31.89-20.54,31.89-53.5h.07c0-12.45-1.02-27.96-2.14-45.18-3.68-56.18-8.64-131.88,19.85-185.29,11.78-22.09,22.08-43.31,30.96-63.66,9.32-21.35,17.13-41.69,23.51-61.04,6.62-20.07,11.88-39.49,15.87-58.27,4.11-19.38,6.82-37.89,8.23-55.53,1.48-18.53,1.54-36.23,.31-53.11-1.28-17.53-3.95-34.12-7.88-49.78-4.07-16.21-9.51-31.47-16.14-45.77-6.9-14.86-15.05-28.64-24.29-41.35-27.67-38.06-64.64-66.26-106.27-85.93-46.12-21.79-98-33.08-149.18-35.7-59.38-3.03-125.14,5.62-184.56,27.38-53.11,19.45-101.41,49.48-136.11,91.14-8.59,10.31-16.13,21.05-22.49,32.16-6.34,11.09-11.66,22.71-15.84,34.84-4.03,11.7-7.02,24.02-8.85,36.94-1.75,12.3-2.38,25.09-1.82,38.33,.81,18.9,5.97,40.15,10.99,60.88,5.06,20.87,9.98,41.17,9.2,54.38-.17,2.85-.57,5.96-1.23,9.42-.73,3.82-1.7,7.75-2.95,11.85-3.39,11.16-6.14,19.06-9.69,26.06-3.35,6.6-7.74,12.83-14.59,21.02-3.01,3.6-7.12,8.1-11.52,12.93-10.71,11.75-23.08,25.32-29.59,36.65-1.27,2.21-2.32,4.27-3.13,6.14-.96,2.23-1.73,4.49-2.29,6.77-.76,3.06-1.15,6.17-1.15,9.29,0,3.53,.53,6.92,1.61,10.15,1.1,3.28,2.74,6.36,4.96,9.22,2.04,2.63,4.44,5,7.23,7.08,3.43,2.57,6.38,4.91,8.89,7.04,2.7,2.29,5.1,4.48,7.23,6.57,2.29,2.25,4.31,4.37,6.09,6.4,1.9,2.17,3.59,4.25,5.11,6.27,8.03,10.67,13.99,21.96,20.14,33.62,3.14,5.95,6.33,11.99,9.84,18.12-.85,4.21-1.28,8.79-1.44,13.28-.17,4.74-.06,9.28,.11,13.02,.81,17.36,5.68,23.17,11.68,30.31,1.24,1.48,2.58,3.08,3.76,5.02,3.18,19.34,6.66,38.07,20.65,55.85,24.04,30.54,63.83,38.19,104.91,35.73,37.73-2.26,76.71-13.15,103.58-21.69,2.89-.92,5.56-1.8,8.03-2.66,.55,2.64,.98,4.94,1.27,6.8"/>
    </clipPath>
    <clipPath id="clippath-4">
      <path class="cls-3" d="M863.52,1160.38c-.53-7.02-1.62-13.61-3.11-20.47,13.55-11.62,53.97-75.12,22.23-38.92-20.96,17.91-26.16,22.67-52.2,30.95-51.76,16.47-149.97,41.92-189.41-8.2-11.92-15.15-14.66-32.67-17.63-50.74-6.49-13.35-13.92-12.48-14.76-30.36-.32-6.84-.42-16.42,1.32-23.44,.73-2.94,1.21-4.91-.16-7.21-11.92-20.06-19.27-38.48-33.31-57.13-3.67-4.87-7.85-9.71-12.91-14.67-5.01-4.91-10.86-9.92-17.9-15.18-3.15-2.36-5.13-4.96-6.08-7.79-.97-2.88-.93-6.13-.05-9.7,.66-2.66,1.88-5.46,3.56-8.39,7.89-13.73,28.96-34.58,39.4-47.03,15.41-18.4,20.15-28.86,27.58-53.25,3-9.86,4.5-18.05,4.93-25.31,1.77-29.87-18.64-80.69-20.19-116.97-1.05-24.63,2.45-47.63,9.78-68.89,7.74-22.45,19.76-43.01,35.17-61.51,69.43-83.35,198.75-117.7,306.33-112.2,92.61,4.74,187.25,38.95,242.14,114.42,16.95,23.32,29.88,50.29,37.62,81.09,7.27,28.96,9.96,61.34,7.09,97.26-2.67,33.46-10.17,69.99-23.27,109.68-12.45,37.71-29.97,78.33-53.24,121.95-55.48,104.01,5.36,274.63-34.23,274.63h-244.64c-23.94,0-13.14-40.51-14.06-52.61"/>
    </clipPath>
  </defs>
  <g>
    <path class="cls-169" d="M888.82,2018.68c-315.87,0-571.94,37.34-571.94,83.41s256.07,83.41,571.94,83.41c315.87,0,571.94-37.34,571.94-83.41s-256.07-83.41-571.94-83.41"/>
    <path class="cls-288" d="M888.82,2018.4c-310.82,0-562.78,36.7-562.78,81.96s251.97,81.96,562.78,81.96c310.82,0,562.79-36.7,562.79-81.96s-251.97-81.96-562.79-81.96"/>
    <path class="cls-76" d="M888.82,2018.13c-305.76,0-553.63,36.05-553.63,80.52,0,44.47,247.87,80.52,553.63,80.52,305.76,0,553.63-36.05,553.63-80.52,0-44.47-247.87-80.52-553.63-80.52"/>
    <path class="cls-198" d="M888.82,2017.85c-300.71,0-544.48,35.4-544.48,79.07s243.77,79.07,544.48,79.07c300.71,0,544.48-35.4,544.48-79.07s-243.77-79.07-544.48-79.07"/>
    <path class="cls-222" d="M888.82,2017.57c-295.65,0-535.33,34.76-535.33,77.63,0,42.87,239.68,77.63,535.33,77.63,295.65,0,535.33-34.76,535.33-77.63,0-42.87-239.68-77.63-535.33-77.63"/>
    <path class="cls-248" d="M888.82,2017.3c-290.6,0-526.18,34.11-526.18,76.18,0,42.07,235.58,76.18,526.18,76.18,290.6,0,526.18-34.11,526.18-76.18,0-42.07-235.58-76.18-526.18-76.18"/>
    <path class="cls-12" d="M888.82,2017.02c-285.54,0-517.02,33.46-517.02,74.74,0,41.28,231.48,74.74,517.02,74.74,285.54,0,517.02-33.46,517.02-74.74,0-41.28-231.48-74.74-517.02-74.74"/>
    <path class="cls-17" d="M888.82,2016.74c-280.49,0-507.87,32.82-507.87,73.29s227.38,73.29,507.87,73.29c280.49,0,507.87-32.82,507.87-73.29s-227.38-73.29-507.87-73.29"/>
    <path class="cls-9" d="M888.82,2016.47c-275.43,0-498.72,32.17-498.72,71.85,0,39.68,223.28,71.85,498.72,71.85,275.44,0,498.72-32.17,498.72-71.85,0-39.68-223.28-71.85-498.72-71.85"/>
    <path class="cls-24" d="M888.82,2016.19c-270.38,0-489.57,31.52-489.57,70.4s219.19,70.4,489.57,70.4c270.38,0,489.57-31.52,489.57-70.4s-219.19-70.4-489.57-70.4"/>
    <path class="cls-196" d="M888.82,2015.91c-265.32,0-480.41,30.87-480.41,68.96s215.09,68.96,480.41,68.96c265.33,0,480.42-30.87,480.42-68.96s-215.09-68.96-480.42-68.96"/>
    <path class="cls-197" d="M888.82,2015.63c-260.27,0-471.26,30.23-471.26,67.51,0,37.29,210.99,67.52,471.26,67.52,260.27,0,471.26-30.23,471.26-67.52,0-37.29-210.99-67.51-471.26-67.51"/>
    <path class="cls-28" d="M888.82,2015.36c-255.22,0-462.11,29.58-462.11,66.07,0,36.49,206.89,66.07,462.11,66.07,255.22,0,462.11-29.58,462.11-66.07,0-36.49-206.89-66.07-462.11-66.07"/>
    <path class="cls-20" d="M888.82,2015.08c-250.16,0-452.96,28.93-452.96,64.63s202.8,64.63,452.96,64.63c250.16,0,452.96-28.93,452.96-64.63s-202.8-64.63-452.96-64.63"/>
    <path class="cls-92" d="M888.82,2014.8c-245.11,0-443.81,28.29-443.81,63.18s198.7,63.18,443.81,63.18c245.11,0,443.81-28.29,443.81-63.18s-198.7-63.18-443.81-63.18"/>
    <path class="cls-82" d="M888.82,2014.53c-240.05,0-434.65,27.64-434.65,61.74,0,34.1,194.6,61.74,434.65,61.74,240.05,0,434.65-27.64,434.65-61.74,0-34.1-194.6-61.74-434.65-61.74"/>
    <path class="cls-90" d="M888.82,2014.25c-235,0-425.5,26.99-425.5,60.29s190.5,60.29,425.5,60.29c235,0,425.5-26.99,425.5-60.29s-190.5-60.29-425.5-60.29"/>
    <path class="cls-87" d="M888.82,2013.97c-229.94,0-416.35,26.35-416.35,58.85s186.41,58.85,416.35,58.85c229.94,0,416.35-26.35,416.35-58.85s-186.41-58.85-416.35-58.85"/>
    <path class="cls-170" d="M888.82,2013.7c-224.89,0-407.2,25.7-407.2,57.4,0,31.7,182.31,57.4,407.2,57.4,224.89,0,407.2-25.7,407.2-57.4,0-31.7-182.31-57.4-407.2-57.4"/>
    <path class="cls-273" d="M888.82,2013.42c-219.83,0-398.05,25.05-398.05,55.96,0,30.9,178.21,55.96,398.05,55.96,219.83,0,398.05-25.05,398.05-55.96,0-30.9-178.21-55.96-398.05-55.96"/>
    <path class="cls-273" d="M888.82,2013.14c-214.78,0-388.89,24.41-388.89,54.51s174.11,54.51,388.89,54.51c214.78,0,388.89-24.41,388.89-54.51s-174.11-54.51-388.89-54.51"/>
    <path class="cls-84" d="M888.82,2012.87c-209.72,0-379.74,23.76-379.74,53.07,0,29.31,170.02,53.07,379.74,53.07,209.73,0,379.74-23.76,379.74-53.07,0-29.31-170.02-53.07-379.74-53.07"/>
    <path class="cls-83" d="M888.82,2012.59c-204.67,0-370.59,23.11-370.59,51.62s165.92,51.62,370.59,51.62c204.67,0,370.59-23.11,370.59-51.62s-165.92-51.62-370.59-51.62"/>
    <path class="cls-207" d="M888.82,2012.31c-199.62,0-361.44,22.47-361.44,50.18s161.82,50.18,361.44,50.18,361.44-22.47,361.44-50.18-161.82-50.18-361.44-50.18"/>
    <path class="cls-115" d="M888.82,2012.04c-194.56,0-352.28,21.82-352.28,48.73s157.72,48.73,352.28,48.73,352.29-21.82,352.29-48.73-157.72-48.73-352.29-48.73"/>
    <path class="cls-199" d="M888.82,2011.76c-189.51,0-343.13,21.17-343.13,47.29,0,26.12,153.63,47.29,343.13,47.29,189.51,0,343.13-21.17,343.13-47.29,0-26.12-153.63-47.29-343.13-47.29"/>
    <path class="cls-214" d="M888.82,2011.48c-184.45,0-333.98,20.53-333.98,45.84s149.53,45.84,333.98,45.84,333.98-20.53,333.98-45.84-149.53-45.84-333.98-45.84"/>
    <path class="cls-221" d="M888.82,2011.21c-179.4,0-324.83,19.88-324.83,44.4,0,24.52,145.43,44.4,324.83,44.4s324.83-19.88,324.83-44.4c0-24.52-145.43-44.4-324.83-44.4"/>
    <path class="cls-89" d="M888.82,2010.93c-174.34,0-315.68,19.23-315.68,42.96,0,23.72,141.33,42.95,315.68,42.95s315.68-19.23,315.68-42.95c0-23.72-141.33-42.96-315.68-42.96"/>
    <path class="cls-119" d="M888.82,2010.65c-169.29,0-306.52,18.59-306.52,41.51,0,22.92,137.24,41.51,306.52,41.51s306.52-18.59,306.52-41.51c0-22.93-137.24-41.51-306.52-41.51"/>
    <path class="cls-227" d="M888.82,2010.37c-164.23,0-297.37,17.94-297.37,40.07s133.14,40.07,297.37,40.07,297.37-17.94,297.37-40.07-133.14-40.07-297.37-40.07"/>
    <path class="cls-35" d="M888.82,2010.1c-159.18,0-288.22,17.29-288.22,38.62,0,21.33,129.04,38.62,288.22,38.62s288.22-17.29,288.22-38.62c0-21.33-129.04-38.62-288.22-38.62"/>
    <path class="cls-65" d="M888.82,2009.82c-154.12,0-279.07,16.64-279.07,37.18s124.94,37.18,279.07,37.18,279.07-16.64,279.07-37.18-124.94-37.18-279.07-37.18"/>
    <path class="cls-40" d="M888.82,2009.54c-149.07,0-269.92,16-269.92,35.73s120.85,35.73,269.92,35.73,269.92-16,269.92-35.73-120.85-35.73-269.92-35.73"/>
    <path class="cls-66" d="M888.82,2009.27c-144.02,0-260.76,15.35-260.76,34.29s116.75,34.29,260.76,34.29,260.76-15.35,260.76-34.29-116.75-34.29-260.76-34.29"/>
    <path class="cls-71" d="M888.82,2008.99c-138.96,0-251.61,14.7-251.61,32.84,0,18.14,112.65,32.84,251.61,32.84s251.61-14.7,251.61-32.84c0-18.14-112.65-32.84-251.61-32.84"/>
    <path class="cls-51" d="M888.82,2008.71c-133.91,0-242.46,14.06-242.46,31.4s108.55,31.4,242.46,31.4,242.46-14.06,242.46-31.4-108.55-31.4-242.46-31.4"/>
    <path class="cls-53" d="M888.82,2008.44c-128.85,0-233.31,13.41-233.31,29.95,0,16.54,104.46,29.95,233.31,29.95s233.31-13.41,233.31-29.95c0-16.54-104.45-29.95-233.31-29.95"/>
    <path class="cls-57" d="M888.82,2008.16c-123.8,0-224.15,12.76-224.15,28.51s100.36,28.51,224.15,28.51,224.16-12.76,224.16-28.51-100.36-28.51-224.16-28.51"/>
    <path class="cls-61" d="M888.82,2007.88c-118.74,0-215,12.12-215,27.06,0,14.95,96.26,27.06,215,27.06s215-12.12,215-27.06c0-14.95-96.26-27.06-215-27.06"/>
  </g>
  <g>
    <g>
      <g class="cls-2">
        <polyline class="cls-42" points="358.91 -427.66 357.97 -425.48 2200.43 369.82 2201.37 367.64"/>
        <polyline class="cls-42" points="359.94 -430.02 354.05 -416.38 2196.51 378.92 2202.39 365.28"/>
        <polyline class="cls-46" points="356.01 -420.93 350.12 -407.29 2192.58 388.01 2198.47 374.37"/>
        <polyline class="cls-46" points="352.09 -411.84 346.2 -398.2 2188.66 397.1 2194.54 383.46"/>
        <polyline class="cls-46" points="348.16 -402.75 342.27 -389.1 2184.73 406.19 2190.62 392.56"/>
        <polyline class="cls-46" points="344.23 -393.65 338.35 -380.01 2180.81 415.29 2186.69 401.65"/>
        <polyline class="cls-72" points="340.31 -384.56 334.42 -370.92 2176.88 424.38 2182.77 410.74"/>
        <polyline class="cls-72" points="336.39 -375.47 330.5 -361.83 2172.96 433.47 2178.84 419.83"/>
        <polyline class="cls-73" points="332.46 -366.37 326.57 -352.73 2169.03 442.57 2174.92 428.93"/>
        <polyline class="cls-73" points="328.54 -357.28 322.65 -343.64 2165.11 451.66 2170.99 438.02"/>
        <polyline class="cls-73" points="324.61 -348.19 318.72 -334.55 2161.18 460.75 2167.07 447.11"/>
        <polyline class="cls-73" points="320.69 -339.09 314.8 -325.45 2157.26 469.85 2163.14 456.21"/>
        <polyline class="cls-73" points="316.76 -330 310.87 -316.36 2153.33 478.94 2159.22 465.3"/>
        <polyline class="cls-73" points="312.84 -320.91 306.95 -307.27 2149.41 488.03 2155.29 474.39"/>
        <polyline class="cls-75" points="308.91 -311.82 303.02 -298.18 2145.48 497.12 2151.37 483.48"/>
        <polyline class="cls-75" points="304.99 -302.72 299.1 -289.08 2141.56 506.22 2147.44 492.58"/>
        <polyline class="cls-75" points="301.06 -293.63 295.17 -279.99 2137.63 515.31 2143.52 501.67"/>
        <polyline class="cls-75" points="297.14 -284.54 291.25 -270.9 2133.71 524.4 2139.59 510.76"/>
        <polyline class="cls-75" points="293.21 -275.44 287.32 -261.8 2129.78 533.5 2135.67 519.86"/>
        <polyline class="cls-75" points="289.29 -266.35 283.4 -252.71 2125.86 542.59 2131.74 528.95"/>
        <polyline class="cls-75" points="285.36 -257.26 279.47 -243.62 2121.93 551.68 2127.82 538.04"/>
        <polyline class="cls-74" points="281.44 -248.16 275.55 -234.53 2118.01 560.77 2123.89 547.14"/>
        <polyline class="cls-74" points="277.51 -239.07 271.62 -225.43 2114.08 569.87 2119.97 556.23"/>
        <polyline class="cls-56" points="273.59 -229.98 267.7 -216.34 2110.16 578.96 2116.04 565.32"/>
        <polyline class="cls-56" points="269.66 -220.89 263.77 -207.25 2106.23 588.05 2112.12 574.41"/>
        <polyline class="cls-56" points="265.74 -211.79 259.85 -198.15 2102.31 597.15 2108.19 583.51"/>
        <polyline class="cls-56" points="261.81 -202.7 255.92 -189.06 2098.38 606.24 2104.27 592.6"/>
        <polyline class="cls-63" points="257.89 -193.61 252 -179.97 2094.46 615.33 2100.35 601.69"/>
        <polyline class="cls-62" points="253.96 -184.51 248.07 -170.87 2090.53 624.42 2096.42 610.79"/>
        <polyline class="cls-62" points="250.04 -175.42 244.15 -161.78 2086.61 633.52 2092.49 619.88"/>
        <polyline class="cls-62" points="246.11 -166.33 240.22 -152.69 2082.68 642.61 2088.57 628.97"/>
        <polyline class="cls-62" points="242.19 -157.24 236.3 -143.6 2078.76 651.7 2084.64 638.06"/>
        <polyline class="cls-59" points="238.26 -148.14 232.37 -134.5 2074.83 660.8 2080.72 647.16"/>
        <polyline class="cls-54" points="234.34 -139.05 228.45 -125.41 2070.91 669.89 2076.8 656.25"/>
        <polyline class="cls-54" points="230.41 -129.96 224.52 -116.32 2066.98 678.98 2072.87 665.34"/>
        <polyline class="cls-54" points="226.49 -120.86 220.6 -107.22 2063.06 688.08 2068.94 674.44"/>
        <polyline class="cls-54" points="222.56 -111.77 216.67 -98.13 2059.13 697.17 2065.02 683.53"/>
        <polyline class="cls-54" points="218.64 -102.68 212.75 -89.04 2055.21 706.26 2061.09 692.62"/>
        <polyline class="cls-54" points="214.71 -93.58 208.82 -79.94 2051.28 715.35 2057.17 701.71"/>
        <polyline class="cls-55" points="210.79 -84.49 204.9 -70.85 2047.36 724.45 2053.25 710.81"/>
        <polyline class="cls-32" points="206.86 -75.4 200.97 -61.76 2043.43 733.54 2049.32 719.9"/>
        <polyline class="cls-32" points="202.94 -66.31 197.05 -52.67 2039.51 742.63 2045.39 728.99"/>
        <polyline class="cls-31" points="199.01 -57.21 193.12 -43.57 2035.58 751.73 2041.47 738.09"/>
        <polyline class="cls-31" points="195.09 -48.12 189.2 -34.48 2031.66 760.82 2037.54 747.18"/>
        <polyline class="cls-31" points="191.16 -39.03 185.27 -25.39 2027.73 769.91 2033.62 756.27"/>
        <polyline class="cls-31" points="187.24 -29.93 181.35 -16.29 2023.81 779 2029.7 765.37"/>
        <polyline class="cls-33" points="183.31 -20.84 177.42 -7.2 2019.88 788.1 2025.77 774.46"/>
        <polyline class="cls-33" points="179.39 -11.75 173.5 1.89 2015.96 797.19 2021.85 783.55"/>
        <polyline class="cls-33" points="175.46 -2.65 169.57 10.98 2012.03 806.28 2017.92 792.64"/>
        <polyline class="cls-49" points="171.54 6.44 165.65 20.08 2008.11 815.38 2013.99 801.74"/>
        <polyline class="cls-49" points="167.61 15.53 161.72 29.17 2004.18 824.47 2010.07 810.83"/>
        <polyline class="cls-49" points="163.69 24.62 157.8 38.26 2000.26 833.56 2006.15 819.92"/>
        <polyline class="cls-52" points="159.76 33.72 153.87 47.36 1996.33 842.66 2002.22 829.02"/>
        <polyline class="cls-52" points="155.84 42.81 149.95 56.45 1992.41 851.75 1998.3 838.11"/>
        <polyline class="cls-52" points="151.91 51.9 146.02 65.54 1988.48 860.84 1994.37 847.2"/>
        <polyline class="cls-52" points="147.99 60.99 142.1 74.63 1984.56 869.93 1990.44 856.3"/>
        <polyline class="cls-52" points="144.06 70.09 138.17 83.73 1980.63 879.03 1986.52 865.39"/>
        <polyline class="cls-50" points="140.14 79.18 134.25 92.82 1976.71 888.12 1982.6 874.48"/>
        <polyline class="cls-70" points="136.21 88.27 130.32 101.91 1972.78 897.21 1978.67 883.57"/>
        <polyline class="cls-70" points="132.29 97.37 126.4 111.01 1968.86 906.31 1974.75 892.67"/>
        <polyline class="cls-70" points="128.36 106.46 122.47 120.1 1964.93 915.4 1970.82 901.76"/>
        <polyline class="cls-70" points="124.44 115.55 118.55 129.19 1961.01 924.49 1966.9 910.85"/>
        <polyline class="cls-70" points="120.51 124.65 114.62 138.29 1957.08 933.59 1962.97 919.95"/>
        <polyline class="cls-70" points="116.59 133.74 110.7 147.38 1953.16 942.68 1959.05 929.04"/>
        <polyline class="cls-70" points="112.66 142.83 106.77 156.47 1949.23 951.77 1955.12 938.13"/>
        <polyline class="cls-39" points="108.74 151.92 102.85 165.56 1945.31 960.86 1951.2 947.22"/>
        <polyline class="cls-39" points="104.81 161.02 98.92 174.66 1941.38 969.96 1947.27 956.32"/>
        <polyline class="cls-30" points="100.89 170.11 95 183.75 1937.46 979.05 1943.35 965.41"/>
        <polyline class="cls-30" points="96.96 179.2 91.07 192.84 1933.53 988.14 1939.42 974.5"/>
        <polyline class="cls-30" points="93.04 188.3 87.15 201.94 1929.61 997.23 1935.5 983.6"/>
        <polyline class="cls-30" points="89.11 197.39 83.22 211.03 1925.68 1006.33 1931.57 992.69"/>
        <polyline class="cls-34" points="85.19 206.48 79.3 220.12 1921.76 1015.42 1927.65 1001.78"/>
        <polyline class="cls-34" points="81.26 215.57 75.37 229.21 1917.83 1024.51 1923.72 1010.87"/>
        <polyline class="cls-34" points="77.34 224.67 71.45 238.31 1913.91 1033.61 1919.8 1019.97"/>
        <polyline class="cls-34" points="73.41 233.76 67.52 247.4 1909.98 1042.7 1915.87 1029.06"/>
        <polyline class="cls-58" points="69.49 242.85 63.6 256.49 1906.06 1051.79 1911.95 1038.15"/>
        <polyline class="cls-58" points="65.56 251.95 59.67 265.59 1902.13 1060.89 1908.02 1047.25"/>
        <polyline class="cls-64" points="61.64 261.04 55.75 274.68 1898.21 1069.98 1904.1 1056.34"/>
        <polyline class="cls-64" points="57.71 270.13 51.82 283.77 1894.28 1079.07 1900.17 1065.43"/>
        <polyline class="cls-64" points="53.79 279.23 47.9 292.87 1890.36 1088.16 1896.25 1074.52"/>
        <polyline class="cls-64" points="49.86 288.32 43.97 301.96 1886.43 1097.26 1892.32 1083.62"/>
        <polyline class="cls-64" points="45.94 297.41 40.05 311.05 1882.51 1106.35 1888.4 1092.71"/>
        <polyline class="cls-64" points="42.01 306.5 36.12 320.14 1878.58 1115.44 1884.47 1101.8"/>
        <polyline class="cls-60" points="38.09 315.6 32.2 329.24 1874.66 1124.54 1880.55 1110.9"/>
        <polyline class="cls-44" points="34.16 324.69 28.27 338.33 1870.73 1133.63 1876.62 1119.99"/>
        <polyline class="cls-45" points="30.24 333.78 24.35 347.42 1866.81 1142.72 1872.7 1129.08"/>
        <polyline class="cls-45" points="26.31 342.88 20.42 356.52 1862.88 1151.82 1868.77 1138.18"/>
        <polyline class="cls-45" points="22.39 351.97 16.5 365.61 1858.96 1160.91 1864.85 1147.27"/>
        <polyline class="cls-45" points="18.46 361.06 12.57 374.7 1855.03 1170 1860.92 1156.36"/>
        <polyline class="cls-45" points="14.54 370.16 8.65 383.79 1851.11 1179.09 1857 1165.45"/>
        <polyline class="cls-43" points="10.61 379.25 4.72 392.89 1847.18 1188.19 1853.07 1174.55"/>
        <polyline class="cls-43" points="6.69 388.34 .8 401.98 1843.26 1197.28 1849.15 1183.64"/>
        <polyline class="cls-43" points="2.76 397.43 -3.13 411.07 1839.33 1206.37 1845.22 1192.73"/>
        <polyline class="cls-38" points="-1.16 406.53 -7.05 420.17 1835.41 1215.47 1841.3 1201.83"/>
        <polyline class="cls-38" points="-5.09 415.62 -10.97 429.26 1831.48 1224.56 1837.37 1210.92"/>
        <polyline class="cls-38" points="-9.01 424.71 -14.9 438.35 1827.56 1233.65 1833.45 1220.01"/>
        <polyline class="cls-36" points="-12.94 433.81 -18.83 447.45 1823.63 1242.74 1829.52 1229.11"/>
        <polyline class="cls-36" points="-16.86 442.9 -22.75 456.54 1819.71 1251.84 1825.6 1238.2"/>
        <polyline class="cls-36" points="-20.79 451.99 -26.68 465.63 1815.78 1260.93 1821.67 1247.29"/>
        <polyline class="cls-36" points="-24.71 461.09 -30.6 474.72 1811.86 1270.02 1817.75 1256.38"/>
        <polyline class="cls-37" points="-28.64 470.18 -34.53 483.82 1807.93 1279.12 1813.82 1265.48"/>
        <polyline class="cls-68" points="-32.56 479.27 -38.45 492.91 1804.01 1288.21 1809.9 1274.57"/>
        <polyline class="cls-69" points="-36.49 488.36 -42.37 502 1800.08 1297.3 1805.97 1283.66"/>
        <polyline class="cls-69" points="-40.41 497.46 -46.3 511.1 1796.16 1306.4 1802.05 1292.76"/>
        <polyline class="cls-69" points="-44.34 506.55 -50.23 520.19 1792.23 1315.49 1798.12 1301.85"/>
        <polyline class="cls-69" points="-48.26 515.64 -54.15 529.28 1788.31 1324.58 1794.2 1310.94"/>
        <polyline class="cls-69" points="-52.19 524.73 -58.08 538.37 1784.38 1333.67 1790.27 1320.04"/>
        <polyline class="cls-69" points="-56.11 533.83 -62 547.47 1780.46 1342.77 1786.35 1329.13"/>
        <polyline class="cls-67" points="-60.04 542.92 -65.92 556.56 1776.53 1351.86 1782.42 1338.22"/>
        <polyline class="cls-67" points="-63.96 552.01 -69.85 565.65 1772.61 1360.95 1778.5 1347.31"/>
        <polyline class="cls-154" points="-67.89 561.11 -73.78 574.75 1768.68 1370.05 1774.57 1356.41"/>
        <polyline class="cls-154" points="-71.81 570.2 -77.7 583.84 1764.76 1379.14 1770.65 1365.5"/>
        <polyline class="cls-154" points="-75.74 579.29 -81.62 592.93 1760.83 1388.23 1766.72 1374.59"/>
        <polyline class="cls-154" points="-79.66 588.39 -85.55 602.02 1756.91 1397.33 1762.8 1383.69"/>
        <polyline class="cls-155" points="-83.59 597.48 -89.47 611.12 1752.98 1406.42 1758.87 1392.78"/>
        <polyline class="cls-125" points="-87.51 606.57 -93.4 620.21 1749.06 1415.51 1754.95 1401.87"/>
        <polyline class="cls-125" points="-91.44 615.66 -97.32 629.3 1745.13 1424.6 1751.02 1410.96"/>
        <polyline class="cls-125" points="-95.36 624.76 -101.25 638.4 1741.21 1433.7 1747.1 1420.06"/>
        <polyline class="cls-125" points="-99.29 633.85 -105.18 647.49 1737.28 1442.79 1743.17 1429.15"/>
        <polyline class="cls-123" points="-103.21 642.94 -109.1 656.58 1733.36 1451.88 1739.25 1438.24"/>
        <polyline class="cls-123" points="-107.14 652.04 -113.02 665.68 1729.43 1460.97 1735.32 1447.34"/>
        <polyline class="cls-122" points="-111.06 661.13 -116.95 674.77 1725.51 1470.07 1731.4 1456.43"/>
        <polyline class="cls-122" points="-114.99 670.22 -120.87 683.86 1721.58 1479.16 1727.47 1465.52"/>
        <polyline class="cls-122" points="-118.91 679.32 -124.8 692.95 1717.66 1488.25 1723.55 1474.61"/>
        <polyline class="cls-122" points="-122.84 688.41 -128.73 702.05 1713.74 1497.35 1719.62 1483.71"/>
        <polyline class="cls-122" points="-126.76 697.5 -132.65 711.14 1709.81 1506.44 1715.7 1492.8"/>
        <polyline class="cls-122" points="-130.69 706.59 -136.57 720.23 1705.88 1515.53 1711.77 1501.89"/>
        <polyline class="cls-230" points="-134.61 715.69 -140.5 729.33 1701.96 1524.63 1707.85 1510.99"/>
        <polyline class="cls-229" points="-138.54 724.78 -144.42 738.42 1698.03 1533.72 1703.92 1520.08"/>
        <polyline class="cls-229" points="-142.46 733.87 -148.35 747.51 1694.11 1542.81 1700 1529.17"/>
        <polyline class="cls-229" points="-146.39 742.97 -152.27 756.61 1690.19 1551.9 1696.07 1538.27"/>
        <polyline class="cls-229" points="-150.31 752.06 -156.2 765.7 1686.26 1561 1692.15 1547.36"/>
        <polyline class="cls-229" points="-154.24 761.15 -160.12 774.79 1682.33 1570.09 1688.22 1556.45"/>
        <polyline class="cls-228" points="-158.16 770.24 -164.05 783.88 1678.41 1579.18 1684.3 1565.54"/>
        <polyline class="cls-228" points="-162.09 779.34 -167.97 792.98 1674.48 1588.28 1680.37 1574.64"/>
        <polyline class="cls-228" points="-166.01 788.43 -171.9 802.07 1670.56 1597.37 1676.45 1583.73"/>
        <polyline class="cls-218" points="-169.94 797.52 -175.82 811.16 1666.64 1606.46 1672.52 1592.82"/>
        <polyline class="cls-218" points="-173.86 806.62 -179.75 820.26 1662.71 1615.56 1668.6 1601.92"/>
        <polyline class="cls-218" points="-177.79 815.71 -183.67 829.35 1658.79 1624.65 1664.67 1611.01"/>
        <polyline class="cls-218" points="-181.71 824.8 -187.6 838.44 1654.86 1633.74 1660.75 1620.1"/>
        <polyline class="cls-220" points="-185.64 833.9 -191.52 847.53 1650.93 1642.83 1656.82 1629.19"/>
        <polyline class="cls-220" points="-189.56 842.99 -195.45 856.63 1647.01 1651.93 1652.9 1638.29"/>
        <polyline class="cls-219" points="-193.49 852.08 -199.37 865.72 1643.08 1661.02 1648.97 1647.38"/>
        <polyline class="cls-219" points="-197.41 861.17 -203.3 874.81 1639.16 1670.11 1645.05 1656.47"/>
        <polyline class="cls-219" points="-201.34 870.27 -207.22 883.91 1635.24 1679.21 1641.12 1665.57"/>
        <polyline class="cls-208" points="-205.26 879.36 -211.15 893 1631.31 1688.3 1637.2 1674.66"/>
        <polyline class="cls-206" points="-209.19 888.45 -215.07 902.09 1627.38 1697.39 1633.27 1683.75"/>
        <polyline class="cls-206" points="-213.11 897.55 -219 911.18 1623.46 1706.48 1629.35 1692.85"/>
        <polyline class="cls-206" points="-217.04 906.64 -222.92 920.28 1619.53 1715.58 1625.42 1701.94"/>
        <polyline class="cls-206" points="-220.96 915.73 -226.85 929.37 1615.61 1724.67 1621.5 1711.03"/>
        <polyline class="cls-206" points="-224.89 924.82 -230.77 938.46 1611.69 1733.76 1617.57 1720.12"/>
        <polyline class="cls-206" points="-228.81 933.92 -234.7 947.56 1607.76 1742.86 1613.65 1729.22"/>
        <polyline class="cls-205" points="-232.74 943.01 -238.62 956.65 1603.84 1751.95 1609.72 1738.31"/>
        <polyline class="cls-205" points="-236.66 952.1 -242.55 965.74 1599.91 1761.04 1605.8 1747.4"/>
        <polyline class="cls-204" points="-240.59 961.2 -246.47 974.84 1595.98 1770.14 1601.87 1756.5"/>
        <polyline class="cls-204" points="-244.51 970.29 -250.4 983.93 1592.06 1779.23 1597.95 1765.59"/>
        <polyline class="cls-204" points="-248.44 979.38 -254.32 993.02 1588.14 1788.32 1594.02 1774.68"/>
        <polyline class="cls-203" points="-252.36 988.47 -258.25 1002.11 1584.21 1797.41 1590.1 1783.77"/>
        <polyline class="cls-202" points="-256.29 997.57 -262.17 1011.21 1580.29 1806.51 1586.17 1792.87"/>
        <polyline class="cls-202" points="-260.21 1006.66 -266.1 1020.3 1576.36 1815.6 1582.25 1801.96"/>
        <polyline class="cls-202" points="-264.14 1015.75 -270.02 1029.39 1572.43 1824.69 1578.32 1811.05"/>
        <polyline class="cls-202" points="-268.06 1024.85 -273.95 1038.49 1568.51 1833.79 1574.4 1820.15"/>
        <polyline class="cls-194" points="-271.99 1033.94 -277.87 1047.58 1564.59 1842.88 1570.47 1829.24"/>
        <polyline class="cls-194" points="-275.91 1043.03 -281.8 1056.67 1560.66 1851.97 1566.55 1838.33"/>
        <polyline class="cls-194" points="-279.84 1052.13 -285.72 1065.76 1556.74 1861.07 1562.62 1847.43"/>
        <polyline class="cls-195" points="-283.76 1061.22 -289.65 1074.86 1552.81 1870.16 1558.7 1856.52"/>
        <polyline class="cls-195" points="-287.69 1070.31 -293.57 1083.95 1548.88 1879.25 1554.77 1865.61"/>
        <polyline class="cls-195" points="-291.61 1079.4 -297.5 1093.04 1544.96 1888.34 1550.85 1874.7"/>
        <polyline class="cls-195" points="-295.54 1088.5 -301.42 1102.14 1541.04 1897.44 1546.92 1883.8"/>
        <polyline class="cls-195" points="-299.46 1097.59 -305.35 1111.23 1537.11 1906.53 1543 1892.89"/>
        <polyline class="cls-195" points="-303.39 1106.68 -309.27 1120.32 1533.19 1915.62 1539.07 1901.98"/>
        <polyline class="cls-114" points="-307.31 1115.78 -313.2 1129.42 1529.26 1924.71 1535.15 1911.08"/>
        <polyline class="cls-114" points="-311.24 1124.87 -317.12 1138.51 1525.34 1933.81 1531.22 1920.17"/>
        <polyline class="cls-114" points="-315.16 1133.96 -321.05 1147.6 1521.41 1942.9 1527.3 1929.26"/>
        <polyline class="cls-95" points="-319.09 1143.05 -324.97 1156.69 1517.49 1951.99 1523.37 1938.35"/>
        <polyline class="cls-116" points="-323.01 1152.15 -328.9 1165.79 1513.56 1961.09 1519.45 1947.45"/>
        <polyline class="cls-118" points="-326.94 1161.24 -332.82 1174.88 1509.64 1970.18 1515.52 1956.54"/>
        <polyline class="cls-117" points="-330.86 1170.33 -336.75 1183.97 1505.71 1979.27 1511.6 1965.63"/>
        <polyline class="cls-86" points="-334.79 1179.43 -340.67 1193.07 1501.79 1988.37 1507.67 1974.73"/>
        <polyline class="cls-85" points="-338.71 1188.52 -344.6 1202.16 1497.86 1997.46 1503.75 1983.82"/>
        <polyline class="cls-85" points="-342.64 1197.61 -348.52 1211.25 1493.94 2006.55 1499.82 1992.91"/>
        <polyline class="cls-85" points="-346.56 1206.71 -352.45 1220.35 1490.01 2015.64 1495.9 2002"/>
        <polyline class="cls-279" points="-350.49 1215.8 -356.37 1229.44 1486.09 2024.74 1491.97 2011.1"/>
        <polyline class="cls-278" points="-354.41 1224.89 -360.3 1238.53 1482.16 2033.83 1488.05 2020.19"/>
        <polyline class="cls-217" points="-358.34 1233.98 -364.22 1247.62 1478.24 2042.92 1484.12 2029.28"/>
        <polyline class="cls-217" points="-362.26 1243.08 -368.15 1256.72 1474.31 2052.02 1480.2 2038.38"/>
        <polyline class="cls-124" points="-366.19 1252.17 -372.07 1265.81 1470.39 2061.11 1476.27 2047.47"/>
        <polyline class="cls-121" points="-370.11 1261.26 -376 1274.9 1466.46 2070.2 1472.35 2056.56"/>
        <polyline class="cls-121" points="-374.04 1270.36 -379.92 1284 1462.54 2079.3 1468.42 2065.66"/>
        <polyline class="cls-120" points="-377.96 1279.45 -383.85 1293.09 1458.61 2088.39 1464.5 2074.75"/>
        <polyline class="cls-94" points="-381.89 1288.54 -387.77 1302.18 1454.69 2097.48 1460.57 2083.84"/>
        <polyline class="cls-94" points="-385.81 1297.64 -391.7 1311.27 1450.76 2106.57 1456.65 2092.93"/>
        <polyline class="cls-93" points="-389.74 1306.73 -395.62 1320.37 1446.84 2115.67 1452.72 2102.03"/>
        <polyline class="cls-91" points="-393.66 1315.82 -399.55 1329.46 1442.91 2124.76 1448.8 2111.12"/>
        <polyline class="cls-91" points="-397.59 1324.91 -403.47 1338.55 1438.99 2133.85 1444.87 2120.21"/>
        <polyline class="cls-88" points="-401.51 1334.01 -407.4 1347.65 1435.06 2142.95 1440.95 2129.31"/>
        <polyline class="cls-88" points="-405.44 1343.1 -411.32 1356.74 1431.14 2152.04 1437.02 2138.4"/>
        <polyline class="cls-81" points="-409.36 1352.19 -415.25 1365.83 1427.21 2161.13 1433.1 2147.49"/>
        <polyline class="cls-80" points="-413.29 1361.29 -419.17 1374.92 1423.29 2170.22 1429.17 2156.59"/>
        <polyline class="cls-80" points="-417.21 1370.38 -423.1 1384.02 1419.36 2179.32 1425.25 2165.68"/>
        <polyline class="cls-80" points="-421.14 1379.47 -427.02 1393.11 1415.44 2188.41 1421.32 2174.77"/>
        <polyline class="cls-19" points="-425.06 1388.56 -430.95 1402.2 1411.51 2197.5 1417.4 2183.86"/>
        <polyline class="cls-22" points="-428.99 1397.66 -434.87 1411.3 1407.59 2206.6 1413.47 2192.96"/>
        <polyline class="cls-21" points="-432.91 1406.75 -436.39 1414.8 1406.07 2210.1 1409.55 2202.05"/>
      </g>
      <g class="cls-4">
        <rect class="cls-1" x="-80.17" y="-77.73" width="1836.58" height="1875.49"/>
      </g>
      <g class="cls-7">
        <rect class="cls-8" x="143.66" y="92.66" width="1466.75" height="1445.4"/>
      </g>
      <path class="cls-162" d="M886.03,206.61c-292.81,0-541.67,188-632.56,449.87-14.98,55.02-23.03,112.91-23.03,172.68,0,362.07,293.52,655.59,655.59,655.59,362.07,0,655.59-293.52,655.59-655.59,0-59.77-8.04-117.65-23.03-172.68-90.89-261.87-339.75-449.87-632.56-449.87"/>
    </g>
    <g>
      <g class="cls-6">
        <polyline class="cls-48" points="961.08 255.72 837.36 358.75 1408.83 1044.93 1532.54 941.89"/>
        <polyline class="cls-48" points="838.37 357.92 835.35 360.43 1406.81 1046.6 1409.83 1044.09"/>
        <polyline class="cls-48" points="836.36 359.59 833.34 362.11 1404.8 1048.28 1407.82 1045.76"/>
        <polyline class="cls-48" points="834.34 361.27 831.32 363.78 1402.79 1049.96 1405.81 1047.44"/>
        <polyline class="cls-47" points="832.33 362.95 829.31 365.46 1400.77 1051.63 1403.79 1049.12"/>
        <polyline class="cls-41" points="830.31 364.62 827.29 367.14 1398.76 1053.31 1401.78 1050.8"/>
        <polyline class="cls-41" points="828.3 366.3 825.28 368.82 1396.74 1054.99 1399.77 1052.47"/>
        <polyline class="cls-41" points="826.29 367.98 823.27 370.49 1394.73 1056.67 1397.75 1054.15"/>
        <polyline class="cls-42" points="824.27 369.65 821.25 372.17 1392.72 1058.34 1395.74 1055.83"/>
        <polyline class="cls-42" points="822.26 371.33 819.24 373.85 1390.7 1060.02 1393.72 1057.5"/>
        <polyline class="cls-46" points="820.25 373.01 817.22 375.52 1388.69 1061.7 1391.71 1059.18"/>
        <polyline class="cls-46" points="818.23 374.69 815.21 377.2 1386.68 1063.37 1389.7 1060.86"/>
        <polyline class="cls-46" points="816.22 376.36 813.2 378.88 1384.66 1065.05 1387.68 1062.54"/>
        <polyline class="cls-46" points="814.2 378.04 811.18 380.56 1382.65 1066.73 1385.67 1064.21"/>
        <polyline class="cls-72" points="812.19 379.72 809.17 382.23 1380.64 1068.4 1383.66 1065.89"/>
        <polyline class="cls-72" points="810.18 381.4 807.16 383.91 1378.62 1070.08 1381.64 1067.57"/>
        <polyline class="cls-73" points="808.16 383.07 805.14 385.59 1376.61 1071.76 1379.63 1069.24"/>
        <polyline class="cls-73" points="806.15 384.75 803.13 387.26 1374.59 1073.44 1377.61 1070.92"/>
        <polyline class="cls-73" points="804.14 386.43 801.12 388.94 1372.58 1075.11 1375.6 1072.6"/>
        <polyline class="cls-73" points="802.12 388.1 799.1 390.62 1370.57 1076.79 1373.59 1074.27"/>
        <polyline class="cls-73" points="800.11 389.78 797.09 392.3 1368.55 1078.47 1371.57 1075.95"/>
        <polyline class="cls-73" points="798.09 391.46 795.07 393.97 1366.54 1080.14 1369.56 1077.63"/>
        <polyline class="cls-75" points="796.08 393.13 793.06 395.65 1364.53 1081.82 1367.55 1079.31"/>
        <polyline class="cls-75" points="794.07 394.81 791.05 397.33 1362.51 1083.5 1365.53 1080.98"/>
        <polyline class="cls-75" points="792.05 396.49 789.03 399 1360.5 1085.18 1363.52 1082.66"/>
        <polyline class="cls-75" points="790.04 398.17 787.02 400.68 1358.48 1086.85 1361.51 1084.34"/>
        <polyline class="cls-75" points="788.03 399.84 785.01 402.36 1356.47 1088.53 1359.49 1086.01"/>
        <polyline class="cls-75" points="786.01 401.52 782.99 404.04 1354.46 1090.21 1357.48 1087.69"/>
        <polyline class="cls-75" points="784 403.2 780.98 405.71 1352.44 1091.88 1355.46 1089.37"/>
        <polyline class="cls-74" points="781.99 404.87 778.96 407.39 1350.43 1093.56 1353.45 1091.05"/>
        <polyline class="cls-74" points="779.97 406.55 776.95 409.07 1348.42 1095.24 1351.44 1092.72"/>
        <polyline class="cls-56" points="777.96 408.23 774.94 410.74 1346.4 1096.92 1349.42 1094.4"/>
        <polyline class="cls-56" points="775.94 409.9 772.92 412.42 1344.39 1098.59 1347.41 1096.08"/>
        <polyline class="cls-56" points="773.93 411.58 770.91 414.1 1342.37 1100.27 1345.39 1097.75"/>
        <polyline class="cls-56" points="771.92 413.26 768.9 415.77 1340.36 1101.95 1343.38 1099.43"/>
        <polyline class="cls-63" points="769.9 414.94 766.88 417.45 1338.35 1103.62 1341.37 1101.11"/>
        <polyline class="cls-62" points="767.89 416.61 764.87 419.13 1336.33 1105.3 1339.35 1102.79"/>
        <polyline class="cls-62" points="765.88 418.29 762.86 420.81 1334.32 1106.98 1337.34 1104.46"/>
        <polyline class="cls-62" points="763.86 419.97 760.84 422.48 1332.31 1108.66 1335.33 1106.14"/>
        <polyline class="cls-62" points="761.85 421.64 758.83 424.16 1330.29 1110.33 1333.31 1107.82"/>
        <polyline class="cls-59" points="759.83 423.32 756.81 425.84 1328.28 1112.01 1331.3 1109.49"/>
        <polyline class="cls-54" points="757.82 425 754.8 427.51 1326.26 1113.69 1329.29 1111.17"/>
        <polyline class="cls-54" points="755.81 426.68 752.79 429.19 1324.25 1115.36 1327.27 1112.85"/>
        <polyline class="cls-54" points="753.79 428.35 750.77 430.87 1322.24 1117.04 1325.26 1114.52"/>
        <polyline class="cls-54" points="751.78 430.03 748.76 432.55 1320.22 1118.72 1323.24 1116.2"/>
        <polyline class="cls-54" points="749.77 431.71 746.74 434.22 1318.21 1120.39 1321.23 1117.88"/>
        <polyline class="cls-54" points="747.75 433.38 744.73 435.9 1316.2 1122.07 1319.22 1119.56"/>
        <polyline class="cls-55" points="745.74 435.06 742.72 437.58 1314.18 1123.75 1317.2 1121.23"/>
        <polyline class="cls-32" points="743.72 436.74 740.7 439.25 1312.17 1125.43 1315.19 1122.91"/>
        <polyline class="cls-32" points="741.71 438.42 738.69 440.93 1310.16 1127.1 1313.18 1124.59"/>
        <polyline class="cls-31" points="739.7 440.09 736.68 442.61 1308.14 1128.78 1311.16 1126.26"/>
        <polyline class="cls-31" points="737.68 441.77 734.66 444.29 1306.13 1130.46 1309.15 1127.94"/>
        <polyline class="cls-31" points="735.67 443.45 732.65 445.96 1304.11 1132.13 1307.13 1129.62"/>
        <polyline class="cls-31" points="733.66 445.12 730.64 447.64 1302.1 1133.81 1305.12 1131.3"/>
        <polyline class="cls-33" points="731.64 446.8 728.62 449.32 1300.09 1135.49 1303.11 1132.97"/>
        <polyline class="cls-33" points="729.63 448.48 726.61 450.99 1298.07 1137.17 1301.09 1134.65"/>
        <polyline class="cls-33" points="727.61 450.16 724.59 452.67 1296.06 1138.84 1299.08 1136.33"/>
        <polyline class="cls-49" points="725.6 451.83 722.58 454.35 1294.05 1140.52 1297.07 1138"/>
        <polyline class="cls-49" points="723.59 453.51 720.57 456.02 1292.03 1142.2 1295.05 1139.68"/>
        <polyline class="cls-49" points="721.57 455.19 718.55 457.7 1290.02 1143.87 1293.04 1141.36"/>
        <polyline class="cls-52" points="719.56 456.86 716.54 459.38 1288 1145.55 1291.03 1143.03"/>
        <polyline class="cls-52" points="717.55 458.54 714.53 461.06 1285.99 1147.23 1289.01 1144.71"/>
        <polyline class="cls-52" points="715.53 460.22 712.51 462.73 1283.98 1148.9 1287 1146.39"/>
        <polyline class="cls-52" points="713.52 461.89 710.5 464.41 1281.96 1150.58 1284.98 1148.07"/>
        <polyline class="cls-52" points="711.51 463.57 708.48 466.09 1279.95 1152.26 1282.97 1149.74"/>
        <polyline class="cls-50" points="709.49 465.25 706.47 467.76 1277.94 1153.94 1280.96 1151.42"/>
        <polyline class="cls-70" points="707.48 466.93 704.46 469.44 1275.92 1155.61 1278.94 1153.1"/>
        <polyline class="cls-70" points="705.46 468.6 702.44 471.12 1273.91 1157.29 1276.93 1154.77"/>
        <polyline class="cls-70" points="703.45 470.28 700.43 472.8 1271.89 1158.97 1274.91 1156.45"/>
        <polyline class="cls-70" points="701.44 471.96 698.42 474.47 1269.88 1160.64 1272.9 1158.13"/>
        <polyline class="cls-70" points="699.42 473.63 696.4 476.15 1267.87 1162.32 1270.89 1159.81"/>
        <polyline class="cls-70" points="697.41 475.31 694.39 477.83 1265.85 1164 1268.87 1161.48"/>
        <polyline class="cls-70" points="695.4 476.99 692.38 479.5 1263.84 1165.68 1266.86 1163.16"/>
        <polyline class="cls-39" points="693.38 478.66 690.36 481.18 1261.83 1167.35 1264.85 1164.84"/>
        <polyline class="cls-39" points="691.37 480.34 688.35 482.86 1259.81 1169.03 1262.83 1166.51"/>
        <polyline class="cls-30" points="689.35 482.02 686.33 484.53 1257.8 1170.71 1260.82 1168.19"/>
        <polyline class="cls-30" points="687.34 483.7 684.32 486.21 1255.78 1172.38 1258.81 1169.87"/>
        <polyline class="cls-30" points="685.33 485.37 682.31 487.89 1253.77 1174.06 1256.79 1171.55"/>
        <polyline class="cls-30" points="683.31 487.05 680.29 489.57 1251.76 1175.74 1254.78 1173.22"/>
        <polyline class="cls-34" points="681.3 488.73 678.28 491.24 1249.74 1177.42 1252.76 1174.9"/>
        <polyline class="cls-34" points="679.29 490.4 676.26 492.92 1247.73 1179.09 1250.75 1176.58"/>
        <polyline class="cls-34" points="677.27 492.08 674.25 494.6 1245.72 1180.77 1248.74 1178.25"/>
        <polyline class="cls-34" points="675.26 493.76 672.24 496.27 1243.7 1182.45 1246.72 1179.93"/>
        <polyline class="cls-58" points="673.24 495.44 670.22 497.95 1241.69 1184.12 1244.71 1181.61"/>
        <polyline class="cls-58" points="671.23 497.11 668.21 499.63 1239.68 1185.8 1242.7 1183.29"/>
        <polyline class="cls-64" points="669.22 498.79 666.2 501.31 1237.66 1187.48 1240.68 1184.96"/>
        <polyline class="cls-64" points="667.2 500.47 664.18 502.98 1235.65 1189.15 1238.67 1186.64"/>
        <polyline class="cls-64" points="665.19 502.14 662.17 504.66 1233.63 1190.83 1236.65 1188.32"/>
        <polyline class="cls-64" points="663.18 503.82 660.16 506.34 1231.62 1192.51 1234.64 1189.99"/>
        <polyline class="cls-64" points="661.16 505.5 658.14 508.01 1229.61 1194.19 1232.63 1191.67"/>
        <polyline class="cls-64" points="659.15 507.18 656.13 509.69 1227.59 1195.86 1230.61 1193.35"/>
        <polyline class="cls-60" points="657.13 508.85 654.11 511.37 1225.58 1197.54 1228.6 1195.02"/>
        <polyline class="cls-44" points="655.12 510.53 652.1 513.05 1223.57 1199.22 1226.59 1196.7"/>
        <polyline class="cls-45" points="653.11 512.21 650.09 514.72 1221.55 1200.89 1224.57 1198.38"/>
        <polyline class="cls-45" points="651.09 513.88 648.07 516.4 1219.54 1202.57 1222.56 1200.06"/>
        <polyline class="cls-45" points="649.08 515.56 646.06 518.08 1217.52 1204.25 1220.55 1201.73"/>
        <polyline class="cls-45" points="647.07 517.24 644.05 519.75 1215.51 1205.93 1218.53 1203.41"/>
        <polyline class="cls-45" points="645.05 518.92 642.03 521.43 1213.5 1207.6 1216.52 1205.09"/>
        <polyline class="cls-43" points="643.04 520.59 640.02 523.11 1211.48 1209.28 1214.5 1206.76"/>
        <polyline class="cls-43" points="641.03 522.27 638 524.78 1209.47 1210.96 1212.49 1208.44"/>
        <polyline class="cls-43" points="639.01 523.95 635.99 526.46 1207.46 1212.63 1210.48 1210.12"/>
        <polyline class="cls-38" points="637 525.62 633.98 528.14 1205.44 1214.31 1208.46 1211.8"/>
        <polyline class="cls-38" points="634.98 527.3 631.96 529.82 1203.43 1215.99 1206.45 1213.47"/>
        <polyline class="cls-38" points="632.97 528.98 629.95 531.49 1201.41 1217.67 1204.44 1215.15"/>
        <polyline class="cls-36" points="630.96 530.65 627.94 533.17 1199.4 1219.34 1202.42 1216.83"/>
        <polyline class="cls-36" points="628.94 532.33 625.92 534.85 1197.39 1221.02 1200.41 1218.5"/>
        <polyline class="cls-36" points="626.93 534.01 623.91 536.52 1195.37 1222.7 1198.39 1220.18"/>
        <polyline class="cls-36" points="624.92 535.69 621.9 538.2 1193.36 1224.37 1196.38 1221.86"/>
        <polyline class="cls-37" points="622.9 537.36 619.88 539.88 1191.35 1226.05 1194.37 1223.54"/>
        <polyline class="cls-68" points="620.89 539.04 617.87 541.56 1189.33 1227.73 1192.35 1225.21"/>
        <polyline class="cls-69" points="618.87 540.72 615.85 543.23 1187.32 1229.41 1190.34 1226.89"/>
        <polyline class="cls-69" points="616.86 542.39 613.84 544.91 1185.3 1231.08 1188.33 1228.57"/>
        <polyline class="cls-69" points="614.85 544.07 611.83 546.59 1183.29 1232.76 1186.31 1230.24"/>
        <polyline class="cls-69" points="612.83 545.75 609.81 548.26 1181.28 1234.44 1184.3 1231.92"/>
        <polyline class="cls-69" points="610.82 547.42 607.8 549.94 1179.26 1236.11 1182.28 1233.6"/>
        <polyline class="cls-69" points="608.81 549.1 605.79 551.62 1177.25 1237.79 1180.27 1235.27"/>
        <polyline class="cls-67" points="606.79 550.78 603.77 553.3 1175.24 1239.47 1178.26 1236.95"/>
        <polyline class="cls-67" points="604.78 552.46 601.76 554.97 1173.22 1241.14 1176.24 1238.63"/>
        <polyline class="cls-154" points="602.76 554.13 599.74 556.65 1171.21 1242.82 1174.23 1240.31"/>
        <polyline class="cls-154" points="600.75 555.81 597.73 558.33 1169.2 1244.5 1172.22 1241.98"/>
        <polyline class="cls-154" points="598.74 557.49 595.72 560 1167.18 1246.18 1170.2 1243.66"/>
        <polyline class="cls-154" points="596.72 559.17 593.7 561.68 1165.17 1247.85 1168.19 1245.34"/>
        <polyline class="cls-155" points="594.71 560.84 591.69 563.36 1163.15 1249.53 1166.17 1247.01"/>
        <polyline class="cls-125" points="592.7 562.52 589.68 565.04 1161.14 1251.21 1164.16 1248.69"/>
        <polyline class="cls-125" points="590.68 564.2 587.66 566.71 1159.13 1252.88 1162.15 1250.37"/>
        <polyline class="cls-125" points="588.67 565.87 585.65 568.39 1157.11 1254.56 1160.13 1252.05"/>
        <polyline class="cls-125" points="586.65 567.55 583.63 570.07 1155.1 1256.24 1158.12 1253.72"/>
        <polyline class="cls-123" points="584.64 569.23 581.62 571.74 1153.09 1257.91 1156.11 1255.4"/>
        <polyline class="cls-123" points="582.63 570.9 579.61 573.42 1151.07 1259.59 1154.09 1257.08"/>
        <polyline class="cls-122" points="580.61 572.58 577.59 575.1 1149.06 1261.27 1152.08 1258.75"/>
        <polyline class="cls-122" points="578.6 574.26 575.58 576.77 1147.04 1262.95 1150.07 1260.43"/>
        <polyline class="cls-122" points="576.59 575.94 573.57 578.45 1145.03 1264.62 1148.05 1262.11"/>
        <polyline class="cls-122" points="574.57 577.61 571.55 580.13 1143.02 1266.3 1146.04 1263.79"/>
        <polyline class="cls-122" points="572.56 579.29 569.54 581.81 1141 1267.98 1144.02 1265.46"/>
        <polyline class="cls-122" points="570.55 580.97 567.52 583.48 1138.99 1269.65 1142.01 1267.14"/>
        <polyline class="cls-230" points="568.53 582.64 565.51 585.16 1136.98 1271.33 1140 1268.82"/>
        <polyline class="cls-229" points="566.52 584.32 563.5 586.84 1134.96 1273.01 1137.98 1270.49"/>
        <polyline class="cls-229" points="564.5 586 561.48 588.51 1132.95 1274.69 1135.97 1272.17"/>
        <polyline class="cls-229" points="562.49 587.68 559.47 590.19 1130.94 1276.36 1133.96 1273.85"/>
        <polyline class="cls-229" points="560.48 589.35 557.46 591.87 1128.92 1278.04 1131.94 1275.52"/>
        <polyline class="cls-229" points="558.46 591.03 555.44 593.54 1126.91 1279.72 1129.93 1277.2"/>
        <polyline class="cls-228" points="556.45 592.71 553.43 595.22 1124.89 1281.39 1127.91 1278.88"/>
        <polyline class="cls-228" points="554.44 594.38 551.42 596.9 1122.88 1283.07 1125.9 1280.56"/>
        <polyline class="cls-228" points="552.42 596.06 549.4 598.58 1120.87 1284.75 1123.89 1282.23"/>
        <polyline class="cls-218" points="550.41 597.74 547.39 600.25 1118.85 1286.43 1121.87 1283.91"/>
        <polyline class="cls-218" points="548.39 599.41 545.37 601.93 1116.84 1288.1 1119.86 1285.59"/>
        <polyline class="cls-218" points="546.38 601.09 543.36 603.61 1114.82 1289.78 1117.85 1287.26"/>
        <polyline class="cls-218" points="544.37 602.77 541.35 605.28 1112.81 1291.46 1115.83 1288.94"/>
        <polyline class="cls-220" points="542.35 604.45 539.33 606.96 1110.8 1293.13 1113.82 1290.62"/>
        <polyline class="cls-220" points="540.34 606.12 537.32 608.64 1108.78 1294.81 1111.8 1292.3"/>
        <polyline class="cls-219" points="538.33 607.8 535.31 610.32 1106.77 1296.49 1109.79 1293.97"/>
        <polyline class="cls-219" points="536.31 609.48 533.29 611.99 1104.76 1298.17 1107.78 1295.65"/>
        <polyline class="cls-219" points="534.3 611.15 531.28 613.67 1102.74 1299.84 1105.76 1297.33"/>
        <polyline class="cls-208" points="532.29 612.83 529.26 615.35 1100.73 1301.52 1103.75 1299"/>
        <polyline class="cls-206" points="530.27 614.51 527.25 617.02 1098.72 1303.2 1101.74 1300.68"/>
        <polyline class="cls-206" points="528.26 616.19 525.24 618.7 1096.7 1304.87 1099.72 1302.36"/>
        <polyline class="cls-206" points="526.24 617.86 523.22 620.38 1094.69 1306.55 1097.71 1304.03"/>
        <polyline class="cls-206" points="524.23 619.54 521.21 622.06 1092.67 1308.23 1095.69 1305.71"/>
        <polyline class="cls-206" points="522.22 621.22 519.2 623.73 1090.66 1309.9 1093.68 1307.39"/>
        <polyline class="cls-206" points="520.2 622.89 517.18 625.41 1088.65 1311.58 1091.67 1309.07"/>
        <polyline class="cls-205" points="518.19 624.57 515.17 627.09 1086.63 1313.26 1089.65 1310.74"/>
        <polyline class="cls-205" points="516.17 626.25 513.15 628.76 1084.62 1314.94 1087.64 1312.42"/>
        <polyline class="cls-204" points="514.16 627.93 511.14 630.44 1082.61 1316.61 1085.63 1314.1"/>
        <polyline class="cls-204" points="512.15 629.6 509.13 632.12 1080.59 1318.29 1083.61 1315.77"/>
        <polyline class="cls-204" points="510.13 631.28 507.11 633.8 1078.58 1319.97 1081.6 1317.45"/>
        <polyline class="cls-203" points="508.12 632.96 505.1 635.47 1076.57 1321.64 1079.59 1319.13"/>
        <polyline class="cls-202" points="506.11 634.63 503.09 637.15 1074.55 1323.32 1077.57 1320.81"/>
        <polyline class="cls-202" points="504.09 636.31 501.07 638.83 1072.54 1325 1075.56 1322.48"/>
        <polyline class="cls-202" points="502.08 637.99 499.06 640.5 1070.52 1326.68 1073.54 1324.16"/>
        <polyline class="cls-202" points="500.07 639.66 497.04 642.18 1068.51 1328.35 1071.53 1325.84"/>
        <polyline class="cls-194" points="498.05 641.34 495.03 643.86 1066.5 1330.03 1069.52 1327.51"/>
        <polyline class="cls-194" points="496.04 643.02 493.02 645.53 1064.48 1331.71 1067.5 1329.19"/>
        <polyline class="cls-194" points="494.02 644.7 491 647.21 1062.47 1333.38 1065.49 1330.87"/>
        <polyline class="cls-195" points="492.01 646.37 488.99 648.89 1060.46 1335.06 1063.48 1332.55"/>
        <polyline class="cls-195" points="490 648.05 486.98 650.57 1058.44 1336.74 1061.46 1334.22"/>
        <polyline class="cls-195" points="487.98 649.73 484.96 652.24 1056.43 1338.42 1059.45 1335.9"/>
        <polyline class="cls-195" points="485.97 651.4 482.95 653.92 1054.41 1340.09 1057.44 1337.58"/>
        <polyline class="cls-195" points="483.96 653.08 480.94 655.6 1052.4 1341.77 1055.42 1339.25"/>
        <polyline class="cls-195" points="481.94 654.76 478.92 657.27 1050.39 1343.45 1053.41 1340.93"/>
        <polyline class="cls-114" points="479.93 656.44 476.91 658.95 1048.37 1345.12 1051.39 1342.61"/>
        <polyline class="cls-114" points="477.92 658.11 474.89 660.63 1046.36 1346.8 1049.38 1344.29"/>
        <polyline class="cls-114" points="475.9 659.79 472.88 662.3 1044.34 1348.48 1047.37 1345.96"/>
        <polyline class="cls-95" points="473.89 661.47 470.87 663.98 1042.33 1350.15 1045.35 1347.64"/>
        <polyline class="cls-116" points="471.87 663.14 468.85 665.66 1040.32 1351.83 1043.34 1349.32"/>
        <polyline class="cls-118" points="469.86 664.82 466.84 667.34 1038.3 1353.51 1041.32 1350.99"/>
        <polyline class="cls-117" points="467.85 666.5 464.83 669.01 1036.29 1355.19 1039.31 1352.67"/>
        <polyline class="cls-86" points="465.83 668.17 462.81 670.69 1034.28 1356.86 1037.3 1354.35"/>
        <polyline class="cls-85" points="463.82 669.85 460.8 672.37 1032.26 1358.54 1035.28 1356.02"/>
        <polyline class="cls-85" points="461.81 671.53 458.79 674.05 1030.25 1360.22 1033.27 1357.7"/>
        <polyline class="cls-85" points="459.79 673.21 456.77 675.72 1028.24 1361.89 1031.26 1359.38"/>
        <polyline class="cls-279" points="457.78 674.88 454.76 677.4 1026.22 1363.57 1029.24 1361.06"/>
        <polyline class="cls-278" points="455.76 676.56 452.74 679.08 1024.21 1365.25 1027.23 1362.73"/>
        <polyline class="cls-217" points="453.75 678.24 450.73 680.75 1022.19 1366.93 1025.22 1364.41"/>
        <polyline class="cls-217" points="451.74 679.92 448.72 682.43 1020.18 1368.6 1023.2 1366.09"/>
        <polyline class="cls-124" points="449.72 681.59 446.7 684.11 1018.17 1370.28 1021.19 1367.76"/>
        <polyline class="cls-121" points="447.71 683.27 444.69 685.78 1016.15 1371.96 1019.17 1369.44"/>
        <polyline class="cls-121" points="445.69 684.95 442.67 687.46 1014.14 1373.63 1017.16 1371.12"/>
        <polyline class="cls-120" points="443.68 686.62 440.66 689.14 1012.13 1375.31 1015.15 1372.79"/>
        <polyline class="cls-94" points="441.67 688.3 438.65 690.82 1010.11 1376.99 1013.13 1374.47"/>
        <polyline class="cls-94" points="439.65 689.98 436.63 692.49 1008.1 1378.67 1011.12 1376.15"/>
        <polyline class="cls-93" points="437.64 691.65 434.62 694.17 1006.09 1380.34 1009.11 1377.83"/>
        <polyline class="cls-91" points="435.63 693.33 432.61 695.85 1004.07 1382.02 1007.09 1379.5"/>
        <polyline class="cls-91" points="433.61 695.01 430.59 697.52 1002.06 1383.7 1005.08 1381.18"/>
        <polyline class="cls-88" points="431.6 696.69 428.58 699.2 1000.04 1385.37 1003.06 1382.86"/>
        <polyline class="cls-88" points="429.59 698.36 426.56 700.88 998.03 1387.05 1001.05 1384.53"/>
        <polyline class="cls-81" points="427.57 700.04 424.55 702.56 996.02 1388.73 999.04 1386.21"/>
        <polyline class="cls-80" points="425.56 701.72 422.54 704.23 994 1390.41 997.02 1387.89"/>
        <polyline class="cls-80" points="423.54 703.39 420.52 705.91 991.99 1392.08 995.01 1389.57"/>
        <polyline class="cls-80" points="421.53 705.07 418.51 707.59 989.98 1393.76 993 1391.24"/>
        <polyline class="cls-19" points="419.52 706.75 416.5 709.26 987.96 1395.44 990.98 1392.92"/>
        <polyline class="cls-22" points="417.5 708.42 414.48 710.94 985.95 1397.11 988.97 1394.6"/>
        <polyline class="cls-21" points="415.49 710.1 412.47 712.62 983.93 1398.79 986.96 1396.27"/>
        <polyline class="cls-21" points="413.48 711.78 410.46 714.29 981.92 1400.47 984.94 1397.95"/>
        <polyline class="cls-29" points="411.46 713.46 408.44 715.97 979.91 1402.14 982.93 1399.63"/>
        <polyline class="cls-27" points="409.45 715.13 406.43 717.65 977.89 1403.82 980.91 1401.31"/>
        <polyline class="cls-27" points="407.44 716.81 404.41 719.33 975.88 1405.5 978.9 1402.98"/>
        <polyline class="cls-210" points="405.42 718.49 402.4 721 973.87 1407.18 976.89 1404.66"/>
        <polyline class="cls-211" points="403.41 720.16 400.39 722.68 971.85 1408.85 974.87 1406.34"/>
        <polyline class="cls-211" points="401.39 721.84 398.37 724.36 969.84 1410.53 972.86 1408.01"/>
        <polyline class="cls-209" points="399.38 723.52 396.36 726.03 967.82 1412.21 970.84 1409.69"/>
        <polyline class="cls-200" points="397.37 725.2 394.35 727.71 965.81 1413.88 968.83 1411.37"/>
        <polyline class="cls-200" points="395.35 726.87 392.33 729.39 963.8 1415.56 966.82 1413.05"/>
        <polyline class="cls-201" points="393.34 728.55 390.32 731.07 961.78 1417.24 964.8 1414.72"/>
        <polyline class="cls-201" points="391.33 730.23 388.31 732.74 959.77 1418.91 962.79 1416.4"/>
        <polyline class="cls-23" points="389.31 731.9 386.29 734.42 957.76 1420.59 960.78 1418.08"/>
        <polyline class="cls-25" points="387.3 733.58 384.28 736.1 955.74 1422.27 958.76 1419.75"/>
        <polyline class="cls-25" points="385.28 735.26 382.26 737.77 953.73 1423.95 956.75 1421.43"/>
        <polyline class="cls-26" points="383.27 736.94 380.25 739.45 951.71 1425.62 954.74 1423.11"/>
        <polyline class="cls-10" points="381.26 738.61 378.24 741.13 949.7 1427.3 952.72 1424.78"/>
        <polyline class="cls-10" points="379.24 740.29 376.22 742.81 947.69 1428.98 950.71 1426.46"/>
        <polyline class="cls-11" points="377.23 741.97 374.21 744.48 945.67 1430.65 948.69 1428.14"/>
        <polyline class="cls-15" points="375.21 743.64 372.19 746.16 943.66 1432.33 946.68 1429.82"/>
        <polyline class="cls-15" points="373.2 745.32 370.18 747.84 941.65 1434.01 944.67 1431.49"/>
        <polyline class="cls-18" points="371.19 747 368.17 749.51 939.63 1435.69 942.65 1433.17"/>
        <polyline class="cls-16" points="369.17 748.68 366.15 751.19 937.62 1437.36 940.64 1434.85"/>
        <polyline class="cls-13" points="367.16 750.35 364.14 752.87 935.61 1439.04 938.63 1436.52"/>
        <polyline class="cls-13" points="365.15 752.03 362.13 754.54 933.59 1440.72 936.61 1438.2"/>
        <polyline class="cls-13" points="363.13 753.71 360.11 756.22 931.58 1442.39 934.6 1439.88"/>
        <polyline class="cls-14" points="361.12 755.38 358.1 757.9 929.56 1444.07 932.58 1441.56"/>
        <polyline class="cls-225" points="359.11 757.06 356.09 759.58 927.55 1445.75 930.57 1443.23"/>
        <polyline class="cls-224" points="357.09 758.74 354.07 761.25 925.54 1447.42 928.56 1444.91"/>
        <polyline class="cls-226" points="355.08 760.41 352.06 762.93 923.52 1449.1 926.54 1446.59"/>
        <polyline class="cls-234" points="353.06 762.09 350.04 764.61 921.51 1450.78 924.53 1448.26"/>
        <polyline class="cls-223" points="351.05 763.77 348.03 766.28 919.5 1452.46 922.52 1449.94"/>
        <polyline class="cls-223" points="349.04 765.45 346.02 767.96 917.48 1454.13 920.5 1451.62"/>
        <polyline class="cls-223" points="347.02 767.12 344 769.64 915.47 1455.81 918.49 1453.3"/>
        <polyline class="cls-215" points="345.01 768.8 341.99 771.32 913.45 1457.49 916.48 1454.97"/>
        <polyline class="cls-215" points="343 770.48 339.98 772.99 911.44 1459.17 914.46 1456.65"/>
        <polyline class="cls-215" points="340.98 772.15 337.96 774.67 909.43 1460.84 912.45 1458.33"/>
        <polyline class="cls-216" points="338.97 773.83 335.95 776.35 907.41 1462.52 910.43 1460"/>
        <polyline class="cls-78" points="336.96 775.51 333.93 778.02 905.4 1464.2 908.42 1461.68"/>
        <polyline class="cls-79" points="334.94 777.18 331.92 779.7 903.39 1465.87 906.41 1463.36"/>
        <polyline class="cls-77" points="332.93 778.86 329.91 781.38 901.37 1467.55 904.39 1465.03"/>
        <polyline class="cls-77" points="330.91 780.54 327.89 783.05 899.36 1469.23 902.38 1466.71"/>
        <polyline class="cls-241" points="328.9 782.22 325.88 784.73 897.34 1470.9 900.36 1468.39"/>
        <polyline class="cls-241" points="326.89 783.89 315.08 793.73 886.54 1479.9 898.35 1470.07"/>
      </g>
      <g class="cls-5">
        <polyline class="cls-193" points="1525.35 876.9 1524.67 876.16 921.11 1434.14 921.79 1434.88"/>
        <polyline class="cls-172" points="1526.12 877.72 1521.77 873.02 918.21 1431.01 922.56 1435.71"/>
        <polyline class="cls-172" points="1523.22 874.59 1518.87 869.88 915.31 1427.87 919.66 1432.57"/>
        <polyline class="cls-264" points="1520.32 871.45 1515.97 866.75 912.41 1424.73 916.76 1429.44"/>
        <polyline class="cls-267" points="1517.42 868.31 1513.07 863.61 909.51 1421.6 913.86 1426.3"/>
        <polyline class="cls-263" points="1514.52 865.18 1510.17 860.47 906.61 1418.46 910.96 1423.17"/>
        <polyline class="cls-239" points="1511.62 862.04 1507.27 857.34 903.71 1415.32 908.06 1420.03"/>
        <polyline class="cls-239" points="1508.72 858.9 1504.37 854.2 900.81 1412.19 905.16 1416.89"/>
        <polyline class="cls-243" points="1505.82 855.77 1501.47 851.06 897.91 1409.05 902.26 1413.76"/>
        <polyline class="cls-250" points="1502.92 852.63 1498.57 847.93 895.01 1405.91 899.36 1410.62"/>
        <polyline class="cls-250" points="1500.02 849.49 1495.67 844.79 892.11 1402.78 896.46 1407.48"/>
        <polyline class="cls-249" points="1497.12 846.36 1492.77 841.65 889.21 1399.64 893.56 1404.34"/>
        <polyline class="cls-231" points="1494.22 843.22 1489.87 838.51 886.31 1396.5 890.66 1401.21"/>
        <polyline class="cls-231" points="1491.32 840.08 1486.97 835.38 883.41 1393.37 887.76 1398.07"/>
        <polyline class="cls-247" points="1488.42 836.95 1484.07 832.24 880.51 1390.23 884.86 1394.93"/>
        <polyline class="cls-246" points="1485.52 833.81 1481.17 829.1 877.61 1387.09 881.96 1391.8"/>
        <polyline class="cls-242" points="1482.62 830.67 1478.27 825.97 874.71 1383.96 879.06 1388.66"/>
        <polyline class="cls-241" points="1479.72 827.54 1475.37 822.83 871.81 1380.82 876.16 1385.52"/>
        <polyline class="cls-241" points="1476.82 824.4 1472.47 819.7 868.91 1377.68 873.26 1382.39"/>
        <polyline class="cls-152" points="1473.92 821.26 1469.57 816.56 866.01 1374.55 870.36 1379.25"/>
        <polyline class="cls-153" points="1471.02 818.13 1466.67 813.42 863.11 1371.41 867.46 1376.11"/>
        <polyline class="cls-153" points="1468.12 814.99 1463.77 810.28 860.21 1368.27 864.56 1372.98"/>
        <polyline class="cls-269" points="1465.22 811.85 1460.87 807.15 857.31 1365.14 861.66 1369.84"/>
        <polyline class="cls-269" points="1462.32 808.72 1457.97 804.01 854.41 1362 858.76 1366.7"/>
        <polyline class="cls-270" points="1459.42 805.58 1455.07 800.87 851.51 1358.86 855.86 1363.57"/>
        <polyline class="cls-272" points="1456.52 802.44 1452.17 797.74 848.61 1355.73 852.96 1360.43"/>
        <polyline class="cls-272" points="1453.62 799.31 1449.27 794.6 845.71 1352.59 850.06 1357.29"/>
        <polyline class="cls-271" points="1450.72 796.17 1446.37 791.46 842.81 1349.45 847.16 1354.16"/>
        <polyline class="cls-244" points="1447.82 793.03 1443.47 788.33 839.91 1346.31 844.26 1351.02"/>
        <polyline class="cls-244" points="1444.92 789.9 1440.57 785.19 837.01 1343.18 841.36 1347.88"/>
        <polyline class="cls-232" points="1442.02 786.76 1437.67 782.05 834.11 1340.04 838.46 1344.75"/>
        <polyline class="cls-232" points="1439.12 783.62 1434.77 778.92 831.21 1336.9 835.56 1341.61"/>
        <polyline class="cls-254" points="1436.22 780.48 1431.87 775.78 828.31 1333.77 832.66 1338.47"/>
        <polyline class="cls-259" points="1433.32 777.35 1428.97 772.64 825.41 1330.63 829.76 1335.34"/>
        <polyline class="cls-259" points="1430.42 774.21 1426.07 769.51 822.51 1327.49 826.86 1332.2"/>
        <polyline class="cls-235" points="1427.52 771.07 1423.17 766.37 819.61 1324.36 823.96 1329.06"/>
        <polyline class="cls-280" points="1424.62 767.94 1420.27 763.23 816.71 1321.22 821.06 1325.93"/>
        <polyline class="cls-280" points="1421.72 764.8 1417.37 760.1 813.81 1318.08 818.16 1322.79"/>
        <polyline class="cls-281" points="1418.82 761.67 1414.47 756.96 810.91 1314.95 815.26 1319.65"/>
        <polyline class="cls-281" points="1415.92 758.53 1411.57 753.82 808.01 1311.81 812.36 1316.52"/>
        <polyline class="cls-266" points="1413.03 755.39 1408.68 750.69 805.11 1308.67 809.46 1313.38"/>
        <polyline class="cls-256" points="1410.12 752.25 1405.78 747.55 802.21 1305.54 806.56 1310.24"/>
        <polyline class="cls-256" points="1407.22 749.12 1402.87 744.41 799.31 1302.4 803.66 1307.11"/>
        <polyline class="cls-255" points="1404.33 745.98 1399.98 741.28 796.41 1299.26 800.76 1303.97"/>
        <polyline class="cls-260" points="1401.43 742.84 1397.08 738.14 793.51 1296.13 797.86 1300.83"/>
        <polyline class="cls-261" points="1398.52 739.71 1394.18 735 790.61 1292.99 794.96 1297.7"/>
        <polyline class="cls-258" points="1395.63 736.57 1391.28 731.87 787.71 1289.85 792.06 1294.56"/>
        <polyline class="cls-258" points="1392.73 733.43 1388.38 728.73 784.81 1286.72 789.16 1291.42"/>
        <polyline class="cls-240" points="1389.83 730.3 1385.48 725.59 781.91 1283.58 786.26 1288.28"/>
        <polyline class="cls-233" points="1386.93 727.16 1382.58 722.46 779.01 1280.44 783.36 1285.15"/>
        <polyline class="cls-233" points="1384.03 724.02 1379.68 719.32 776.11 1277.31 780.46 1282.01"/>
        <polyline class="cls-257" points="1381.13 720.89 1376.78 716.18 773.21 1274.17 777.56 1278.87"/>
        <polyline class="cls-238" points="1378.23 717.75 1373.88 713.05 770.31 1271.03 774.66 1275.74"/>
        <polyline class="cls-238" points="1375.33 714.61 1370.98 709.91 767.41 1267.9 771.76 1272.6"/>
        <polyline class="cls-262" points="1372.43 711.48 1368.08 706.77 764.51 1264.76 768.86 1269.46"/>
        <polyline class="cls-262" points="1369.53 708.34 1365.18 703.64 761.61 1261.62 765.96 1266.33"/>
        <polyline class="cls-268" points="1366.63 705.2 1362.28 700.5 758.71 1258.49 763.06 1263.19"/>
        <polyline class="cls-289" points="1363.73 702.07 1359.38 697.36 755.81 1255.35 760.16 1260.05"/>
        <polyline class="cls-289" points="1360.83 698.93 1356.48 694.23 752.91 1252.21 757.26 1256.92"/>
        <polyline class="cls-237" points="1357.93 695.79 1353.58 691.09 750.01 1249.08 754.36 1253.78"/>
        <polyline class="cls-283" points="1355.03 692.66 1350.68 687.95 747.11 1245.94 751.46 1250.64"/>
        <polyline class="cls-283" points="1352.13 689.52 1347.78 684.81 744.21 1242.8 748.56 1247.51"/>
        <polyline class="cls-275" points="1349.23 686.38 1344.88 681.68 741.31 1239.67 745.66 1244.37"/>
        <polyline class="cls-275" points="1346.33 683.25 1341.98 678.54 738.41 1236.53 742.76 1241.23"/>
        <polyline class="cls-277" points="1343.43 680.11 1339.08 675.4 735.51 1233.39 739.86 1238.1"/>
        <polyline class="cls-284" points="1340.53 676.97 1336.18 672.27 732.61 1230.25 736.96 1234.96"/>
        <polyline class="cls-284" points="1337.63 673.84 1333.28 669.13 729.71 1227.12 734.06 1231.82"/>
        <polyline class="cls-286" points="1334.73 670.7 1330.38 665.99 726.81 1223.98 731.16 1228.69"/>
        <polyline class="cls-282" points="1331.83 667.56 1327.48 662.86 723.91 1220.84 728.26 1225.55"/>
        <polyline class="cls-282" points="1328.93 664.43 1324.58 659.72 721.01 1217.71 725.36 1222.41"/>
        <polyline class="cls-245" points="1326.03 661.29 1321.68 656.58 718.11 1214.57 722.46 1219.28"/>
        <polyline class="cls-287" points="1323.13 658.15 1318.78 653.45 715.21 1211.43 719.56 1216.14"/>
        <polyline class="cls-252" points="1320.23 655.02 1315.88 650.31 712.31 1208.3 716.66 1213"/>
        <polyline class="cls-253" points="1317.33 651.88 1312.98 647.17 709.41 1205.16 713.76 1209.87"/>
        <polyline class="cls-236" points="1314.43 648.74 1310.08 644.04 706.52 1202.02 710.87 1206.73"/>
        <polyline class="cls-265" points="1311.53 645.61 1307.18 640.9 703.61 1198.89 707.96 1203.59"/>
        <polyline class="cls-251" points="1308.63 642.47 1304.28 637.76 700.71 1195.75 705.06 1200.46"/>
        <polyline class="cls-251" points="1305.73 639.33 1301.38 634.63 697.82 1192.61 702.17 1197.32"/>
        <polyline class="cls-290" points="1302.83 636.2 1298.48 631.49 694.92 1189.48 699.27 1194.18"/>
        <polyline class="cls-285" points="1299.93 633.06 1295.58 628.35 692.02 1186.34 696.36 1191.05"/>
        <polyline class="cls-276" points="1297.03 629.92 1292.68 625.22 689.12 1183.2 693.47 1187.91"/>
        <polyline class="cls-274" points="1294.13 626.78 1289.78 622.08 686.22 1180.07 690.57 1184.77"/>
        <polyline class="cls-291" points="1291.23 623.65 1286.88 618.94 683.32 1176.93 687.67 1181.64"/>
        <polyline class="cls-102" points="1288.33 620.51 1283.98 615.81 680.42 1173.79 684.77 1178.5"/>
        <polyline class="cls-107" points="1285.43 617.37 1281.08 612.67 677.52 1170.66 681.87 1175.36"/>
        <polyline class="cls-107" points="1282.53 614.24 1278.18 609.53 674.62 1167.52 678.97 1172.22"/>
        <polyline class="cls-112" points="1279.63 611.1 1275.28 606.4 671.72 1164.38 676.07 1169.09"/>
        <polyline class="cls-168" points="1276.73 607.96 1272.38 603.26 668.82 1161.25 673.17 1165.95"/>
        <polyline class="cls-164" points="1273.83 604.83 1269.48 600.12 665.92 1158.11 670.27 1162.81"/>
        <polyline class="cls-165" points="1270.93 601.69 1266.58 596.99 663.02 1154.97 667.37 1159.68"/>
        <polyline class="cls-165" points="1268.03 598.55 1263.68 593.85 660.12 1151.84 664.47 1156.54"/>
        <polyline class="cls-213" points="1265.13 595.42 1260.78 590.71 657.22 1148.7 661.57 1153.4"/>
        <polyline class="cls-212" points="1262.23 592.28 1257.88 587.58 654.32 1145.56 658.67 1150.27"/>
        <polyline class="cls-167" points="1259.33 589.14 1254.98 584.44 651.42 1142.43 655.77 1147.13"/>
        <polyline class="cls-167" points="1256.43 586.01 1252.08 581.3 648.52 1139.29 652.87 1143.99"/>
        <polyline class="cls-99" points="1253.53 582.87 1249.18 578.17 645.62 1136.15 649.97 1140.86"/>
        <polyline class="cls-163" points="1250.63 579.73 1246.28 575.03 642.72 1133.02 647.07 1137.72"/>
        <polyline class="cls-158" points="1247.73 576.6 1243.38 571.89 639.82 1129.88 644.17 1134.58"/>
        <polyline class="cls-158" points="1244.83 573.46 1240.48 568.75 636.92 1126.74 641.27 1131.45"/>
        <polyline class="cls-160" points="1241.93 570.32 1237.58 565.62 634.02 1123.61 638.37 1128.31"/>
        <polyline class="cls-156" points="1239.03 567.19 1234.68 562.48 631.12 1120.47 635.47 1125.17"/>
        <polyline class="cls-111" points="1236.13 564.05 1231.78 559.34 628.22 1117.33 632.57 1122.04"/>
        <polyline class="cls-111" points="1233.23 560.91 1228.88 556.21 625.32 1114.19 629.67 1118.9"/>
        <polyline class="cls-109" points="1230.33 557.78 1225.98 553.07 622.42 1111.06 626.77 1115.76"/>
        <polyline class="cls-98" points="1227.43 554.64 1223.08 549.93 619.52 1107.92 623.87 1112.63"/>
        <polyline class="cls-96" points="1224.53 551.5 1220.18 546.8 616.62 1104.78 620.97 1109.49"/>
        <polyline class="cls-106" points="1221.63 548.37 1217.28 543.66 613.72 1101.65 618.07 1106.35"/>
        <polyline class="cls-106" points="1218.73 545.23 1214.38 540.52 610.82 1098.51 615.17 1103.22"/>
        <polyline class="cls-108" points="1215.83 542.09 1211.48 537.39 607.92 1095.37 612.27 1100.08"/>
        <polyline class="cls-110" points="1212.93 538.96 1208.58 534.25 605.02 1092.24 609.37 1096.94"/>
        <polyline class="cls-100" points="1210.03 535.82 1205.68 531.11 602.12 1089.1 606.47 1093.81"/>
        <polyline class="cls-100" points="1207.13 532.68 1202.78 527.98 599.22 1085.96 603.57 1090.67"/>
        <polyline class="cls-101" points="1204.23 529.55 1199.88 524.84 596.32 1082.83 600.67 1087.53"/>
        <polyline class="cls-166" points="1201.33 526.41 1196.98 521.7 593.42 1079.69 597.77 1084.4"/>
        <polyline class="cls-161" points="1198.43 523.27 1194.08 518.57 590.52 1076.55 594.87 1081.26"/>
        <polyline class="cls-161" points="1195.53 520.14 1191.18 515.43 587.62 1073.42 591.97 1078.12"/>
        <polyline class="cls-157" points="1192.63 517 1188.28 512.29 584.72 1070.28 589.07 1074.99"/>
        <polyline class="cls-159" points="1189.73 513.86 1185.38 509.16 581.82 1067.14 586.17 1071.85"/>
        <polyline class="cls-113" points="1186.83 510.72 1182.48 506.02 578.92 1064.01 583.27 1068.71"/>
        <polyline class="cls-113" points="1183.93 507.59 1179.58 502.88 576.02 1060.87 580.37 1065.58"/>
        <polyline class="cls-105" points="1181.03 504.45 1176.68 499.75 573.12 1057.73 577.47 1062.44"/>
        <polyline class="cls-104" points="1178.13 501.31 1173.78 496.61 570.22 1054.6 574.57 1059.3"/>
        <polyline class="cls-103" points="1175.23 498.18 1170.88 493.47 567.32 1051.46 571.67 1056.16"/>
        <polyline class="cls-97" points="1172.33 495.04 1167.98 490.34 564.42 1048.32 568.77 1053.03"/>
        <polyline class="cls-97" points="1169.43 491.9 1165.08 487.2 561.52 1045.19 565.87 1049.89"/>
        <polyline class="cls-171" points="1166.53 488.77 1162.18 484.06 558.62 1042.05 562.97 1046.75"/>
        <polyline class="cls-178" points="1163.63 485.63 1159.28 480.93 555.72 1038.91 560.07 1043.62"/>
        <polyline class="cls-178" points="1160.73 482.49 1156.38 477.79 552.82 1035.78 557.17 1040.48"/>
        <polyline class="cls-177" points="1157.83 479.36 1153.48 474.65 549.92 1032.64 554.27 1037.35"/>
        <polyline class="cls-177" points="1154.93 476.22 1150.58 471.52 547.02 1029.5 551.37 1034.21"/>
        <polyline class="cls-180" points="1152.03 473.08 1147.68 468.38 544.12 1026.37 548.47 1031.07"/>
        <polyline class="cls-180" points="1149.13 469.95 1144.78 465.24 541.22 1023.23 545.57 1027.93"/>
        <polyline class="cls-179" points="1146.24 466.81 1141.89 462.11 538.32 1020.09 542.67 1024.8"/>
        <polyline class="cls-173" points="1143.33 463.67 1138.99 458.97 535.42 1016.96 539.77 1021.66"/>
        <polyline class="cls-173" points="1140.43 460.54 1136.08 455.83 532.52 1013.82 536.87 1018.52"/>
        <polyline class="cls-186" points="1137.54 457.4 1133.19 452.69 529.62 1010.68 533.97 1015.39"/>
        <polyline class="cls-186" points="1134.64 454.26 1130.29 449.56 526.72 1007.55 531.07 1012.25"/>
        <polyline class="cls-189" points="1131.73 451.13 1127.39 446.42 523.82 1004.41 528.17 1009.11"/>
        <polyline class="cls-188" points="1128.84 447.99 1124.49 443.28 520.92 1001.27 525.27 1005.98"/>
        <polyline class="cls-188" points="1125.94 444.85 1121.59 440.15 518.02 998.14 522.37 1002.84"/>
        <polyline class="cls-191" points="1123.04 441.72 1118.69 437.01 515.12 995 519.47 999.7"/>
        <polyline class="cls-191" points="1120.14 438.58 1115.79 433.87 512.22 991.86 516.57 996.57"/>
        <polyline class="cls-190" points="1117.24 435.44 1112.89 430.74 509.32 988.72 513.67 993.43"/>
        <polyline class="cls-190" points="1114.34 432.31 1109.99 427.6 506.42 985.59 510.77 990.29"/>
        <polyline class="cls-187" points="1111.44 429.17 1107.09 424.46 503.52 982.45 507.87 987.16"/>
        <polyline class="cls-192" points="1108.54 426.03 1104.19 421.33 500.62 979.32 504.97 984.02"/>
        <polyline class="cls-192" points="1105.64 422.9 1101.29 418.19 497.72 976.18 502.07 980.88"/>
        <polyline class="cls-131" points="1102.74 419.76 1098.39 415.05 494.82 973.04 499.17 977.75"/>
        <polyline class="cls-131" points="1099.84 416.62 1095.49 411.92 491.92 969.91 496.27 974.61"/>
        <polyline class="cls-143" points="1096.94 413.49 1092.59 408.78 489.02 966.77 493.37 971.47"/>
        <polyline class="cls-143" points="1094.04 410.35 1089.69 405.64 486.12 963.63 490.47 968.34"/>
        <polyline class="cls-132" points="1091.14 407.21 1086.79 402.51 483.22 960.49 487.57 965.2"/>
        <polyline class="cls-144" points="1088.24 404.08 1083.89 399.37 480.32 957.36 484.67 962.06"/>
        <polyline class="cls-144" points="1085.34 400.94 1080.99 396.23 477.42 954.22 481.77 958.93"/>
        <polyline class="cls-135" points="1082.44 397.8 1078.09 393.1 474.52 951.08 478.87 955.79"/>
        <polyline class="cls-135" points="1079.54 394.66 1075.19 389.96 471.62 947.95 475.97 952.65"/>
        <polyline class="cls-126" points="1076.64 391.53 1072.29 386.82 468.72 944.81 473.07 949.52"/>
        <polyline class="cls-126" points="1073.74 388.39 1069.39 383.69 465.82 941.67 470.17 946.38"/>
        <polyline class="cls-145" points="1070.84 385.25 1066.49 380.55 462.92 938.54 467.27 943.24"/>
        <polyline class="cls-142" points="1067.94 382.12 1063.59 377.41 460.02 935.4 464.37 940.11"/>
        <polyline class="cls-142" points="1065.04 378.98 1060.69 374.28 457.12 932.26 461.47 936.97"/>
        <polyline class="cls-138" points="1062.14 375.85 1057.79 371.14 454.22 929.13 458.57 933.83"/>
        <polyline class="cls-138" points="1059.24 372.71 1054.89 368 451.33 925.99 455.68 930.7"/>
        <polyline class="cls-134" points="1056.34 369.57 1051.99 364.87 448.42 922.85 452.77 927.56"/>
        <polyline class="cls-129" points="1053.44 366.43 1049.09 361.73 445.52 919.72 449.87 924.42"/>
        <polyline class="cls-129" points="1050.54 363.3 1046.19 358.59 442.62 916.58 446.98 921.29"/>
        <polyline class="cls-137" points="1047.64 360.16 1043.29 355.46 439.73 913.44 444.08 918.15"/>
        <polyline class="cls-137" points="1044.74 357.02 1040.39 352.32 436.82 910.31 441.17 915.01"/>
        <polyline class="cls-130" points="1041.84 353.89 1037.49 349.18 433.93 907.17 438.27 911.88"/>
        <polyline class="cls-130" points="1038.94 350.75 1034.59 346.05 431.03 904.03 435.38 908.74"/>
        <polyline class="cls-128" points="1036.04 347.61 1031.69 342.91 428.13 900.9 432.48 905.6"/>
        <polyline class="cls-136" points="1033.14 344.48 1028.79 339.77 425.23 897.76 429.58 902.46"/>
        <polyline class="cls-136" points="1030.24 341.34 1025.89 336.64 422.33 894.62 426.68 899.33"/>
        <polyline class="cls-133" points="1027.34 338.2 1022.99 333.5 419.43 891.49 423.78 896.19"/>
        <polyline class="cls-133" points="1024.44 335.07 1020.09 330.36 416.53 888.35 420.88 893.05"/>
        <polyline class="cls-141" points="1021.54 331.93 1017.19 327.22 413.63 885.21 417.98 889.92"/>
        <polyline class="cls-141" points="1018.64 328.79 1014.29 324.09 410.73 882.08 415.08 886.78"/>
        <polyline class="cls-174" points="1015.74 325.66 1011.39 320.95 407.83 878.94 412.18 883.64"/>
        <polyline class="cls-176" points="1012.84 322.52 1008.49 317.82 404.93 875.8 409.28 880.51"/>
        <polyline class="cls-176" points="1009.94 319.38 1005.59 314.68 402.03 872.67 406.38 877.37"/>
        <polyline class="cls-185" points="1007.04 316.25 1002.69 311.54 399.13 869.53 403.48 874.23"/>
        <polyline class="cls-185" points="1004.14 313.11 999.79 308.4 396.23 866.39 400.58 871.1"/>
        <polyline class="cls-175" points="1001.24 309.97 996.89 305.27 393.33 863.26 397.68 867.96"/>
        <polyline class="cls-175" points="998.34 306.84 993.99 302.13 390.43 860.12 394.78 864.82"/>
        <polyline class="cls-183" points="995.44 303.7 991.09 298.99 387.53 856.98 391.88 861.69"/>
        <polyline class="cls-184" points="992.54 300.56 988.19 295.86 384.63 853.85 388.98 858.55"/>
        <polyline class="cls-184" points="989.64 297.43 985.29 292.72 381.73 850.71 386.08 855.41"/>
        <polyline class="cls-181" points="986.74 294.29 982.39 289.58 378.83 847.57 383.18 852.28"/>
        <polyline class="cls-181" points="983.84 291.15 979.49 286.45 375.93 844.43 380.28 849.14"/>
        <polyline class="cls-182" points="980.94 288.02 976.59 283.31 373.03 841.3 377.38 846"/>
        <polyline class="cls-140" points="978.04 284.88 973.69 280.17 370.13 838.16 374.48 842.87"/>
        <polyline class="cls-140" points="975.14 281.74 970.79 277.04 367.23 835.02 371.58 839.73"/>
        <polyline class="cls-148" points="972.24 278.61 967.89 273.9 364.33 831.89 368.68 836.59"/>
        <polyline class="cls-148" points="969.34 275.47 964.99 270.76 361.43 828.75 365.78 833.46"/>
        <polyline class="cls-150" points="966.44 272.33 962.09 267.63 358.53 825.61 362.88 830.32"/>
        <polyline class="cls-150" points="963.54 269.2 959.19 264.49 355.63 822.48 359.98 827.18"/>
        <polyline class="cls-139" points="960.64 266.06 956.29 261.35 352.73 819.34 357.08 824.05"/>
        <polyline class="cls-146" points="957.74 262.92 953.39 258.22 349.83 816.2 354.18 820.91"/>
        <polyline class="cls-146" points="954.84 259.78 950.49 255.08 346.93 813.07 351.28 817.77"/>
        <polyline class="cls-127" points="951.94 256.65 947.59 251.94 344.03 809.93 348.38 814.64"/>
        <polyline class="cls-127" points="949.04 253.51 944.69 248.81 341.13 806.79 345.48 811.5"/>
        <polyline class="cls-149" points="946.14 250.38 941.79 245.67 338.23 803.66 342.58 808.36"/>
        <polyline class="cls-149" points="943.24 247.24 938.89 242.53 335.33 800.52 339.68 805.23"/>
        <polyline class="cls-147" points="940.34 244.1 935.99 239.4 332.43 797.38 336.78 802.09"/>
        <polyline class="cls-151" points="937.44 240.96 933.09 236.26 329.53 794.25 333.88 798.95"/>
        <polyline class="cls-151" points="934.54 237.83 932.88 236.03 329.32 794.02 330.98 795.82"/>
      </g>
    </g>
  </g>
</svg>