<?xml version="1.0" encoding="UTF-8"?>
<svg id="Layer_1" data-name="Layer 1" xmlns="http://www.w3.org/2000/svg" xmlns:xlink="http://www.w3.org/1999/xlink" viewBox="0 0 1764.99 2185.49">
  <defs>
    <style>
      .cls-1 {
        fill: url(#linear-gradient);
      }

      .cls-2 {
        clip-path: url(#clippath);
      }

      .cls-3 {
        clip-rule: evenodd;
        fill: none;
      }

      .cls-4 {
        clip-path: url(#clippath-1);
      }

      .cls-5 {
        clip-path: url(#clippath-4);
      }

      .cls-6 {
        clip-path: url(#clippath-3);
      }

      .cls-7 {
        clip-path: url(#clippath-2);
      }

      .cls-8 {
        clip-path: url(#clippath-5);
      }

      .cls-9 {
        fill: url(#linear-gradient-2);
      }

      .cls-10 {
        fill: #f7f7f7;
      }

      .cls-10, .cls-11, .cls-12, .cls-13, .cls-14, .cls-15, .cls-16, .cls-17, .cls-18, .cls-19, .cls-20, .cls-21, .cls-22, .cls-23, .cls-24, .cls-25, .cls-26, .cls-27, .cls-28, .cls-29, .cls-30, .cls-31, .cls-32, .cls-33, .cls-34, .cls-35, .cls-36, .cls-37, .cls-38, .cls-39, .cls-40, .cls-41, .cls-42, .cls-43, .cls-44, .cls-45, .cls-46, .cls-47, .cls-48, .cls-49, .cls-50, .cls-51, .cls-52, .cls-53, .cls-54, .cls-55, .cls-56, .cls-57, .cls-58, .cls-59, .cls-60, .cls-61, .cls-62, .cls-63, .cls-64, .cls-65, .cls-66, .cls-67, .cls-68, .cls-69, .cls-70, .cls-71, .cls-72, .cls-73, .cls-74, .cls-75, .cls-76, .cls-77, .cls-78, .cls-79, .cls-80, .cls-81, .cls-82, .cls-83, .cls-84, .cls-85, .cls-86, .cls-87, .cls-88, .cls-89, .cls-90, .cls-91, .cls-92, .cls-93, .cls-94, .cls-95, .cls-96, .cls-97, .cls-98, .cls-99, .cls-100, .cls-101, .cls-102, .cls-103, .cls-104, .cls-105, .cls-106, .cls-107, .cls-108, .cls-109, .cls-110, .cls-111, .cls-112, .cls-113, .cls-114, .cls-115, .cls-116, .cls-117, .cls-118, .cls-119, .cls-120, .cls-121, .cls-122, .cls-123, .cls-124, .cls-125, .cls-126, .cls-127, .cls-128, .cls-129, .cls-130, .cls-131, .cls-132, .cls-133, .cls-134, .cls-135, .cls-136, .cls-137, .cls-138, .cls-139, .cls-140, .cls-141, .cls-142, .cls-143, .cls-144, .cls-145, .cls-146, .cls-147, .cls-148, .cls-149, .cls-150, .cls-151, .cls-152, .cls-153, .cls-154, .cls-155, .cls-156, .cls-157, .cls-158, .cls-159, .cls-160, .cls-161, .cls-162, .cls-163, .cls-164, .cls-165, .cls-166, .cls-167, .cls-168, .cls-169, .cls-170, .cls-171, .cls-172, .cls-173, .cls-174, .cls-175, .cls-176, .cls-177, .cls-178, .cls-179, .cls-180, .cls-181, .cls-182, .cls-183, .cls-184, .cls-185, .cls-186, .cls-187, .cls-188, .cls-189, .cls-190, .cls-191, .cls-192, .cls-193, .cls-194, .cls-195, .cls-196, .cls-197, .cls-198, .cls-199, .cls-200, .cls-201, .cls-202, .cls-203, .cls-204, .cls-205, .cls-206, .cls-207, .cls-208, .cls-209, .cls-210, .cls-211, .cls-212, .cls-213, .cls-214, .cls-215, .cls-216, .cls-217, .cls-218, .cls-219, .cls-220, .cls-221, .cls-222, .cls-223, .cls-224, .cls-225, .cls-226, .cls-227, .cls-228, .cls-229, .cls-230, .cls-231, .cls-232, .cls-233, .cls-234, .cls-235, .cls-236, .cls-237, .cls-238, .cls-239, .cls-240, .cls-241, .cls-242, .cls-243, .cls-244, .cls-245, .cls-246, .cls-247, .cls-248, .cls-249, .cls-250, .cls-251, .cls-252, .cls-253, .cls-254, .cls-255, .cls-256, .cls-257, .cls-258, .cls-259, .cls-260, .cls-261, .cls-262, .cls-263, .cls-264, .cls-265, .cls-266, .cls-267, .cls-268, .cls-269, .cls-270, .cls-271, .cls-272, .cls-273, .cls-274, .cls-275, .cls-276, .cls-277, .cls-278, .cls-279, .cls-280, .cls-281, .cls-282, .cls-283, .cls-284, .cls-285, .cls-286, .cls-287, .cls-288, .cls-289, .cls-290, .cls-291, .cls-292 {
        fill-rule: evenodd;
      }

      .cls-11 {
        fill: #f8a40b;
      }

      .cls-12 {
        fill: #f8a50b;
      }

      .cls-13 {
        fill: #f9f9f9;
      }

      .cls-14 {
        fill: #faa70a;
      }

      .cls-15 {
        fill: #faa80a;
      }

      .cls-16 {
        fill: #f9a50b;
      }

      .cls-17 {
        fill: #f9a60a;
      }

      .cls-18 {
        fill: #f8f8f8;
      }

      .cls-19 {
        fill: #f9a60b;
      }

      .cls-20 {
        fill: #f39d0f;
      }

      .cls-21 {
        fill: #f2f2f2;
      }

      .cls-22 {
        fill: #f39e0e;
      }

      .cls-23 {
        fill: #f39d0e;
      }

      .cls-24 {
        fill: #f7a20c;
      }

      .cls-25 {
        fill: #f6f6f6;
      }

      .cls-26 {
        fill: #f7a30c;
      }

      .cls-27 {
        fill: #f7a40c;
      }

      .cls-28 {
        fill: #f49f0e;
      }

      .cls-29 {
        fill: #f3f3f3;
      }

      .cls-30 {
        fill: #f49e0e;
      }

      .cls-31 {
        fill: #df811b;
      }

      .cls-32 {
        fill: #dc7d1c;
      }

      .cls-33 {
        fill: #dc7d1d;
      }

      .cls-34 {
        fill: #dc7e1c;
      }

      .cls-35 {
        fill: #df821a;
      }

      .cls-36 {
        fill: #e1e1e1;
      }

      .cls-37 {
        fill: #e28619;
      }

      .cls-38 {
        fill: #e28618;
      }

      .cls-39 {
        fill: #e28519;
      }

      .cls-40 {
        fill: #de811b;
      }

      .cls-41 {
        fill: #dfdfdf;
      }

      .cls-42 {
        fill: #d77620;
      }

      .cls-43 {
        fill: #d7761f;
      }

      .cls-44 {
        fill: #e18519;
      }

      .cls-45 {
        fill: #e1841a;
      }

      .cls-46 {
        fill: #e18419;
      }

      .cls-47 {
        fill: #d7771f;
      }

      .cls-48 {
        fill: #d67620;
      }

      .cls-49 {
        fill: #d67520;
      }

      .cls-50 {
        fill: #dd7e1c;
      }

      .cls-51 {
        fill: #dd7f1b;
      }

      .cls-52 {
        fill: #dcdcdc;
      }

      .cls-53 {
        fill: #dd7f1c;
      }

      .cls-54 {
        fill: #dbdbdb;
      }

      .cls-55 {
        fill: #db7c1d;
      }

      .cls-56 {
        fill: #db7d1d;
      }

      .cls-57 {
        fill: #da7a1e;
      }

      .cls-58 {
        fill: #dadada;
      }

      .cls-59 {
        fill: #e0821a;
      }

      .cls-60 {
        fill: #db7b1d;
      }

      .cls-61 {
        fill: #e0841a;
      }

      .cls-62 {
        fill: #d9d9d9;
      }

      .cls-63 {
        fill: #da7b1d;
      }

      .cls-64 {
        fill: #da7b1e;
      }

      .cls-65 {
        fill: #e0831a;
      }

      .cls-66 {
        fill: #e0e0e0;
      }

      .cls-67 {
        fill: #dedede;
      }

      .cls-68 {
        fill: #e38818;
      }

      .cls-69 {
        fill: #e38618;
      }

      .cls-70 {
        fill: #e38718;
      }

      .cls-71 {
        fill: #de801b;
      }

      .cls-72 {
        fill: #ddd;
      }

      .cls-73 {
        fill: #d8771f;
      }

      .cls-74 {
        fill: #d8781f;
      }

      .cls-75 {
        fill: #d97a1e;
      }

      .cls-76 {
        fill: #d9791e;
      }

      .cls-77 {
        fill: #fdfdfd;
      }

      .cls-78 {
        fill: #fead07;
      }

      .cls-79 {
        fill: #feac08;
      }

      .cls-80 {
        fill: #fead08;
      }

      .cls-81 {
        fill: #f29c0f;
      }

      .cls-82 {
        fill: #f29b0f;
      }

      .cls-83 {
        fill: #f0f0f0;
      }

      .cls-84 {
        fill: #eaeaea;
      }

      .cls-85 {
        fill: #ebebeb;
      }

      .cls-86 {
        fill: #ed9512;
      }

      .cls-87 {
        fill: #ed9412;
      }

      .cls-88 {
        fill: #eee;
      }

      .cls-89 {
        fill: #f19b0f;
      }

      .cls-90 {
        fill: #e4e4e4;
      }

      .cls-91 {
        fill: #efefef;
      }

      .cls-92 {
        fill: #f19a10;
      }

      .cls-93 {
        fill: #f1f1f1;
      }

      .cls-94 {
        fill: #f09a10;
      }

      .cls-95 {
        fill: #f09910;
      }

      .cls-96 {
        fill: #eb9313;
      }

      .cls-97 {
        fill: #ffea11;
      }

      .cls-98 {
        fill: #fff813;
      }

      .cls-99 {
        fill: #ffe910;
      }

      .cls-100 {
        fill: #ffe20f;
      }

      .cls-101 {
        fill: #fe1;
      }

      .cls-102 {
        fill: #ffef11;
      }

      .cls-103 {
        fill: #ffd90e;
      }

      .cls-104 {
        fill: #fff713;
      }

      .cls-105 {
        fill: #fff613;
      }

      .cls-106 {
        fill: #fff512;
      }

      .cls-107 {
        fill: #ffeb11;
      }

      .cls-108 {
        fill: #ffda0e;
      }

      .cls-109 {
        fill: #ffec11;
      }

      .cls-110 {
        fill: #ffe810;
      }

      .cls-111 {
        fill: #ffed11;
      }

      .cls-112 {
        fill: #ffe710;
      }

      .cls-113 {
        fill: #ffdb0e;
      }

      .cls-114 {
        fill: #fff412;
      }

      .cls-115 {
        fill: #eb9213;
      }

      .cls-116 {
        fill: #e8e8e8;
      }

      .cls-117 {
        fill: #ec9313;
      }

      .cls-118 {
        fill: #ec9412;
      }

      .cls-119 {
        fill: #ec9413;
      }

      .cls-120 {
        fill: #e3e3e3;
      }

      .cls-121 {
        fill: #ef9810;
      }

      .cls-122 {
        fill: #ef9811;
      }

      .cls-123 {
        fill: #e58a17;
      }

      .cls-124 {
        fill: #e58917;
      }

      .cls-125 {
        fill: #ef9711;
      }

      .cls-126 {
        fill: #e48917;
      }

      .cls-127 {
        fill: #fffa25;
      }

      .cls-128 {
        fill: #fffb3e;
      }

      .cls-129 {
        fill: #fffa2d;
      }

      .cls-130 {
        fill: #fffa2a;
      }

      .cls-131 {
        fill: #fffa2c;
      }

      .cls-132 {
        fill: #fffa20;
      }

      .cls-133 {
        fill: #fffa22;
      }

      .cls-134 {
        fill: #fffa2f;
      }

      .cls-135 {
        fill: #fffa29;
      }

      .cls-136 {
        fill: #fffa24;
      }

      .cls-137 {
        fill: #fffa2e;
      }

      .cls-138 {
        fill: #fffa2b;
      }

      .cls-139 {
        fill: #fffa28;
      }

      .cls-140 {
        fill: #fffb3c;
      }

      .cls-141 {
        fill: #fffb39;
      }

      .cls-142 {
        fill: #fffa30;
      }

      .cls-143 {
        fill: #fffa27;
      }

      .cls-144 {
        fill: #fffa21;
      }

      .cls-145 {
        fill: #fffa23;
      }

      .cls-146 {
        fill: #fffa26;
      }

      .cls-147 {
        fill: #fffb3d;
      }

      .cls-148 {
        fill: #fffb40;
      }

      .cls-149 {
        fill: #fffb3a;
      }

      .cls-150 {
        fill: #fffb3f;
      }

      .cls-151 {
        fill: #fffb3b;
      }

      .cls-152 {
        fill: #fffb41;
      }

      .cls-153 {
        fill: #ffaf07;
      }

      .cls-154 {
        fill: #ffb007;
      }

      .cls-155 {
        fill: #e48818;
      }

      .cls-156 {
        fill: #e48817;
      }

      .cls-157 {
        fill: #ffe610;
      }

      .cls-158 {
        fill: #fff212;
      }

      .cls-159 {
        fill: #ffe410;
      }

      .cls-160 {
        fill: #fff312;
      }

      .cls-161 {
        fill: #ffe510;
      }

      .cls-162 {
        fill: #fff112;
      }

      .cls-163 {
        fill: #ffe312;
      }

      .cls-164 {
        fill: #ffe30f;
      }

      .cls-165 {
        fill: #ffdd0e;
      }

      .cls-166 {
        fill: #ffde0f;
      }

      .cls-167 {
        fill: #fff012;
      }

      .cls-168 {
        fill: #ffe10f;
      }

      .cls-169 {
        fill: #ffdc0e;
      }

      .cls-170 {
        fill: #fff;
      }

      .cls-171 {
        fill: #ededed;
      }

      .cls-172 {
        fill: #fff913;
      }

      .cls-173 {
        fill: #ffa405;
      }

      .cls-174 {
        fill: #fff918;
      }

      .cls-175 {
        fill: #fffa31;
      }

      .cls-176 {
        fill: #fffa34;
      }

      .cls-177 {
        fill: #fffa32;
      }

      .cls-178 {
        fill: #fff915;
      }

      .cls-179 {
        fill: #fff914;
      }

      .cls-180 {
        fill: #fff917;
      }

      .cls-181 {
        fill: #fff916;
      }

      .cls-182 {
        fill: #fffa37;
      }

      .cls-183 {
        fill: #fffa38;
      }

      .cls-184 {
        fill: #fffa35;
      }

      .cls-185 {
        fill: #fffa36;
      }

      .cls-186 {
        fill: #fffa33;
      }

      .cls-187 {
        fill: #fff919;
      }

      .cls-188 {
        fill: #fff91e;
      }

      .cls-189 {
        fill: #fff91b;
      }

      .cls-190 {
        fill: #fff91a;
      }

      .cls-191 {
        fill: #fff91d;
      }

      .cls-192 {
        fill: #fff91c;
      }

      .cls-193 {
        fill: #fff91f;
      }

      .cls-194 {
        fill: #ffa305;
      }

      .cls-195 {
        fill: #ea9014;
      }

      .cls-196 {
        fill: #ea9114;
      }

      .cls-197 {
        fill: #f5f5f5;
      }

      .cls-198 {
        fill: #f4f4f4;
      }

      .cls-199 {
        fill: #fcfcfc;
      }

      .cls-200 {
        fill: #e7e7e7;
      }

      .cls-201 {
        fill: #f6a10d;
      }

      .cls-202 {
        fill: #f6a20c;
      }

      .cls-203 {
        fill: #e99014;
      }

      .cls-204 {
        fill: #e98f14;
      }

      .cls-205 {
        fill: #e98f15;
      }

      .cls-206 {
        fill: #e88f15;
      }

      .cls-207 {
        fill: #e88e15;
      }

      .cls-208 {
        fill: #e9e9e9;
      }

      .cls-209 {
        fill: #e88d15;
      }

      .cls-210 {
        fill: #f5a10d;
      }

      .cls-211 {
        fill: #f59f0d;
      }

      .cls-212 {
        fill: #f5a00d;
      }

      .cls-213 {
        fill: #ffe00f;
      }

      .cls-214 {
        fill: #ffdf0f;
      }

      .cls-215 {
        fill: #e6e6e6;
      }

      .cls-216 {
        fill: #fdab08;
      }

      .cls-217 {
        fill: #fdac08;
      }

      .cls-218 {
        fill: #ee9711;
      }

      .cls-219 {
        fill: #e78c16;
      }

      .cls-220 {
        fill: #e78d15;
      }

      .cls-221 {
        fill: #e78d16;
      }

      .cls-222 {
        fill: #e5e5e5;
      }

      .cls-223 {
        fill: #fbfbfb;
      }

      .cls-224 {
        fill: #fcaa09;
      }

      .cls-225 {
        fill: #fba809;
      }

      .cls-226 {
        fill: #fba80a;
      }

      .cls-227 {
        fill: #fba909;
      }

      .cls-228 {
        fill: #e2e2e2;
      }

      .cls-229 {
        fill: #e68c16;
      }

      .cls-230 {
        fill: #e68b16;
      }

      .cls-231 {
        fill: #e68b17;
      }

      .cls-232 {
        fill: #ffab06;
      }

      .cls-233 {
        fill: #ffb608;
      }

      .cls-234 {
        fill: #ffc20a;
      }

      .cls-235 {
        fill: #fca909;
      }

      .cls-236 {
        fill: #ffb909;
      }

      .cls-237 {
        fill: #ffd20d;
      }

      .cls-238 {
        fill: #ffc80b;
      }

      .cls-239 {
        fill: #ffc40a;
      }

      .cls-240 {
        fill: #ffa706;
      }

      .cls-241 {
        fill: #ffc10a;
      }

      .cls-242 {
        fill: #ffae07;
      }

      .cls-243 {
        fill: #ffad07;
      }

      .cls-244 {
        fill: #ffa806;
      }

      .cls-245 {
        fill: #ffb508;
      }

      .cls-246 {
        fill: #ffcf0c;
      }

      .cls-247 {
        fill: #ffac07;
      }

      .cls-248 {
        fill: #ffac06;
      }

      .cls-249 {
        fill: #fafafa;
      }

      .cls-250 {
        fill: #ffaa06;
      }

      .cls-251 {
        fill: #ffa906;
      }

      .cls-252 {
        fill: #ffd40d;
      }

      .cls-253 {
        fill: #ffd10c;
      }

      .cls-254 {
        fill: #ffd10d;
      }

      .cls-255 {
        fill: #ffb708;
      }

      .cls-256 {
        fill: #ffbe09;
      }

      .cls-257 {
        fill: #ffbd09;
      }

      .cls-258 {
        fill: #ffc30a;
      }

      .cls-259 {
        fill: #ffc00a;
      }

      .cls-260 {
        fill: #ffb808;
      }

      .cls-261 {
        fill: #ffbf09;
      }

      .cls-262 {
        fill: #ffbf0a;
      }

      .cls-263 {
        fill: #ffc50b;
      }

      .cls-264 {
        fill: #ffa606;
      }

      .cls-265 {
        fill: #ffa505;
      }

      .cls-266 {
        fill: #ffd30d;
      }

      .cls-267 {
        fill: #ffbc09;
      }

      .cls-268 {
        fill: #ffa605;
      }

      .cls-269 {
        fill: #ffc60b;
      }

      .cls-270 {
        fill: #ffb107;
      }

      .cls-271 {
        fill: #ffb207;
      }

      .cls-272 {
        fill: #ffb408;
      }

      .cls-273 {
        fill: #ffb308;
      }

      .cls-274 {
        fill: #ececec;
      }

      .cls-275 {
        fill: #ffd70e;
      }

      .cls-276 {
        fill: #ffca0b;
      }

      .cls-277 {
        fill: #ffd70d;
      }

      .cls-278 {
        fill: #ffcb0c;
      }

      .cls-279 {
        fill: #ee9611;
      }

      .cls-280 {
        fill: #ee9612;
      }

      .cls-281 {
        fill: #ffba09;
      }

      .cls-282 {
        fill: #ffbb09;
      }

      .cls-283 {
        fill: #ffce0c;
      }

      .cls-284 {
        fill: #ffc90b;
      }

      .cls-285 {
        fill: #ffcc0c;
      }

      .cls-286 {
        fill: #ffd60d;
      }

      .cls-287 {
        fill: #ffcd0c;
      }

      .cls-288 {
        fill: #ffd00c;
      }

      .cls-289 {
        fill: #fefefe;
      }

      .cls-290 {
        fill: #ffc70b;
      }

      .cls-291 {
        fill: #ffd50d;
      }

      .cls-292 {
        fill: #ffd80e;
      }
    </style>
    <clipPath id="clippath">
      <path class="cls-3" d="M882.49,8.73c487.39,0,882.49,395.11,882.49,882.49s-395.11,882.49-882.49,882.49S0,1378.61,0,891.22,395.11,8.73,882.49,8.73"/>
    </clipPath>
    <clipPath id="clippath-1">
      <path class="cls-3" d="M600.66,49.78c364.32-127.52,755.83-1.97,982.96,284.26,42.61,61.94,77.83,130.45,103.86,204.82,157.68,450.5-79.7,943.53-530.2,1101.21-450.5,157.68-943.53-79.7-1101.21-530.2-26.03-74.37-41.23-149.89-46.54-224.88C8.57,519.59,236.34,177.3,600.66,49.78"/>
    </clipPath>
    <linearGradient id="linear-gradient" x1="333.1" y1="1484.7" x2="1420.97" y2="340.16" gradientUnits="userSpaceOnUse">
      <stop offset="0" stop-color="#ffa305"/>
      <stop offset=".54" stop-color="#ffff17"/>
      <stop offset="1" stop-color="#ffd900"/>
    </linearGradient>
    <clipPath id="clippath-2">
      <path class="cls-3" d="M232.53,1017.67c77.94,296.08,334.29,497.68,623.28,519.88,59.63,.51,120.3-6.77,180.74-22.68,366.12-96.38,584.79-471.31,488.4-837.43-96.38-366.12-471.31-584.79-837.43-488.4-60.44,15.91-116.83,39.45-168.48,69.25-240.6,161.61-364.46,463.3-286.51,759.38"/>
    </clipPath>
    <linearGradient id="linear-gradient-2" x1="977.06" y1="152.48" x2="806.22" y2="1423.48" gradientUnits="userSpaceOnUse">
      <stop offset="0" stop-color="#ffa305"/>
      <stop offset="1" stop-color="#fffc5e"/>
    </linearGradient>
    <clipPath id="clippath-3">
      <path class="cls-3" d="M919.96,1185.06c-.39,2.55-.73,5.48-.99,8.92-.12,1.56,.2,4.97,.57,8.91,.53,5.73,1.15,12.26,1.15,17.92,0,21.86-5.97,42.04-33.27,42.04h-244.64c-24.94,0-31.89-20.54-31.89-53.5h-.07c0-12.45,1.02-27.96,2.15-45.18,3.68-56.18,8.64-131.88-19.85-185.29-11.78-22.09-22.08-43.31-30.96-63.66-9.32-21.35-17.13-41.69-23.51-61.04-6.62-20.07-11.88-39.49-15.87-58.27-4.11-19.38-6.82-37.89-8.23-55.53-1.48-18.53-1.54-36.23-.31-53.11,1.28-17.53,3.95-34.12,7.89-49.78,4.07-16.21,9.51-31.47,16.14-45.77,6.9-14.86,15.05-28.64,24.29-41.35,27.67-38.06,64.64-66.26,106.27-85.93,46.12-21.79,98-33.08,149.18-35.7,59.38-3.03,125.14,5.62,184.56,27.38,53.11,19.45,101.41,49.48,136.11,91.14,8.59,10.31,16.13,21.05,22.49,32.16,6.34,11.09,11.66,22.72,15.84,34.84,4.03,11.7,7.02,24.02,8.85,36.94,1.75,12.3,2.38,25.09,1.82,38.33-.81,18.9-5.97,40.15-10.99,60.88-5.06,20.87-9.98,41.17-9.2,54.38,.17,2.85,.57,5.96,1.23,9.42,.73,3.82,1.7,7.75,2.95,11.85,3.39,11.16,6.14,19.06,9.69,26.06,3.35,6.6,7.74,12.83,14.59,21.02,3.01,3.6,7.12,8.1,11.52,12.93,10.71,11.75,23.08,25.32,29.59,36.65,1.27,2.21,2.32,4.27,3.13,6.14,.96,2.23,1.73,4.49,2.29,6.77,.76,3.06,1.15,6.17,1.15,9.29,0,3.53-.53,6.92-1.61,10.15-1.1,3.28-2.74,6.36-4.96,9.22-2.04,2.63-4.44,5-7.23,7.08-3.43,2.57-6.38,4.91-8.89,7.04-2.7,2.29-5.1,4.48-7.23,6.57-2.29,2.25-4.31,4.37-6.09,6.4-1.9,2.17-3.59,4.25-5.11,6.27-8.03,10.67-13.99,21.96-20.14,33.62-3.14,5.95-6.33,11.99-9.84,18.12,.85,4.21,1.28,8.79,1.44,13.28,.17,4.74,.06,9.28-.11,13.02-.81,17.35-5.68,23.17-11.68,30.31-1.24,1.48-2.58,3.08-3.76,5.02-3.18,19.34-6.66,38.07-20.65,55.85-24.04,30.54-63.83,38.19-104.91,35.73-37.73-2.26-76.71-13.15-103.58-21.69-2.89-.92-5.56-1.8-8.03-2.66-.55,2.64-.98,4.94-1.27,6.8"/>
    </clipPath>
    <clipPath id="clippath-4">
      <path class="cls-3" d="M901.47,1160.38c.53-7.02,1.62-13.61,3.11-20.47-13.55-11.62-53.97-75.12-22.23-38.92,20.96,17.91,26.16,22.67,52.2,30.95,51.76,16.47,149.97,41.92,189.41-8.2,11.92-15.15,14.66-32.67,17.63-50.74,6.49-13.35,13.92-12.48,14.76-30.36,.32-6.84,.42-16.42-1.32-23.44-.73-2.94-1.21-4.91,.16-7.21,11.92-20.06,19.27-38.48,33.31-57.13,3.67-4.87,7.85-9.71,12.91-14.67,5.01-4.91,10.86-9.92,17.9-15.18,3.15-2.36,5.13-4.96,6.08-7.79,.97-2.88,.93-6.13,.05-9.7-.66-2.66-1.88-5.46-3.56-8.39-7.89-13.73-28.96-34.58-39.4-47.03-15.41-18.4-20.15-28.86-27.58-53.25-3-9.86-4.5-18.05-4.93-25.31-1.77-29.87,18.64-80.69,20.19-116.97,1.06-24.63-2.45-47.63-9.78-68.89-7.74-22.45-19.76-43.01-35.17-61.51-69.43-83.35-198.74-117.7-306.33-112.21-92.61,4.74-187.25,38.95-242.14,114.42-16.95,23.32-29.88,50.29-37.62,81.09-7.27,28.96-9.96,61.34-7.09,97.26,2.67,33.46,10.17,69.99,23.27,109.68,12.45,37.71,29.97,78.33,53.24,121.95,55.48,104.01-5.36,274.63,34.23,274.63h244.64c23.94,0,13.14-40.51,14.06-52.61"/>
    </clipPath>
    <clipPath id="clippath-5">
      <path class="cls-3" d="M1402.83,2592.5c-487.39,0-882.49,395.11-882.49,882.49s395.11,882.49,882.49,882.49c487.39,0,882.49-395.11,882.49-882.49s-395.11-882.49-882.49-882.49"/>
    </clipPath>
  </defs>
  <g>
    <g>
      <path class="cls-170" d="M876.17,2018.68c315.87,0,571.94,37.34,571.94,83.41s-256.07,83.41-571.94,83.41-571.94-37.34-571.94-83.41,256.07-83.41,571.94-83.41"/>
      <path class="cls-289" d="M876.17,2018.4c310.82,0,562.78,36.7,562.78,81.96s-251.97,81.96-562.78,81.96-562.79-36.7-562.79-81.96,251.97-81.96,562.79-81.96"/>
      <path class="cls-77" d="M876.17,2018.13c305.76,0,553.63,36.05,553.63,80.52s-247.87,80.52-553.63,80.52-553.63-36.05-553.63-80.52,247.87-80.52,553.63-80.52"/>
      <path class="cls-199" d="M876.17,2017.85c300.71,0,544.48,35.4,544.48,79.07s-243.77,79.07-544.48,79.07-544.48-35.4-544.48-79.07,243.77-79.07,544.48-79.07"/>
      <path class="cls-223" d="M876.17,2017.57c295.65,0,535.33,34.76,535.33,77.63s-239.68,77.63-535.33,77.63-535.33-34.76-535.33-77.63,239.68-77.63,535.33-77.63"/>
      <path class="cls-249" d="M876.17,2017.3c290.6,0,526.18,34.11,526.18,76.18s-235.58,76.18-526.18,76.18-526.18-34.11-526.18-76.18,235.58-76.18,526.18-76.18"/>
      <path class="cls-13" d="M876.17,2017.02c285.54,0,517.02,33.46,517.02,74.74s-231.48,74.74-517.02,74.74-517.02-33.46-517.02-74.74,231.48-74.74,517.02-74.74"/>
      <path class="cls-18" d="M876.17,2016.74c280.49,0,507.87,32.82,507.87,73.29s-227.38,73.29-507.87,73.29-507.87-32.82-507.87-73.29,227.38-73.29,507.87-73.29"/>
      <path class="cls-10" d="M876.17,2016.47c275.43,0,498.72,32.17,498.72,71.85s-223.28,71.85-498.72,71.85-498.72-32.17-498.72-71.85,223.28-71.85,498.72-71.85"/>
      <path class="cls-25" d="M876.17,2016.19c270.38,0,489.57,31.52,489.57,70.4s-219.19,70.4-489.57,70.4-489.57-31.52-489.57-70.4,219.19-70.4,489.57-70.4"/>
      <path class="cls-197" d="M876.17,2015.91c265.32,0,480.41,30.87,480.41,68.96s-215.09,68.96-480.41,68.96-480.42-30.87-480.42-68.96,215.09-68.96,480.42-68.96"/>
      <path class="cls-198" d="M876.17,2015.63c260.27,0,471.26,30.23,471.26,67.51s-210.99,67.52-471.26,67.52-471.26-30.23-471.26-67.52,210.99-67.51,471.26-67.51"/>
      <path class="cls-29" d="M876.17,2015.36c255.22,0,462.11,29.58,462.11,66.07s-206.89,66.07-462.11,66.07-462.11-29.58-462.11-66.07,206.89-66.07,462.11-66.07"/>
      <path class="cls-21" d="M876.17,2015.08c250.16,0,452.96,28.93,452.96,64.63s-202.8,64.63-452.96,64.63-452.96-28.93-452.96-64.63,202.8-64.63,452.96-64.63"/>
      <path class="cls-93" d="M876.17,2014.8c245.11,0,443.81,28.29,443.81,63.18s-198.7,63.18-443.81,63.18-443.81-28.29-443.81-63.18,198.7-63.18,443.81-63.18"/>
      <path class="cls-83" d="M876.17,2014.53c240.05,0,434.65,27.64,434.65,61.74s-194.6,61.74-434.65,61.74-434.65-27.64-434.65-61.74,194.6-61.74,434.65-61.74"/>
      <path class="cls-91" d="M876.17,2014.25c235,0,425.5,26.99,425.5,60.29s-190.5,60.29-425.5,60.29-425.5-26.99-425.5-60.29,190.5-60.29,425.5-60.29"/>
      <path class="cls-88" d="M876.17,2013.97c229.94,0,416.35,26.35,416.35,58.85s-186.41,58.85-416.35,58.85-416.35-26.35-416.35-58.85,186.41-58.85,416.35-58.85"/>
      <path class="cls-171" d="M876.17,2013.7c224.89,0,407.2,25.7,407.2,57.4s-182.31,57.4-407.2,57.4-407.2-25.7-407.2-57.4,182.31-57.4,407.2-57.4"/>
      <path class="cls-274" d="M876.17,2013.42c219.83,0,398.05,25.05,398.05,55.96s-178.21,55.96-398.05,55.96-398.05-25.05-398.05-55.96,178.21-55.96,398.05-55.96"/>
      <path class="cls-274" d="M876.17,2013.14c214.78,0,388.89,24.41,388.89,54.51s-174.11,54.51-388.89,54.51-388.89-24.41-388.89-54.51,174.11-54.51,388.89-54.51"/>
      <path class="cls-85" d="M876.17,2012.87c209.72,0,379.74,23.76,379.74,53.07s-170.02,53.07-379.74,53.07-379.74-23.76-379.74-53.07,170.02-53.07,379.74-53.07"/>
      <path class="cls-84" d="M876.17,2012.59c204.67,0,370.59,23.11,370.59,51.62s-165.92,51.62-370.59,51.62-370.59-23.11-370.59-51.62,165.92-51.62,370.59-51.62"/>
      <path class="cls-208" d="M876.17,2012.31c199.62,0,361.44,22.47,361.44,50.18s-161.82,50.18-361.44,50.18-361.44-22.47-361.44-50.18,161.82-50.18,361.44-50.18"/>
      <path class="cls-116" d="M876.17,2012.04c194.56,0,352.28,21.82,352.28,48.73s-157.72,48.73-352.28,48.73-352.29-21.82-352.29-48.73,157.72-48.73,352.29-48.73"/>
      <path class="cls-200" d="M876.17,2011.76c189.51,0,343.13,21.17,343.13,47.29s-153.63,47.29-343.13,47.29-343.13-21.17-343.13-47.29,153.63-47.29,343.13-47.29"/>
      <path class="cls-215" d="M876.17,2011.48c184.45,0,333.98,20.53,333.98,45.84s-149.53,45.84-333.98,45.84-333.98-20.53-333.98-45.84,149.53-45.84,333.98-45.84"/>
      <path class="cls-222" d="M876.17,2011.21c179.4,0,324.83,19.88,324.83,44.4s-145.43,44.4-324.83,44.4-324.83-19.88-324.83-44.4,145.43-44.4,324.83-44.4"/>
      <path class="cls-90" d="M876.17,2010.93c174.34,0,315.68,19.23,315.68,42.96s-141.33,42.95-315.68,42.95-315.68-19.23-315.68-42.95,141.33-42.96,315.68-42.96"/>
      <path class="cls-120" d="M876.17,2010.65c169.29,0,306.52,18.59,306.52,41.51s-137.24,41.51-306.52,41.51-306.52-18.59-306.52-41.51,137.24-41.51,306.52-41.51"/>
      <path class="cls-228" d="M876.17,2010.37c164.23,0,297.37,17.94,297.37,40.07s-133.14,40.07-297.37,40.07-297.37-17.94-297.37-40.07,133.14-40.07,297.37-40.07"/>
      <path class="cls-36" d="M876.17,2010.1c159.18,0,288.22,17.29,288.22,38.62s-129.04,38.62-288.22,38.62-288.22-17.29-288.22-38.62,129.04-38.62,288.22-38.62"/>
      <path class="cls-66" d="M876.17,2009.82c154.12,0,279.07,16.64,279.07,37.18s-124.94,37.18-279.07,37.18-279.07-16.64-279.07-37.18,124.94-37.18,279.07-37.18"/>
      <path class="cls-41" d="M876.17,2009.54c149.07,0,269.92,16,269.92,35.73s-120.85,35.73-269.92,35.73-269.92-16-269.92-35.73,120.85-35.73,269.92-35.73"/>
      <path class="cls-67" d="M876.17,2009.27c144.02,0,260.76,15.35,260.76,34.29s-116.75,34.29-260.76,34.29-260.76-15.35-260.76-34.29,116.75-34.29,260.76-34.29"/>
      <path class="cls-72" d="M876.17,2008.99c138.96,0,251.61,14.7,251.61,32.84s-112.65,32.84-251.61,32.84-251.61-14.7-251.61-32.84,112.65-32.84,251.61-32.84"/>
      <path class="cls-52" d="M876.17,2008.71c133.91,0,242.46,14.06,242.46,31.4s-108.55,31.4-242.46,31.4-242.46-14.06-242.46-31.4,108.55-31.4,242.46-31.4"/>
      <path class="cls-54" d="M876.17,2008.44c128.85,0,233.31,13.41,233.31,29.95s-104.46,29.95-233.31,29.95-233.31-13.41-233.31-29.95,104.45-29.95,233.31-29.95"/>
      <path class="cls-58" d="M876.17,2008.16c123.8,0,224.15,12.76,224.15,28.51s-100.36,28.51-224.15,28.51-224.16-12.76-224.16-28.51,100.36-28.51,224.16-28.51"/>
      <path class="cls-62" d="M876.17,2007.88c118.74,0,215,12.12,215,27.06s-96.26,27.06-215,27.06-215-12.12-215-27.06,96.26-27.06,215-27.06"/>
    </g>
    <g>
      <g>
        <g class="cls-2">
          <polyline class="cls-43" points="1406.07 -427.66 1407.02 -425.48 -435.44 369.82 -436.39 367.64"/>
          <polyline class="cls-43" points="1405.05 -430.02 1410.94 -416.38 -431.52 378.92 -437.41 365.28"/>
          <polyline class="cls-47" points="1408.98 -420.93 1414.87 -407.29 -427.59 388.01 -433.48 374.37"/>
          <polyline class="cls-47" points="1412.9 -411.84 1418.79 -398.2 -423.67 397.1 -429.56 383.46"/>
          <polyline class="cls-47" points="1416.83 -402.75 1422.72 -389.1 -419.74 406.19 -425.63 392.56"/>
          <polyline class="cls-47" points="1420.75 -393.65 1426.64 -380.01 -415.82 415.29 -421.71 401.65"/>
          <polyline class="cls-73" points="1424.68 -384.56 1430.56 -370.92 -411.89 424.38 -417.78 410.74"/>
          <polyline class="cls-73" points="1428.6 -375.47 1434.49 -361.83 -407.97 433.47 -413.86 419.83"/>
          <polyline class="cls-74" points="1432.53 -366.37 1438.42 -352.73 -404.04 442.57 -409.93 428.93"/>
          <polyline class="cls-74" points="1436.45 -357.28 1442.34 -343.64 -400.12 451.66 -406.01 438.02"/>
          <polyline class="cls-74" points="1440.38 -348.19 1446.27 -334.55 -396.19 460.75 -402.08 447.11"/>
          <polyline class="cls-74" points="1444.3 -339.09 1450.19 -325.45 -392.27 469.85 -398.16 456.21"/>
          <polyline class="cls-74" points="1448.23 -330 1454.11 -316.36 -388.34 478.94 -394.23 465.3"/>
          <polyline class="cls-74" points="1452.15 -320.91 1458.04 -307.27 -384.42 488.03 -390.31 474.39"/>
          <polyline class="cls-76" points="1456.08 -311.82 1461.97 -298.18 -380.49 497.12 -386.38 483.48"/>
          <polyline class="cls-76" points="1460 -302.72 1465.89 -289.08 -376.57 506.22 -382.46 492.58"/>
          <polyline class="cls-76" points="1463.93 -293.63 1469.82 -279.99 -372.64 515.31 -378.53 501.67"/>
          <polyline class="cls-76" points="1467.85 -284.54 1473.74 -270.9 -368.72 524.4 -374.61 510.76"/>
          <polyline class="cls-76" points="1471.78 -275.44 1477.66 -261.8 -364.79 533.5 -370.68 519.86"/>
          <polyline class="cls-76" points="1475.7 -266.35 1481.59 -252.71 -360.87 542.59 -366.76 528.95"/>
          <polyline class="cls-76" points="1479.63 -257.26 1485.51 -243.62 -356.94 551.68 -362.83 538.04"/>
          <polyline class="cls-75" points="1483.55 -248.16 1489.44 -234.53 -353.02 560.77 -358.91 547.14"/>
          <polyline class="cls-75" points="1487.48 -239.07 1493.37 -225.43 -349.1 569.87 -354.98 556.23"/>
          <polyline class="cls-57" points="1491.4 -229.98 1497.29 -216.34 -345.17 578.96 -351.06 565.32"/>
          <polyline class="cls-57" points="1495.33 -220.89 1501.21 -207.25 -341.24 588.05 -347.13 574.41"/>
          <polyline class="cls-57" points="1499.25 -211.79 1505.14 -198.15 -337.32 597.15 -343.21 583.51"/>
          <polyline class="cls-57" points="1503.18 -202.7 1509.06 -189.06 -333.39 606.24 -339.28 592.6"/>
          <polyline class="cls-64" points="1507.1 -193.61 1512.99 -179.97 -329.47 615.33 -335.36 601.69"/>
          <polyline class="cls-63" points="1511.03 -184.51 1516.92 -170.87 -325.55 624.42 -331.43 610.79"/>
          <polyline class="cls-63" points="1514.95 -175.42 1520.84 -161.78 -321.62 633.52 -327.51 619.88"/>
          <polyline class="cls-63" points="1518.88 -166.33 1524.76 -152.69 -317.69 642.61 -323.58 628.97"/>
          <polyline class="cls-63" points="1522.8 -157.24 1528.69 -143.6 -313.77 651.7 -319.66 638.06"/>
          <polyline class="cls-60" points="1526.73 -148.14 1532.61 -134.5 -309.84 660.8 -315.73 647.16"/>
          <polyline class="cls-55" points="1530.65 -139.05 1536.54 -125.41 -305.92 669.89 -311.81 656.25"/>
          <polyline class="cls-55" points="1534.58 -129.96 1540.46 -116.32 -302 678.98 -307.88 665.34"/>
          <polyline class="cls-55" points="1538.5 -120.86 1544.39 -107.22 -298.07 688.08 -303.96 674.44"/>
          <polyline class="cls-55" points="1542.43 -111.77 1548.31 -98.13 -294.14 697.17 -300.03 683.53"/>
          <polyline class="cls-55" points="1546.35 -102.68 1552.24 -89.04 -290.22 706.26 -296.11 692.62"/>
          <polyline class="cls-55" points="1550.28 -93.58 1556.16 -79.94 -286.29 715.35 -292.18 701.71"/>
          <polyline class="cls-56" points="1554.2 -84.49 1560.09 -70.85 -282.37 724.45 -288.26 710.81"/>
          <polyline class="cls-33" points="1558.13 -75.4 1564.01 -61.76 -278.45 733.54 -284.33 719.9"/>
          <polyline class="cls-33" points="1562.05 -66.31 1567.94 -52.67 -274.52 742.63 -280.41 728.99"/>
          <polyline class="cls-32" points="1565.98 -57.21 1571.86 -43.57 -270.6 751.73 -276.48 738.09"/>
          <polyline class="cls-32" points="1569.9 -48.12 1575.79 -34.48 -266.67 760.82 -272.56 747.18"/>
          <polyline class="cls-32" points="1573.83 -39.03 1579.71 -25.39 -262.74 769.91 -268.63 756.27"/>
          <polyline class="cls-32" points="1577.75 -29.93 1583.64 -16.29 -258.82 779 -264.71 765.37"/>
          <polyline class="cls-34" points="1581.68 -20.84 1587.56 -7.2 -254.9 788.1 -260.78 774.46"/>
          <polyline class="cls-34" points="1585.6 -11.75 1591.49 1.89 -250.97 797.19 -256.86 783.55"/>
          <polyline class="cls-34" points="1589.53 -2.65 1595.41 10.98 -247.05 806.28 -252.93 792.64"/>
          <polyline class="cls-50" points="1593.45 6.44 1599.34 20.08 -243.12 815.38 -249.01 801.74"/>
          <polyline class="cls-50" points="1597.38 15.53 1603.26 29.17 -239.19 824.47 -245.08 810.83"/>
          <polyline class="cls-50" points="1601.3 24.62 1607.19 38.26 -235.27 833.56 -241.16 819.92"/>
          <polyline class="cls-53" points="1605.23 33.72 1611.11 47.36 -231.35 842.66 -237.23 829.02"/>
          <polyline class="cls-53" points="1609.15 42.81 1615.04 56.45 -227.42 851.75 -233.31 838.11"/>
          <polyline class="cls-53" points="1613.08 51.9 1618.96 65.54 -223.5 860.84 -229.38 847.2"/>
          <polyline class="cls-53" points="1617 60.99 1622.89 74.63 -219.57 869.93 -225.46 856.3"/>
          <polyline class="cls-53" points="1620.93 70.09 1626.81 83.73 -215.65 879.03 -221.53 865.39"/>
          <polyline class="cls-51" points="1624.85 79.18 1630.74 92.82 -211.72 888.12 -217.61 874.48"/>
          <polyline class="cls-71" points="1628.78 88.27 1634.66 101.91 -207.8 897.21 -213.68 883.57"/>
          <polyline class="cls-71" points="1632.7 97.37 1638.59 111.01 -203.87 906.31 -209.76 892.67"/>
          <polyline class="cls-71" points="1636.63 106.46 1642.51 120.1 -199.95 915.4 -205.83 901.76"/>
          <polyline class="cls-71" points="1640.55 115.55 1646.44 129.19 -196.02 924.49 -201.91 910.85"/>
          <polyline class="cls-71" points="1644.48 124.65 1650.36 138.29 -192.1 933.59 -197.98 919.95"/>
          <polyline class="cls-71" points="1648.4 133.74 1654.29 147.38 -188.17 942.68 -194.06 929.04"/>
          <polyline class="cls-71" points="1652.33 142.83 1658.21 156.47 -184.25 951.77 -190.13 938.13"/>
          <polyline class="cls-40" points="1656.25 151.92 1662.14 165.56 -180.32 960.86 -186.21 947.22"/>
          <polyline class="cls-40" points="1660.18 161.02 1666.06 174.66 -176.4 969.96 -182.28 956.32"/>
          <polyline class="cls-31" points="1664.1 170.11 1669.99 183.75 -172.47 979.05 -178.36 965.41"/>
          <polyline class="cls-31" points="1668.03 179.2 1673.91 192.84 -168.55 988.14 -174.43 974.5"/>
          <polyline class="cls-31" points="1671.95 188.3 1677.84 201.94 -164.62 997.23 -170.51 983.6"/>
          <polyline class="cls-31" points="1675.88 197.39 1681.76 211.03 -160.7 1006.33 -166.58 992.69"/>
          <polyline class="cls-35" points="1679.8 206.48 1685.69 220.12 -156.77 1015.42 -162.66 1001.78"/>
          <polyline class="cls-35" points="1683.73 215.57 1689.61 229.21 -152.85 1024.51 -158.73 1010.87"/>
          <polyline class="cls-35" points="1687.65 224.67 1693.54 238.31 -148.92 1033.61 -154.81 1019.97"/>
          <polyline class="cls-35" points="1691.58 233.76 1697.46 247.4 -145 1042.7 -150.88 1029.06"/>
          <polyline class="cls-59" points="1695.5 242.85 1701.39 256.49 -141.07 1051.79 -146.96 1038.15"/>
          <polyline class="cls-59" points="1699.43 251.95 1705.31 265.59 -137.15 1060.89 -143.03 1047.25"/>
          <polyline class="cls-65" points="1703.35 261.04 1709.24 274.68 -133.22 1069.98 -139.11 1056.34"/>
          <polyline class="cls-65" points="1707.28 270.13 1713.16 283.77 -129.3 1079.07 -135.18 1065.43"/>
          <polyline class="cls-65" points="1711.2 279.23 1717.09 292.87 -125.37 1088.16 -131.26 1074.52"/>
          <polyline class="cls-65" points="1715.13 288.32 1721.01 301.96 -121.45 1097.26 -127.33 1083.62"/>
          <polyline class="cls-65" points="1719.05 297.41 1724.94 311.05 -117.52 1106.35 -123.41 1092.71"/>
          <polyline class="cls-65" points="1722.98 306.5 1728.86 320.14 -113.6 1115.44 -119.48 1101.8"/>
          <polyline class="cls-61" points="1726.9 315.6 1732.79 329.24 -109.67 1124.54 -115.56 1110.9"/>
          <polyline class="cls-45" points="1730.83 324.69 1736.71 338.33 -105.75 1133.63 -111.63 1119.99"/>
          <polyline class="cls-46" points="1734.75 333.78 1740.64 347.42 -101.82 1142.72 -107.71 1129.08"/>
          <polyline class="cls-46" points="1738.68 342.88 1744.56 356.52 -97.9 1151.82 -103.78 1138.18"/>
          <polyline class="cls-46" points="1742.6 351.97 1748.49 365.61 -93.97 1160.91 -99.86 1147.27"/>
          <polyline class="cls-46" points="1746.53 361.06 1752.41 374.7 -90.05 1170 -95.93 1156.36"/>
          <polyline class="cls-46" points="1750.45 370.16 1756.34 383.79 -86.12 1179.09 -92.01 1165.45"/>
          <polyline class="cls-44" points="1754.38 379.25 1760.26 392.89 -82.2 1188.19 -88.08 1174.55"/>
          <polyline class="cls-44" points="1758.3 388.34 1764.19 401.98 -78.27 1197.28 -84.16 1183.64"/>
          <polyline class="cls-44" points="1762.23 397.43 1768.11 411.07 -74.35 1206.37 -80.23 1192.73"/>
          <polyline class="cls-39" points="1766.15 406.53 1772.04 420.17 -70.42 1215.47 -76.31 1201.83"/>
          <polyline class="cls-39" points="1770.08 415.62 1775.96 429.26 -66.5 1224.56 -72.38 1210.92"/>
          <polyline class="cls-39" points="1774 424.71 1779.89 438.35 -62.57 1233.65 -68.46 1220.01"/>
          <polyline class="cls-37" points="1777.93 433.81 1783.81 447.45 -58.65 1242.74 -64.53 1229.11"/>
          <polyline class="cls-37" points="1781.85 442.9 1787.74 456.54 -54.72 1251.84 -60.61 1238.2"/>
          <polyline class="cls-37" points="1785.78 451.99 1791.66 465.63 -50.8 1260.93 -56.68 1247.29"/>
          <polyline class="cls-37" points="1789.7 461.09 1795.59 474.72 -46.87 1270.02 -52.76 1256.38"/>
          <polyline class="cls-38" points="1793.62 470.18 1799.51 483.82 -42.95 1279.12 -48.83 1265.48"/>
          <polyline class="cls-69" points="1797.55 479.27 1803.44 492.91 -39.02 1288.21 -44.91 1274.57"/>
          <polyline class="cls-70" points="1801.48 488.36 1807.36 502 -35.1 1297.3 -40.98 1283.66"/>
          <polyline class="cls-70" points="1805.4 497.46 1811.29 511.1 -31.17 1306.4 -37.06 1292.76"/>
          <polyline class="cls-70" points="1809.33 506.55 1815.21 520.19 -27.25 1315.49 -33.13 1301.85"/>
          <polyline class="cls-70" points="1813.25 515.64 1819.14 529.28 -23.32 1324.58 -29.21 1310.94"/>
          <polyline class="cls-70" points="1817.17 524.73 1823.06 538.37 -19.4 1333.67 -25.28 1320.04"/>
          <polyline class="cls-70" points="1821.1 533.83 1826.99 547.47 -15.47 1342.77 -21.36 1329.13"/>
          <polyline class="cls-68" points="1825.03 542.92 1830.91 556.56 -11.55 1351.86 -17.43 1338.22"/>
          <polyline class="cls-68" points="1828.95 552.01 1834.84 565.65 -7.62 1360.95 -13.51 1347.31"/>
          <polyline class="cls-155" points="1832.88 561.11 1838.76 574.75 -3.7 1370.05 -9.58 1356.41"/>
          <polyline class="cls-155" points="1836.8 570.2 1842.69 583.84 .23 1379.14 -5.66 1365.5"/>
          <polyline class="cls-155" points="1840.72 579.29 1846.61 592.93 4.15 1388.23 -1.73 1374.59"/>
          <polyline class="cls-155" points="1844.65 588.39 1850.54 602.02 8.08 1397.33 2.19 1383.69"/>
          <polyline class="cls-156" points="1848.57 597.48 1854.46 611.12 12 1406.42 6.12 1392.78"/>
          <polyline class="cls-126" points="1852.5 606.57 1858.39 620.21 15.93 1415.51 10.04 1401.87"/>
          <polyline class="cls-126" points="1856.43 615.66 1862.31 629.3 19.85 1424.6 13.97 1410.96"/>
          <polyline class="cls-126" points="1860.35 624.76 1866.24 638.4 23.78 1433.7 17.89 1420.06"/>
          <polyline class="cls-126" points="1864.27 633.85 1870.16 647.49 27.7 1442.79 21.82 1429.15"/>
          <polyline class="cls-124" points="1868.2 642.94 1874.09 656.58 31.63 1451.88 25.74 1438.24"/>
          <polyline class="cls-124" points="1872.12 652.04 1878.01 665.68 35.55 1460.97 29.67 1447.34"/>
          <polyline class="cls-123" points="1876.05 661.13 1881.94 674.77 39.48 1470.07 33.59 1456.43"/>
          <polyline class="cls-123" points="1879.98 670.22 1885.86 683.86 43.4 1479.16 37.52 1465.52"/>
          <polyline class="cls-123" points="1883.9 679.32 1889.79 692.95 47.33 1488.25 41.44 1474.61"/>
          <polyline class="cls-123" points="1887.82 688.41 1893.71 702.05 51.25 1497.35 45.37 1483.71"/>
          <polyline class="cls-123" points="1891.75 697.5 1897.64 711.14 55.18 1506.44 49.29 1492.8"/>
          <polyline class="cls-123" points="1895.67 706.59 1901.56 720.23 59.1 1515.53 53.22 1501.89"/>
          <polyline class="cls-231" points="1899.6 715.69 1905.49 729.33 63.03 1524.63 57.14 1510.99"/>
          <polyline class="cls-230" points="1903.52 724.78 1909.41 738.42 66.95 1533.72 61.07 1520.08"/>
          <polyline class="cls-230" points="1907.45 733.87 1913.34 747.51 70.88 1542.81 64.99 1529.17"/>
          <polyline class="cls-230" points="1911.37 742.97 1917.26 756.61 74.8 1551.9 68.92 1538.27"/>
          <polyline class="cls-230" points="1915.3 752.06 1921.19 765.7 78.73 1561 72.84 1547.36"/>
          <polyline class="cls-230" points="1919.22 761.15 1925.11 774.79 82.65 1570.09 76.77 1556.45"/>
          <polyline class="cls-229" points="1923.15 770.24 1929.04 783.88 86.58 1579.18 80.69 1565.54"/>
          <polyline class="cls-229" points="1927.07 779.34 1932.96 792.98 90.5 1588.28 84.62 1574.64"/>
          <polyline class="cls-229" points="1931 788.43 1936.89 802.07 94.43 1597.37 88.54 1583.73"/>
          <polyline class="cls-219" points="1934.92 797.52 1940.81 811.16 98.35 1606.46 92.47 1592.82"/>
          <polyline class="cls-219" points="1938.85 806.62 1944.74 820.26 102.28 1615.56 96.39 1601.92"/>
          <polyline class="cls-219" points="1942.77 815.71 1948.66 829.35 106.2 1624.65 100.32 1611.01"/>
          <polyline class="cls-219" points="1946.7 824.8 1952.59 838.44 110.13 1633.74 104.24 1620.1"/>
          <polyline class="cls-221" points="1950.62 833.9 1956.51 847.53 114.05 1642.83 108.17 1629.19"/>
          <polyline class="cls-221" points="1954.55 842.99 1960.44 856.63 117.98 1651.93 112.09 1638.29"/>
          <polyline class="cls-220" points="1958.47 852.08 1964.36 865.72 121.9 1661.02 116.02 1647.38"/>
          <polyline class="cls-220" points="1962.4 861.17 1968.29 874.81 125.83 1670.11 119.94 1656.47"/>
          <polyline class="cls-220" points="1966.32 870.27 1972.21 883.91 129.75 1679.21 123.87 1665.57"/>
          <polyline class="cls-209" points="1970.25 879.36 1976.14 893 133.68 1688.3 127.79 1674.66"/>
          <polyline class="cls-207" points="1974.17 888.45 1980.06 902.09 137.6 1697.39 131.72 1683.75"/>
          <polyline class="cls-207" points="1978.1 897.55 1983.99 911.18 141.53 1706.48 135.64 1692.85"/>
          <polyline class="cls-207" points="1982.02 906.64 1987.91 920.28 145.45 1715.58 139.57 1701.94"/>
          <polyline class="cls-207" points="1985.95 915.73 1991.84 929.37 149.38 1724.67 143.49 1711.03"/>
          <polyline class="cls-207" points="1989.87 924.82 1995.76 938.46 153.3 1733.76 147.41 1720.12"/>
          <polyline class="cls-207" points="1993.8 933.92 1999.69 947.56 157.23 1742.86 151.34 1729.22"/>
          <polyline class="cls-206" points="1997.72 943.01 2003.61 956.65 161.15 1751.95 155.27 1738.31"/>
          <polyline class="cls-206" points="2001.65 952.1 2007.54 965.74 165.08 1761.04 159.19 1747.4"/>
          <polyline class="cls-205" points="2005.57 961.2 2011.46 974.84 169 1770.14 163.12 1756.5"/>
          <polyline class="cls-205" points="2009.5 970.29 2015.39 983.93 172.93 1779.23 167.04 1765.59"/>
          <polyline class="cls-205" points="2013.42 979.38 2019.31 993.02 176.85 1788.32 170.96 1774.68"/>
          <polyline class="cls-204" points="2017.35 988.47 2023.24 1002.11 180.78 1797.41 174.89 1783.77"/>
          <polyline class="cls-203" points="2021.27 997.57 2027.16 1011.21 184.7 1806.51 178.82 1792.87"/>
          <polyline class="cls-203" points="2025.2 1006.66 2031.09 1020.3 188.63 1815.6 182.74 1801.96"/>
          <polyline class="cls-203" points="2029.12 1015.75 2035.01 1029.39 192.55 1824.69 186.67 1811.05"/>
          <polyline class="cls-203" points="2033.05 1024.85 2038.94 1038.49 196.48 1833.79 190.59 1820.15"/>
          <polyline class="cls-195" points="2036.97 1033.94 2042.86 1047.58 200.4 1842.88 194.51 1829.24"/>
          <polyline class="cls-195" points="2040.9 1043.03 2046.79 1056.67 204.33 1851.97 198.44 1838.33"/>
          <polyline class="cls-195" points="2044.82 1052.13 2050.71 1065.76 208.25 1861.07 202.36 1847.43"/>
          <polyline class="cls-196" points="2048.75 1061.22 2054.64 1074.86 212.18 1870.16 206.29 1856.52"/>
          <polyline class="cls-196" points="2052.67 1070.31 2058.56 1083.95 216.1 1879.25 210.22 1865.61"/>
          <polyline class="cls-196" points="2056.6 1079.4 2062.49 1093.04 220.03 1888.34 214.14 1874.7"/>
          <polyline class="cls-196" points="2060.52 1088.5 2066.41 1102.14 223.95 1897.44 218.06 1883.8"/>
          <polyline class="cls-196" points="2064.45 1097.59 2070.34 1111.23 227.88 1906.53 221.99 1892.89"/>
          <polyline class="cls-196" points="2068.37 1106.68 2074.26 1120.32 231.8 1915.62 225.91 1901.98"/>
          <polyline class="cls-115" points="2072.3 1115.78 2078.19 1129.42 235.73 1924.71 229.84 1911.08"/>
          <polyline class="cls-115" points="2076.22 1124.87 2082.11 1138.51 239.65 1933.81 233.77 1920.17"/>
          <polyline class="cls-115" points="2080.15 1133.96 2086.04 1147.6 243.58 1942.9 237.69 1929.26"/>
          <polyline class="cls-96" points="2084.07 1143.05 2089.96 1156.69 247.5 1951.99 241.61 1938.35"/>
          <polyline class="cls-117" points="2088 1152.15 2093.89 1165.79 251.43 1961.09 245.54 1947.45"/>
          <polyline class="cls-119" points="2091.92 1161.24 2097.81 1174.88 255.35 1970.18 249.46 1956.54"/>
          <polyline class="cls-118" points="2095.85 1170.33 2101.74 1183.97 259.28 1979.27 253.39 1965.63"/>
          <polyline class="cls-87" points="2099.77 1179.43 2105.66 1193.07 263.2 1988.37 257.32 1974.73"/>
          <polyline class="cls-86" points="2103.7 1188.52 2109.59 1202.16 267.13 1997.46 261.24 1983.82"/>
          <polyline class="cls-86" points="2107.62 1197.61 2113.51 1211.25 271.05 2006.55 265.16 1992.91"/>
          <polyline class="cls-86" points="2111.55 1206.71 2117.44 1220.35 274.98 2015.64 269.09 2002"/>
          <polyline class="cls-280" points="2115.47 1215.8 2121.36 1229.44 278.9 2024.74 273.01 2011.1"/>
          <polyline class="cls-279" points="2119.4 1224.89 2125.29 1238.53 282.83 2033.83 276.94 2020.19"/>
          <polyline class="cls-218" points="2123.32 1233.98 2129.21 1247.62 286.75 2042.92 280.86 2029.28"/>
          <polyline class="cls-218" points="2127.25 1243.08 2133.14 1256.72 290.68 2052.02 284.79 2038.38"/>
          <polyline class="cls-125" points="2131.17 1252.17 2137.06 1265.81 294.6 2061.11 288.71 2047.47"/>
          <polyline class="cls-122" points="2135.1 1261.26 2140.99 1274.9 298.53 2070.2 292.64 2056.56"/>
          <polyline class="cls-122" points="2139.02 1270.36 2144.91 1284 302.45 2079.3 296.56 2065.66"/>
          <polyline class="cls-121" points="2142.95 1279.45 2148.84 1293.09 306.38 2088.39 300.49 2074.75"/>
          <polyline class="cls-95" points="2146.87 1288.54 2152.76 1302.18 310.3 2097.48 304.41 2083.84"/>
          <polyline class="cls-95" points="2150.8 1297.64 2156.69 1311.27 314.23 2106.57 308.34 2092.93"/>
          <polyline class="cls-94" points="2154.72 1306.73 2160.61 1320.37 318.15 2115.67 312.26 2102.03"/>
          <polyline class="cls-92" points="2158.65 1315.82 2164.54 1329.46 322.08 2124.76 316.19 2111.12"/>
          <polyline class="cls-92" points="2162.57 1324.91 2168.46 1338.55 326 2133.85 320.11 2120.21"/>
          <polyline class="cls-89" points="2166.5 1334.01 2172.39 1347.65 329.93 2142.95 324.04 2129.31"/>
          <polyline class="cls-89" points="2170.42 1343.1 2176.31 1356.74 333.85 2152.04 327.96 2138.4"/>
          <polyline class="cls-82" points="2174.35 1352.19 2180.24 1365.83 337.78 2161.13 331.89 2147.49"/>
          <polyline class="cls-81" points="2178.27 1361.29 2184.16 1374.92 341.7 2170.22 335.81 2156.59"/>
          <polyline class="cls-81" points="2182.2 1370.38 2188.09 1384.02 345.63 2179.32 339.74 2165.68"/>
          <polyline class="cls-81" points="2186.12 1379.47 2192.01 1393.11 349.55 2188.41 343.66 2174.77"/>
          <polyline class="cls-20" points="2190.05 1388.56 2195.94 1402.2 353.48 2197.5 347.59 2183.86"/>
          <polyline class="cls-23" points="2193.97 1397.66 2199.86 1411.3 357.4 2206.6 351.51 2192.96"/>
          <polyline class="cls-22" points="2197.9 1406.75 2201.37 1414.8 358.91 2210.1 355.44 2202.05"/>
        </g>
        <g class="cls-4">
          <rect class="cls-1" x="8.57" y="-77.73" width="1836.58" height="1875.49"/>
        </g>
        <g class="cls-7">
          <rect class="cls-9" x="154.59" y="92.66" width="1466.75" height="1445.4"/>
        </g>
        <path class="cls-163" d="M878.96,206.61c292.81,0,541.67,188,632.56,449.87,14.98,55.02,23.03,112.91,23.03,172.68,0,362.07-293.52,655.59-655.59,655.59S223.37,1191.23,223.37,829.16c0-59.77,8.04-117.65,23.03-172.68,90.89-261.87,339.75-449.87,632.56-449.87"/>
      </g>
      <g>
        <g class="cls-6">
          <polyline class="cls-49" points="803.91 255.72 927.62 358.75 356.16 1044.93 232.44 941.89"/>
          <polyline class="cls-49" points="926.62 357.92 929.64 360.43 358.17 1046.6 355.15 1044.09"/>
          <polyline class="cls-49" points="928.63 359.59 931.65 362.11 360.19 1048.28 357.17 1045.76"/>
          <polyline class="cls-49" points="930.65 361.27 933.67 363.78 362.2 1049.96 359.18 1047.44"/>
          <polyline class="cls-48" points="932.66 362.95 935.68 365.46 364.22 1051.63 361.19 1049.12"/>
          <polyline class="cls-42" points="934.67 364.62 937.69 367.14 366.23 1053.31 363.21 1050.8"/>
          <polyline class="cls-42" points="936.69 366.3 939.71 368.82 368.24 1054.99 365.22 1052.47"/>
          <polyline class="cls-42" points="938.7 367.98 941.72 370.49 370.26 1056.67 367.24 1054.15"/>
          <polyline class="cls-43" points="940.72 369.65 943.74 372.17 372.27 1058.34 369.25 1055.83"/>
          <polyline class="cls-43" points="942.73 371.33 945.75 373.85 374.28 1060.02 371.26 1057.5"/>
          <polyline class="cls-47" points="944.74 373.01 947.76 375.52 376.3 1061.7 373.28 1059.18"/>
          <polyline class="cls-47" points="946.76 374.69 949.78 377.2 378.31 1063.37 375.29 1060.86"/>
          <polyline class="cls-47" points="948.77 376.36 951.79 378.88 380.32 1065.05 377.3 1062.54"/>
          <polyline class="cls-47" points="950.78 378.04 953.8 380.56 382.34 1066.73 379.32 1064.21"/>
          <polyline class="cls-73" points="952.8 379.72 955.82 382.23 384.35 1068.4 381.33 1065.89"/>
          <polyline class="cls-73" points="954.81 381.4 957.83 383.91 386.37 1070.08 383.35 1067.57"/>
          <polyline class="cls-74" points="956.82 383.07 959.84 385.59 388.38 1071.76 385.36 1069.24"/>
          <polyline class="cls-74" points="958.84 384.75 961.86 387.26 390.39 1073.44 387.37 1070.92"/>
          <polyline class="cls-74" points="960.85 386.43 963.87 388.94 392.41 1075.11 389.39 1072.6"/>
          <polyline class="cls-74" points="962.87 388.1 965.89 390.62 394.42 1076.79 391.4 1074.27"/>
          <polyline class="cls-74" points="964.88 389.78 967.9 392.3 396.43 1078.47 393.41 1075.95"/>
          <polyline class="cls-74" points="966.89 391.46 969.91 393.97 398.45 1080.14 395.43 1077.63"/>
          <polyline class="cls-76" points="968.91 393.13 971.93 395.65 400.46 1081.82 397.44 1079.31"/>
          <polyline class="cls-76" points="970.92 394.81 973.94 397.33 402.48 1083.5 399.45 1080.98"/>
          <polyline class="cls-76" points="972.93 396.49 975.95 399 404.49 1085.18 401.47 1082.66"/>
          <polyline class="cls-76" points="974.95 398.17 977.97 400.68 406.5 1086.85 403.48 1084.34"/>
          <polyline class="cls-76" points="976.96 399.84 979.98 402.36 408.52 1088.53 405.5 1086.01"/>
          <polyline class="cls-76" points="978.97 401.52 982 404.04 410.53 1090.21 407.51 1087.69"/>
          <polyline class="cls-76" points="980.99 403.2 984.01 405.71 412.54 1091.88 409.52 1089.37"/>
          <polyline class="cls-75" points="983 404.87 986.02 407.39 414.56 1093.56 411.54 1091.05"/>
          <polyline class="cls-75" points="985.02 406.55 988.04 409.07 416.57 1095.24 413.55 1092.72"/>
          <polyline class="cls-57" points="987.03 408.23 990.05 410.74 418.59 1096.92 415.57 1094.4"/>
          <polyline class="cls-57" points="989.04 409.9 992.06 412.42 420.6 1098.59 417.58 1096.08"/>
          <polyline class="cls-57" points="991.06 411.58 994.08 414.1 422.61 1100.27 419.59 1097.75"/>
          <polyline class="cls-57" points="993.07 413.26 996.09 415.77 424.63 1101.95 421.61 1099.43"/>
          <polyline class="cls-64" points="995.08 414.94 998.1 417.45 426.64 1103.62 423.62 1101.11"/>
          <polyline class="cls-63" points="997.1 416.61 1000.12 419.13 428.65 1105.3 425.63 1102.79"/>
          <polyline class="cls-63" points="999.11 418.29 1002.13 420.81 430.67 1106.98 427.65 1104.46"/>
          <polyline class="cls-63" points="1001.13 419.97 1004.15 422.48 432.68 1108.66 429.66 1106.14"/>
          <polyline class="cls-63" points="1003.14 421.64 1006.16 424.16 434.7 1110.33 431.67 1107.82"/>
          <polyline class="cls-60" points="1005.15 423.32 1008.17 425.84 436.71 1112.01 433.69 1109.49"/>
          <polyline class="cls-55" points="1007.17 425 1010.19 427.51 438.72 1113.69 435.7 1111.17"/>
          <polyline class="cls-55" points="1009.18 426.68 1012.2 429.19 440.74 1115.36 437.72 1112.85"/>
          <polyline class="cls-55" points="1011.19 428.35 1014.22 430.87 442.75 1117.04 439.73 1114.52"/>
          <polyline class="cls-55" points="1013.21 430.03 1016.23 432.55 444.76 1118.72 441.74 1116.2"/>
          <polyline class="cls-55" points="1015.22 431.71 1018.24 434.22 446.78 1120.39 443.76 1117.88"/>
          <polyline class="cls-55" points="1017.24 433.38 1020.26 435.9 448.79 1122.07 445.77 1119.56"/>
          <polyline class="cls-56" points="1019.25 435.06 1022.27 437.58 450.8 1123.75 447.78 1121.23"/>
          <polyline class="cls-33" points="1021.26 436.74 1024.28 439.25 452.82 1125.43 449.8 1122.91"/>
          <polyline class="cls-33" points="1023.28 438.42 1026.3 440.93 454.83 1127.1 451.81 1124.59"/>
          <polyline class="cls-32" points="1025.29 440.09 1028.31 442.61 456.85 1128.78 453.83 1126.26"/>
          <polyline class="cls-32" points="1027.3 441.77 1030.32 444.29 458.86 1130.46 455.84 1127.94"/>
          <polyline class="cls-32" points="1029.32 443.45 1032.34 445.96 460.87 1132.13 457.85 1129.62"/>
          <polyline class="cls-32" points="1031.33 445.12 1034.35 447.64 462.89 1133.81 459.87 1131.3"/>
          <polyline class="cls-34" points="1033.35 446.8 1036.37 449.32 464.9 1135.49 461.88 1132.97"/>
          <polyline class="cls-34" points="1035.36 448.48 1038.38 450.99 466.91 1137.17 463.89 1134.65"/>
          <polyline class="cls-34" points="1037.37 450.16 1040.39 452.67 468.93 1138.84 465.91 1136.33"/>
          <polyline class="cls-50" points="1039.39 451.83 1042.41 454.35 470.94 1140.52 467.92 1138"/>
          <polyline class="cls-50" points="1041.4 453.51 1044.42 456.02 472.96 1142.2 469.93 1139.68"/>
          <polyline class="cls-50" points="1043.41 455.19 1046.43 457.7 474.97 1143.87 471.95 1141.36"/>
          <polyline class="cls-53" points="1045.43 456.86 1048.45 459.38 476.98 1145.55 473.96 1143.03"/>
          <polyline class="cls-53" points="1047.44 458.54 1050.46 461.06 479 1147.23 475.98 1144.71"/>
          <polyline class="cls-53" points="1049.45 460.22 1052.48 462.73 481.01 1148.9 477.99 1146.39"/>
          <polyline class="cls-53" points="1051.47 461.89 1054.49 464.41 483.02 1150.58 480 1148.07"/>
          <polyline class="cls-53" points="1053.48 463.57 1056.5 466.09 485.04 1152.26 482.02 1149.74"/>
          <polyline class="cls-51" points="1055.5 465.25 1058.52 467.76 487.05 1153.94 484.03 1151.42"/>
          <polyline class="cls-71" points="1057.51 466.93 1060.53 469.44 489.07 1155.61 486.04 1153.1"/>
          <polyline class="cls-71" points="1059.52 468.6 1062.54 471.12 491.08 1157.29 488.06 1154.77"/>
          <polyline class="cls-71" points="1061.54 470.28 1064.56 472.8 493.09 1158.97 490.07 1156.45"/>
          <polyline class="cls-71" points="1063.55 471.96 1066.57 474.47 495.11 1160.64 492.09 1158.13"/>
          <polyline class="cls-71" points="1065.56 473.63 1068.58 476.15 497.12 1162.32 494.1 1159.81"/>
          <polyline class="cls-71" points="1067.58 475.31 1070.6 477.83 499.13 1164 496.11 1161.48"/>
          <polyline class="cls-71" points="1069.59 476.99 1072.61 479.5 501.15 1165.68 498.13 1163.16"/>
          <polyline class="cls-40" points="1071.61 478.66 1074.63 481.18 503.16 1167.35 500.14 1164.84"/>
          <polyline class="cls-40" points="1073.62 480.34 1076.64 482.86 505.18 1169.03 502.15 1166.51"/>
          <polyline class="cls-31" points="1075.63 482.02 1078.65 484.53 507.19 1170.71 504.17 1168.19"/>
          <polyline class="cls-31" points="1077.65 483.7 1080.67 486.21 509.2 1172.38 506.18 1169.87"/>
          <polyline class="cls-31" points="1079.66 485.37 1082.68 487.89 511.22 1174.06 508.2 1171.55"/>
          <polyline class="cls-31" points="1081.67 487.05 1084.69 489.57 513.23 1175.74 510.21 1173.22"/>
          <polyline class="cls-35" points="1083.69 488.73 1086.71 491.24 515.24 1177.42 512.22 1174.9"/>
          <polyline class="cls-35" points="1085.7 490.4 1088.72 492.92 517.26 1179.09 514.24 1176.58"/>
          <polyline class="cls-35" points="1087.72 492.08 1090.74 494.6 519.27 1180.77 516.25 1178.25"/>
          <polyline class="cls-35" points="1089.73 493.76 1092.75 496.27 521.28 1182.45 518.26 1179.93"/>
          <polyline class="cls-59" points="1091.74 495.44 1094.76 497.95 523.3 1184.12 520.28 1181.61"/>
          <polyline class="cls-59" points="1093.76 497.11 1096.78 499.63 525.31 1185.8 522.29 1183.29"/>
          <polyline class="cls-65" points="1095.77 498.79 1098.79 501.31 527.33 1187.48 524.31 1184.96"/>
          <polyline class="cls-65" points="1097.78 500.47 1100.8 502.98 529.34 1189.15 526.32 1186.64"/>
          <polyline class="cls-65" points="1099.8 502.14 1102.82 504.66 531.35 1190.83 528.33 1188.32"/>
          <polyline class="cls-65" points="1101.81 503.82 1104.83 506.34 533.37 1192.51 530.35 1189.99"/>
          <polyline class="cls-65" points="1103.83 505.5 1106.85 508.01 535.38 1194.19 532.36 1191.67"/>
          <polyline class="cls-65" points="1105.84 507.18 1108.86 509.69 537.39 1195.86 534.37 1193.35"/>
          <polyline class="cls-61" points="1107.85 508.85 1110.87 511.37 539.41 1197.54 536.39 1195.02"/>
          <polyline class="cls-45" points="1109.87 510.53 1112.89 513.05 541.42 1199.22 538.4 1196.7"/>
          <polyline class="cls-46" points="1111.88 512.21 1114.9 514.72 543.44 1200.89 540.41 1198.38"/>
          <polyline class="cls-46" points="1113.89 513.88 1116.91 516.4 545.45 1202.57 542.43 1200.06"/>
          <polyline class="cls-46" points="1115.91 515.56 1118.93 518.08 547.46 1204.25 544.44 1201.73"/>
          <polyline class="cls-46" points="1117.92 517.24 1120.94 519.75 549.48 1205.93 546.46 1203.41"/>
          <polyline class="cls-46" points="1119.93 518.92 1122.96 521.43 551.49 1207.6 548.47 1205.09"/>
          <polyline class="cls-44" points="1121.95 520.59 1124.97 523.11 553.5 1209.28 550.48 1206.76"/>
          <polyline class="cls-44" points="1123.96 522.27 1126.98 524.78 555.52 1210.96 552.5 1208.44"/>
          <polyline class="cls-44" points="1125.98 523.95 1129 526.46 557.53 1212.63 554.51 1210.12"/>
          <polyline class="cls-39" points="1127.99 525.62 1131.01 528.14 559.54 1214.31 556.52 1211.8"/>
          <polyline class="cls-39" points="1130 527.3 1133.02 529.82 561.56 1215.99 558.54 1213.47"/>
          <polyline class="cls-39" points="1132.02 528.98 1135.04 531.49 563.57 1217.67 560.55 1215.15"/>
          <polyline class="cls-37" points="1134.03 530.65 1137.05 533.17 565.59 1219.34 562.57 1216.83"/>
          <polyline class="cls-37" points="1136.04 532.33 1139.06 534.85 567.6 1221.02 564.58 1218.5"/>
          <polyline class="cls-37" points="1138.06 534.01 1141.08 536.52 569.61 1222.7 566.59 1220.18"/>
          <polyline class="cls-37" points="1140.07 535.69 1143.09 538.2 571.63 1224.37 568.61 1221.86"/>
          <polyline class="cls-38" points="1142.09 537.36 1145.11 539.88 573.64 1226.05 570.62 1223.54"/>
          <polyline class="cls-69" points="1144.1 539.04 1147.12 541.56 575.66 1227.73 572.63 1225.21"/>
          <polyline class="cls-70" points="1146.11 540.72 1149.13 543.23 577.67 1229.41 574.65 1226.89"/>
          <polyline class="cls-70" points="1148.13 542.39 1151.15 544.91 579.68 1231.08 576.66 1228.57"/>
          <polyline class="cls-70" points="1150.14 544.07 1153.16 546.59 581.7 1232.76 578.68 1230.24"/>
          <polyline class="cls-70" points="1152.15 545.75 1155.17 548.26 583.71 1234.44 580.69 1231.92"/>
          <polyline class="cls-70" points="1154.17 547.42 1157.19 549.94 585.72 1236.11 582.7 1233.6"/>
          <polyline class="cls-70" points="1156.18 549.1 1159.2 551.62 587.74 1237.79 584.72 1235.27"/>
          <polyline class="cls-68" points="1158.19 550.78 1161.22 553.3 589.75 1239.47 586.73 1236.95"/>
          <polyline class="cls-68" points="1160.21 552.46 1163.23 554.97 591.76 1241.14 588.74 1238.63"/>
          <polyline class="cls-155" points="1162.22 554.13 1165.24 556.65 593.78 1242.82 590.76 1240.31"/>
          <polyline class="cls-155" points="1164.24 555.81 1167.26 558.33 595.79 1244.5 592.77 1241.98"/>
          <polyline class="cls-155" points="1166.25 557.49 1169.27 560 597.81 1246.18 594.79 1243.66"/>
          <polyline class="cls-155" points="1168.26 559.17 1171.28 561.68 599.82 1247.85 596.8 1245.34"/>
          <polyline class="cls-156" points="1170.28 560.84 1173.3 563.36 601.83 1249.53 598.81 1247.01"/>
          <polyline class="cls-126" points="1172.29 562.52 1175.31 565.04 603.85 1251.21 600.83 1248.69"/>
          <polyline class="cls-126" points="1174.31 564.2 1177.33 566.71 605.86 1252.88 602.84 1250.37"/>
          <polyline class="cls-126" points="1176.32 565.87 1179.34 568.39 607.87 1254.56 604.85 1252.05"/>
          <polyline class="cls-126" points="1178.33 567.55 1181.35 570.07 609.89 1256.24 606.87 1253.72"/>
          <polyline class="cls-124" points="1180.35 569.23 1183.37 571.74 611.9 1257.91 608.88 1255.4"/>
          <polyline class="cls-124" points="1182.36 570.9 1185.38 573.42 613.92 1259.59 610.89 1257.08"/>
          <polyline class="cls-123" points="1184.37 572.58 1187.39 575.1 615.93 1261.27 612.91 1258.75"/>
          <polyline class="cls-123" points="1186.39 574.26 1189.41 576.77 617.94 1262.95 614.92 1260.43"/>
          <polyline class="cls-123" points="1188.4 575.94 1191.42 578.45 619.96 1264.62 616.94 1262.11"/>
          <polyline class="cls-123" points="1190.41 577.61 1193.44 580.13 621.97 1266.3 618.95 1263.79"/>
          <polyline class="cls-123" points="1192.43 579.29 1195.45 581.81 623.98 1267.98 620.96 1265.46"/>
          <polyline class="cls-123" points="1194.44 580.97 1197.46 583.48 626 1269.65 622.98 1267.14"/>
          <polyline class="cls-231" points="1196.46 582.64 1199.48 585.16 628.01 1271.33 624.99 1268.82"/>
          <polyline class="cls-230" points="1198.47 584.32 1201.49 586.84 630.02 1273.01 627 1270.49"/>
          <polyline class="cls-230" points="1200.48 586 1203.5 588.51 632.04 1274.69 629.02 1272.17"/>
          <polyline class="cls-230" points="1202.5 587.68 1205.52 590.19 634.05 1276.36 631.03 1273.85"/>
          <polyline class="cls-230" points="1204.51 589.35 1207.53 591.87 636.07 1278.04 633.05 1275.52"/>
          <polyline class="cls-230" points="1206.52 591.03 1209.54 593.54 638.08 1279.72 635.06 1277.2"/>
          <polyline class="cls-229" points="1208.54 592.71 1211.56 595.22 640.09 1281.39 637.07 1278.88"/>
          <polyline class="cls-229" points="1210.55 594.38 1213.57 596.9 642.11 1283.07 639.09 1280.56"/>
          <polyline class="cls-229" points="1212.57 596.06 1215.59 598.58 644.12 1284.75 641.1 1282.23"/>
          <polyline class="cls-219" points="1214.58 597.74 1217.6 600.25 646.14 1286.43 643.11 1283.91"/>
          <polyline class="cls-219" points="1216.59 599.41 1219.61 601.93 648.15 1288.1 645.13 1285.59"/>
          <polyline class="cls-219" points="1218.61 601.09 1221.63 603.61 650.16 1289.78 647.14 1287.26"/>
          <polyline class="cls-219" points="1220.62 602.77 1223.64 605.28 652.18 1291.46 649.16 1288.94"/>
          <polyline class="cls-221" points="1222.63 604.45 1225.65 606.96 654.19 1293.13 651.17 1290.62"/>
          <polyline class="cls-221" points="1224.65 606.12 1227.67 608.64 656.2 1294.81 653.18 1292.3"/>
          <polyline class="cls-220" points="1226.66 607.8 1229.68 610.32 658.22 1296.49 655.2 1293.97"/>
          <polyline class="cls-220" points="1228.67 609.48 1231.7 611.99 660.23 1298.17 657.21 1295.65"/>
          <polyline class="cls-220" points="1230.69 611.15 1233.71 613.67 662.24 1299.84 659.22 1297.33"/>
          <polyline class="cls-209" points="1232.7 612.83 1235.72 615.35 664.26 1301.52 661.24 1299"/>
          <polyline class="cls-207" points="1234.72 614.51 1237.74 617.02 666.27 1303.2 663.25 1300.68"/>
          <polyline class="cls-207" points="1236.73 616.19 1239.75 618.7 668.29 1304.87 665.27 1302.36"/>
          <polyline class="cls-207" points="1238.74 617.86 1241.76 620.38 670.3 1306.55 667.28 1304.03"/>
          <polyline class="cls-207" points="1240.76 619.54 1243.78 622.06 672.31 1308.23 669.29 1305.71"/>
          <polyline class="cls-207" points="1242.77 621.22 1245.79 623.73 674.33 1309.9 671.31 1307.39"/>
          <polyline class="cls-207" points="1244.79 622.89 1247.81 625.41 676.34 1311.58 673.32 1309.07"/>
          <polyline class="cls-206" points="1246.8 624.57 1249.82 627.09 678.35 1313.26 675.33 1310.74"/>
          <polyline class="cls-206" points="1248.81 626.25 1251.83 628.76 680.37 1314.94 677.35 1312.42"/>
          <polyline class="cls-205" points="1250.83 627.93 1253.85 630.44 682.38 1316.61 679.36 1314.1"/>
          <polyline class="cls-205" points="1252.84 629.6 1255.86 632.12 684.4 1318.29 681.37 1315.77"/>
          <polyline class="cls-205" points="1254.85 631.28 1257.87 633.8 686.41 1319.97 683.39 1317.45"/>
          <polyline class="cls-204" points="1256.87 632.96 1259.89 635.47 688.42 1321.64 685.4 1319.13"/>
          <polyline class="cls-203" points="1258.88 634.63 1261.9 637.15 690.44 1323.32 687.42 1320.81"/>
          <polyline class="cls-203" points="1260.89 636.31 1263.92 638.83 692.45 1325 689.43 1322.48"/>
          <polyline class="cls-203" points="1262.91 637.99 1265.93 640.5 694.46 1326.68 691.44 1324.16"/>
          <polyline class="cls-203" points="1264.92 639.66 1267.94 642.18 696.48 1328.35 693.46 1325.84"/>
          <polyline class="cls-195" points="1266.94 641.34 1269.96 643.86 698.49 1330.03 695.47 1327.51"/>
          <polyline class="cls-195" points="1268.95 643.02 1271.97 645.53 700.5 1331.71 697.48 1329.19"/>
          <polyline class="cls-195" points="1270.96 644.7 1273.98 647.21 702.52 1333.38 699.5 1330.87"/>
          <polyline class="cls-196" points="1272.98 646.37 1276 648.89 704.53 1335.06 701.51 1332.55"/>
          <polyline class="cls-196" points="1274.99 648.05 1278.01 650.57 706.55 1336.74 703.53 1334.22"/>
          <polyline class="cls-196" points="1277 649.73 1280.02 652.24 708.56 1338.42 705.54 1335.9"/>
          <polyline class="cls-196" points="1279.02 651.4 1282.04 653.92 710.57 1340.09 707.55 1337.58"/>
          <polyline class="cls-196" points="1281.03 653.08 1284.05 655.6 712.59 1341.77 709.57 1339.25"/>
          <polyline class="cls-196" points="1283.05 654.76 1286.07 657.27 714.6 1343.45 711.58 1340.93"/>
          <polyline class="cls-115" points="1285.06 656.44 1288.08 658.95 716.62 1345.12 713.59 1342.61"/>
          <polyline class="cls-115" points="1287.07 658.11 1290.09 660.63 718.63 1346.8 715.61 1344.29"/>
          <polyline class="cls-115" points="1289.09 659.79 1292.11 662.3 720.64 1348.48 717.62 1345.96"/>
          <polyline class="cls-96" points="1291.1 661.47 1294.12 663.98 722.66 1350.15 719.64 1347.64"/>
          <polyline class="cls-117" points="1293.11 663.14 1296.13 665.66 724.67 1351.83 721.65 1349.32"/>
          <polyline class="cls-119" points="1295.13 664.82 1298.15 667.34 726.68 1353.51 723.66 1350.99"/>
          <polyline class="cls-118" points="1297.14 666.5 1300.16 669.01 728.7 1355.19 725.68 1352.67"/>
          <polyline class="cls-87" points="1299.16 668.17 1302.18 670.69 730.71 1356.86 727.69 1354.35"/>
          <polyline class="cls-86" points="1301.17 669.85 1304.19 672.37 732.72 1358.54 729.7 1356.02"/>
          <polyline class="cls-86" points="1303.18 671.53 1306.2 674.05 734.74 1360.22 731.72 1357.7"/>
          <polyline class="cls-86" points="1305.2 673.21 1308.22 675.72 736.75 1361.89 733.73 1359.38"/>
          <polyline class="cls-280" points="1307.21 674.88 1310.23 677.4 738.77 1363.57 735.75 1361.06"/>
          <polyline class="cls-279" points="1309.22 676.56 1312.24 679.08 740.78 1365.25 737.76 1362.73"/>
          <polyline class="cls-218" points="1311.24 678.24 1314.26 680.75 742.79 1366.93 739.77 1364.41"/>
          <polyline class="cls-218" points="1313.25 679.92 1316.27 682.43 744.81 1368.6 741.79 1366.09"/>
          <polyline class="cls-125" points="1315.27 681.59 1318.29 684.11 746.82 1370.28 743.8 1367.76"/>
          <polyline class="cls-122" points="1317.28 683.27 1320.3 685.78 748.83 1371.96 745.81 1369.44"/>
          <polyline class="cls-122" points="1319.29 684.95 1322.31 687.46 750.85 1373.63 747.83 1371.12"/>
          <polyline class="cls-121" points="1321.31 686.62 1324.33 689.14 752.86 1375.31 749.84 1372.79"/>
          <polyline class="cls-95" points="1323.32 688.3 1326.34 690.82 754.88 1376.99 751.85 1374.47"/>
          <polyline class="cls-95" points="1325.33 689.98 1328.35 692.49 756.89 1378.67 753.87 1376.15"/>
          <polyline class="cls-94" points="1327.35 691.65 1330.37 694.17 758.9 1380.34 755.88 1377.83"/>
          <polyline class="cls-92" points="1329.36 693.33 1332.38 695.85 760.92 1382.02 757.9 1379.5"/>
          <polyline class="cls-92" points="1331.37 695.01 1334.4 697.52 762.93 1383.7 759.91 1381.18"/>
          <polyline class="cls-89" points="1333.39 696.69 1336.41 699.2 764.94 1385.37 761.92 1382.86"/>
          <polyline class="cls-89" points="1335.4 698.36 1338.42 700.88 766.96 1387.05 763.94 1384.53"/>
          <polyline class="cls-82" points="1337.42 700.04 1340.44 702.56 768.97 1388.73 765.95 1386.21"/>
          <polyline class="cls-81" points="1339.43 701.72 1342.45 704.23 770.98 1390.41 767.96 1387.89"/>
          <polyline class="cls-81" points="1341.44 703.39 1344.46 705.91 773 1392.08 769.98 1389.57"/>
          <polyline class="cls-81" points="1343.46 705.07 1346.48 707.59 775.01 1393.76 771.99 1391.24"/>
          <polyline class="cls-20" points="1345.47 706.75 1348.49 709.26 777.03 1395.44 774 1392.92"/>
          <polyline class="cls-23" points="1347.48 708.42 1350.5 710.94 779.04 1397.11 776.02 1394.6"/>
          <polyline class="cls-22" points="1349.5 710.1 1352.52 712.62 781.05 1398.79 778.03 1396.27"/>
          <polyline class="cls-22" points="1351.51 711.78 1354.53 714.29 783.07 1400.47 780.05 1397.95"/>
          <polyline class="cls-30" points="1353.53 713.46 1356.55 715.97 785.08 1402.14 782.06 1399.63"/>
          <polyline class="cls-28" points="1355.54 715.13 1358.56 717.65 787.09 1403.82 784.07 1401.31"/>
          <polyline class="cls-28" points="1357.55 716.81 1360.57 719.33 789.11 1405.5 786.09 1402.98"/>
          <polyline class="cls-211" points="1359.57 718.49 1362.59 721 791.12 1407.18 788.1 1404.66"/>
          <polyline class="cls-212" points="1361.58 720.16 1364.6 722.68 793.14 1408.85 790.12 1406.34"/>
          <polyline class="cls-212" points="1363.59 721.84 1366.62 724.36 795.15 1410.53 792.13 1408.01"/>
          <polyline class="cls-210" points="1365.61 723.52 1368.63 726.03 797.16 1412.21 794.14 1409.69"/>
          <polyline class="cls-201" points="1367.62 725.2 1370.64 727.71 799.18 1413.88 796.16 1411.37"/>
          <polyline class="cls-201" points="1369.64 726.87 1372.66 729.39 801.19 1415.56 798.17 1413.05"/>
          <polyline class="cls-202" points="1371.65 728.55 1374.67 731.07 803.2 1417.24 800.18 1414.72"/>
          <polyline class="cls-202" points="1373.66 730.23 1376.68 732.74 805.22 1418.91 802.2 1416.4"/>
          <polyline class="cls-24" points="1375.68 731.9 1378.7 734.42 807.23 1420.59 804.21 1418.08"/>
          <polyline class="cls-26" points="1377.69 733.58 1380.71 736.1 809.25 1422.27 806.23 1419.75"/>
          <polyline class="cls-26" points="1379.7 735.26 1382.72 737.77 811.26 1423.95 808.24 1421.43"/>
          <polyline class="cls-27" points="1381.72 736.94 1384.74 739.45 813.27 1425.62 810.25 1423.11"/>
          <polyline class="cls-11" points="1383.73 738.61 1386.75 741.13 815.29 1427.3 812.27 1424.78"/>
          <polyline class="cls-11" points="1385.74 740.29 1388.77 742.81 817.3 1428.98 814.28 1426.46"/>
          <polyline class="cls-12" points="1387.76 741.97 1390.78 744.48 819.31 1430.65 816.29 1428.14"/>
          <polyline class="cls-16" points="1389.77 743.64 1392.79 746.16 821.33 1432.33 818.31 1429.82"/>
          <polyline class="cls-16" points="1391.79 745.32 1394.81 747.84 823.34 1434.01 820.32 1431.49"/>
          <polyline class="cls-19" points="1393.8 747 1396.82 749.51 825.36 1435.69 822.33 1433.17"/>
          <polyline class="cls-17" points="1395.81 748.68 1398.83 751.19 827.37 1437.36 824.35 1434.85"/>
          <polyline class="cls-14" points="1397.83 750.35 1400.85 752.87 829.38 1439.04 826.36 1436.52"/>
          <polyline class="cls-14" points="1399.84 752.03 1402.86 754.54 831.4 1440.72 828.38 1438.2"/>
          <polyline class="cls-14" points="1401.85 753.71 1404.88 756.22 833.41 1442.39 830.39 1439.88"/>
          <polyline class="cls-15" points="1403.87 755.38 1406.89 757.9 835.42 1444.07 832.4 1441.56"/>
          <polyline class="cls-226" points="1405.88 757.06 1408.9 759.58 837.44 1445.75 834.42 1443.23"/>
          <polyline class="cls-225" points="1407.9 758.74 1410.92 761.25 839.45 1447.42 836.43 1444.91"/>
          <polyline class="cls-227" points="1409.91 760.41 1412.93 762.93 841.46 1449.1 838.44 1446.59"/>
          <polyline class="cls-235" points="1411.92 762.09 1414.94 764.61 843.48 1450.78 840.46 1448.26"/>
          <polyline class="cls-224" points="1413.94 763.77 1416.96 766.28 845.49 1452.46 842.47 1449.94"/>
          <polyline class="cls-224" points="1415.95 765.45 1418.97 767.96 847.51 1454.13 844.48 1451.62"/>
          <polyline class="cls-224" points="1417.96 767.12 1420.98 769.64 849.52 1455.81 846.5 1453.3"/>
          <polyline class="cls-216" points="1419.98 768.8 1423 771.32 851.53 1457.49 848.51 1454.97"/>
          <polyline class="cls-216" points="1421.99 770.48 1425.01 772.99 853.55 1459.17 850.53 1456.65"/>
          <polyline class="cls-216" points="1424.01 772.15 1427.03 774.67 855.56 1460.84 852.54 1458.33"/>
          <polyline class="cls-217" points="1426.02 773.83 1429.04 776.35 857.57 1462.52 854.55 1460"/>
          <polyline class="cls-79" points="1428.03 775.51 1431.05 778.02 859.59 1464.2 856.57 1461.68"/>
          <polyline class="cls-80" points="1430.05 777.18 1433.07 779.7 861.6 1465.87 858.58 1463.36"/>
          <polyline class="cls-78" points="1432.06 778.86 1435.08 781.38 863.62 1467.55 860.59 1465.03"/>
          <polyline class="cls-78" points="1434.07 780.54 1437.09 783.05 865.63 1469.23 862.61 1466.71"/>
          <polyline class="cls-242" points="1436.09 782.22 1439.11 784.73 867.64 1470.9 864.62 1468.39"/>
          <polyline class="cls-242" points="1438.1 783.89 1449.91 793.73 878.45 1479.9 866.64 1470.07"/>
        </g>
        <g class="cls-5">
          <polyline class="cls-194" points="239.63 876.9 240.32 876.16 843.88 1434.14 843.2 1434.88"/>
          <polyline class="cls-173" points="238.87 877.72 243.22 873.02 846.78 1431.01 842.43 1435.71"/>
          <polyline class="cls-173" points="241.77 874.59 246.12 869.88 849.68 1427.87 845.33 1432.57"/>
          <polyline class="cls-265" points="244.67 871.45 249.02 866.75 852.58 1424.73 848.23 1429.44"/>
          <polyline class="cls-268" points="247.57 868.31 251.92 863.61 855.48 1421.6 851.13 1426.3"/>
          <polyline class="cls-264" points="250.47 865.18 254.82 860.47 858.38 1418.46 854.03 1423.17"/>
          <polyline class="cls-240" points="253.37 862.04 257.72 857.34 861.28 1415.32 856.93 1420.03"/>
          <polyline class="cls-240" points="256.27 858.9 260.62 854.2 864.18 1412.19 859.83 1416.89"/>
          <polyline class="cls-244" points="259.17 855.77 263.52 851.06 867.08 1409.05 862.73 1413.76"/>
          <polyline class="cls-251" points="262.07 852.63 266.42 847.93 869.98 1405.91 865.63 1410.62"/>
          <polyline class="cls-251" points="264.97 849.49 269.32 844.79 872.88 1402.78 868.53 1407.48"/>
          <polyline class="cls-250" points="267.87 846.36 272.22 841.65 875.78 1399.64 871.43 1404.34"/>
          <polyline class="cls-232" points="270.77 843.22 275.12 838.51 878.68 1396.5 874.33 1401.21"/>
          <polyline class="cls-232" points="273.67 840.08 278.02 835.38 881.58 1393.37 877.23 1398.07"/>
          <polyline class="cls-248" points="276.57 836.95 280.92 832.24 884.48 1390.23 880.13 1394.93"/>
          <polyline class="cls-247" points="279.47 833.81 283.82 829.1 887.38 1387.09 883.03 1391.8"/>
          <polyline class="cls-243" points="282.37 830.67 286.72 825.97 890.28 1383.96 885.93 1388.66"/>
          <polyline class="cls-242" points="285.27 827.54 289.62 822.83 893.18 1380.82 888.83 1385.52"/>
          <polyline class="cls-242" points="288.17 824.4 292.52 819.7 896.08 1377.68 891.73 1382.39"/>
          <polyline class="cls-153" points="291.07 821.26 295.42 816.56 898.98 1374.55 894.63 1379.25"/>
          <polyline class="cls-154" points="293.97 818.13 298.31 813.42 901.88 1371.41 897.53 1376.11"/>
          <polyline class="cls-154" points="296.87 814.99 301.22 810.28 904.78 1368.27 900.43 1372.98"/>
          <polyline class="cls-270" points="299.77 811.85 304.12 807.15 907.68 1365.14 903.33 1369.84"/>
          <polyline class="cls-270" points="302.66 808.72 307.01 804.01 910.58 1362 906.23 1366.7"/>
          <polyline class="cls-271" points="305.57 805.58 309.91 800.87 913.48 1358.86 909.13 1363.57"/>
          <polyline class="cls-273" points="308.47 802.44 312.82 797.74 916.38 1355.73 912.03 1360.43"/>
          <polyline class="cls-273" points="311.36 799.31 315.71 794.6 919.28 1352.59 914.93 1357.29"/>
          <polyline class="cls-272" points="314.26 796.17 318.61 791.46 922.18 1349.45 917.83 1354.16"/>
          <polyline class="cls-245" points="317.17 793.03 321.51 788.33 925.08 1346.31 920.73 1351.02"/>
          <polyline class="cls-245" points="320.06 789.9 324.41 785.19 927.98 1343.18 923.63 1347.88"/>
          <polyline class="cls-233" points="322.96 786.76 327.31 782.05 930.88 1340.04 926.53 1344.75"/>
          <polyline class="cls-233" points="325.86 783.62 330.21 778.92 933.78 1336.9 929.43 1341.61"/>
          <polyline class="cls-255" points="328.76 780.48 333.11 775.78 936.68 1333.77 932.33 1338.47"/>
          <polyline class="cls-260" points="331.66 777.35 336.01 772.64 939.58 1330.63 935.23 1335.34"/>
          <polyline class="cls-260" points="334.56 774.21 338.91 769.51 942.48 1327.49 938.13 1332.2"/>
          <polyline class="cls-236" points="337.46 771.07 341.81 766.37 945.38 1324.36 941.03 1329.06"/>
          <polyline class="cls-281" points="340.36 767.94 344.71 763.23 948.28 1321.22 943.93 1325.93"/>
          <polyline class="cls-281" points="343.26 764.8 347.61 760.1 951.18 1318.08 946.83 1322.79"/>
          <polyline class="cls-282" points="346.16 761.67 350.51 756.96 954.08 1314.95 949.73 1319.65"/>
          <polyline class="cls-282" points="349.06 758.53 353.41 753.82 956.98 1311.81 952.63 1316.52"/>
          <polyline class="cls-267" points="351.96 755.39 356.31 750.69 959.88 1308.67 955.53 1313.38"/>
          <polyline class="cls-257" points="354.86 752.25 359.21 747.55 962.78 1305.54 958.43 1310.24"/>
          <polyline class="cls-257" points="357.76 749.12 362.11 744.41 965.68 1302.4 961.33 1307.11"/>
          <polyline class="cls-256" points="360.66 745.98 365.01 741.28 968.58 1299.26 964.23 1303.97"/>
          <polyline class="cls-261" points="363.56 742.84 367.91 738.14 971.48 1296.13 967.13 1300.83"/>
          <polyline class="cls-262" points="366.46 739.71 370.81 735 974.38 1292.99 970.03 1297.7"/>
          <polyline class="cls-259" points="369.36 736.57 373.71 731.87 977.28 1289.85 972.93 1294.56"/>
          <polyline class="cls-259" points="372.26 733.43 376.61 728.73 980.18 1286.72 975.83 1291.42"/>
          <polyline class="cls-241" points="375.16 730.3 379.51 725.59 983.08 1283.58 978.73 1288.28"/>
          <polyline class="cls-234" points="378.06 727.16 382.41 722.46 985.97 1280.44 981.62 1285.15"/>
          <polyline class="cls-234" points="380.96 724.02 385.31 719.32 988.88 1277.31 984.53 1282.01"/>
          <polyline class="cls-258" points="383.86 720.89 388.21 716.18 991.78 1274.17 987.43 1278.87"/>
          <polyline class="cls-239" points="386.76 717.75 391.11 713.05 994.67 1271.03 990.32 1275.74"/>
          <polyline class="cls-239" points="389.66 714.61 394.01 709.91 997.57 1267.9 993.22 1272.6"/>
          <polyline class="cls-263" points="392.56 711.48 396.91 706.77 1000.48 1264.76 996.13 1269.46"/>
          <polyline class="cls-263" points="395.46 708.34 399.81 703.64 1003.37 1261.62 999.02 1266.33"/>
          <polyline class="cls-269" points="398.36 705.2 402.71 700.5 1006.27 1258.49 1001.92 1263.19"/>
          <polyline class="cls-290" points="401.26 702.07 405.61 697.36 1009.17 1255.35 1004.82 1260.05"/>
          <polyline class="cls-290" points="404.16 698.93 408.51 694.23 1012.07 1252.21 1007.72 1256.92"/>
          <polyline class="cls-238" points="407.06 695.79 411.41 691.09 1014.97 1249.08 1010.62 1253.78"/>
          <polyline class="cls-284" points="409.96 692.66 414.31 687.95 1017.87 1245.94 1013.52 1250.64"/>
          <polyline class="cls-284" points="412.86 689.52 417.21 684.81 1020.77 1242.8 1016.42 1247.51"/>
          <polyline class="cls-276" points="415.76 686.38 420.11 681.68 1023.67 1239.67 1019.32 1244.37"/>
          <polyline class="cls-276" points="418.66 683.25 423.01 678.54 1026.57 1236.53 1022.22 1241.23"/>
          <polyline class="cls-278" points="421.56 680.11 425.91 675.4 1029.47 1233.39 1025.12 1238.1"/>
          <polyline class="cls-285" points="424.46 676.97 428.81 672.27 1032.37 1230.25 1028.02 1234.96"/>
          <polyline class="cls-285" points="427.36 673.84 431.71 669.13 1035.27 1227.12 1030.92 1231.82"/>
          <polyline class="cls-287" points="430.26 670.7 434.61 665.99 1038.17 1223.98 1033.82 1228.69"/>
          <polyline class="cls-283" points="433.16 667.56 437.51 662.86 1041.07 1220.84 1036.72 1225.55"/>
          <polyline class="cls-283" points="436.06 664.43 440.41 659.72 1043.97 1217.71 1039.62 1222.41"/>
          <polyline class="cls-246" points="438.96 661.29 443.31 656.58 1046.87 1214.57 1042.52 1219.28"/>
          <polyline class="cls-288" points="441.86 658.15 446.21 653.45 1049.77 1211.43 1045.42 1216.14"/>
          <polyline class="cls-253" points="444.76 655.02 449.11 650.31 1052.67 1208.3 1048.32 1213"/>
          <polyline class="cls-254" points="447.66 651.88 452.01 647.17 1055.57 1205.16 1051.22 1209.87"/>
          <polyline class="cls-237" points="450.56 648.74 454.91 644.04 1058.47 1202.02 1054.12 1206.73"/>
          <polyline class="cls-266" points="453.46 645.61 457.81 640.9 1061.37 1198.89 1057.02 1203.59"/>
          <polyline class="cls-252" points="456.36 642.47 460.71 637.76 1064.27 1195.75 1059.92 1200.46"/>
          <polyline class="cls-252" points="459.26 639.33 463.61 634.63 1067.17 1192.61 1062.82 1197.32"/>
          <polyline class="cls-291" points="462.16 636.2 466.51 631.49 1070.07 1189.48 1065.72 1194.18"/>
          <polyline class="cls-286" points="465.06 633.06 469.41 628.35 1072.97 1186.34 1068.62 1191.05"/>
          <polyline class="cls-277" points="467.96 629.92 472.31 625.22 1075.87 1183.2 1071.52 1187.91"/>
          <polyline class="cls-275" points="470.86 626.78 475.21 622.08 1078.77 1180.07 1074.42 1184.77"/>
          <polyline class="cls-292" points="473.76 623.65 478.11 618.94 1081.67 1176.93 1077.32 1181.64"/>
          <polyline class="cls-103" points="476.66 620.51 481.01 615.81 1084.57 1173.79 1080.22 1178.5"/>
          <polyline class="cls-108" points="479.56 617.37 483.91 612.67 1087.47 1170.66 1083.12 1175.36"/>
          <polyline class="cls-108" points="482.46 614.24 486.81 609.53 1090.37 1167.52 1086.02 1172.22"/>
          <polyline class="cls-113" points="485.36 611.1 489.71 606.4 1093.27 1164.38 1088.92 1169.09"/>
          <polyline class="cls-169" points="488.26 607.96 492.61 603.26 1096.17 1161.25 1091.82 1165.95"/>
          <polyline class="cls-165" points="491.16 604.83 495.51 600.12 1099.07 1158.11 1094.72 1162.81"/>
          <polyline class="cls-166" points="494.06 601.69 498.41 596.99 1101.97 1154.97 1097.62 1159.68"/>
          <polyline class="cls-166" points="496.96 598.55 501.31 593.85 1104.87 1151.84 1100.52 1156.54"/>
          <polyline class="cls-214" points="499.86 595.42 504.21 590.71 1107.77 1148.7 1103.42 1153.4"/>
          <polyline class="cls-213" points="502.76 592.28 507.11 587.58 1110.67 1145.56 1106.32 1150.27"/>
          <polyline class="cls-168" points="505.66 589.14 510.01 584.44 1113.57 1142.43 1109.22 1147.13"/>
          <polyline class="cls-168" points="508.56 586.01 512.91 581.3 1116.47 1139.29 1112.12 1143.99"/>
          <polyline class="cls-100" points="511.46 582.87 515.81 578.17 1119.37 1136.15 1115.02 1140.86"/>
          <polyline class="cls-164" points="514.36 579.73 518.71 575.03 1122.27 1133.02 1117.92 1137.72"/>
          <polyline class="cls-159" points="517.26 576.6 521.61 571.89 1125.17 1129.88 1120.82 1134.58"/>
          <polyline class="cls-159" points="520.16 573.46 524.51 568.75 1128.07 1126.74 1123.72 1131.45"/>
          <polyline class="cls-161" points="523.06 570.32 527.41 565.62 1130.97 1123.61 1126.62 1128.31"/>
          <polyline class="cls-157" points="525.96 567.19 530.31 562.48 1133.87 1120.47 1129.52 1125.17"/>
          <polyline class="cls-112" points="528.86 564.05 533.21 559.34 1136.77 1117.33 1132.42 1122.04"/>
          <polyline class="cls-112" points="531.76 560.91 536.11 556.21 1139.67 1114.19 1135.32 1118.9"/>
          <polyline class="cls-110" points="534.66 557.78 539.01 553.07 1142.57 1111.06 1138.22 1115.76"/>
          <polyline class="cls-99" points="537.56 554.64 541.91 549.93 1145.47 1107.92 1141.12 1112.63"/>
          <polyline class="cls-97" points="540.46 551.5 544.81 546.8 1148.37 1104.78 1144.02 1109.49"/>
          <polyline class="cls-107" points="543.36 548.37 547.71 543.66 1151.27 1101.65 1146.92 1106.35"/>
          <polyline class="cls-107" points="546.26 545.23 550.61 540.52 1154.17 1098.51 1149.82 1103.22"/>
          <polyline class="cls-109" points="549.16 542.09 553.5 537.39 1157.07 1095.37 1152.72 1100.08"/>
          <polyline class="cls-111" points="552.06 538.96 556.41 534.25 1159.97 1092.24 1155.62 1096.94"/>
          <polyline class="cls-101" points="554.96 535.82 559.31 531.11 1162.87 1089.1 1158.52 1093.81"/>
          <polyline class="cls-101" points="557.85 532.68 562.2 527.98 1165.77 1085.96 1161.42 1090.67"/>
          <polyline class="cls-102" points="560.76 529.55 565.1 524.84 1168.67 1082.83 1164.32 1087.53"/>
          <polyline class="cls-167" points="563.66 526.41 568.01 521.7 1171.57 1079.69 1167.22 1084.4"/>
          <polyline class="cls-162" points="566.55 523.27 570.9 518.57 1174.47 1076.55 1170.12 1081.26"/>
          <polyline class="cls-162" points="569.45 520.14 573.8 515.43 1177.37 1073.42 1173.02 1078.12"/>
          <polyline class="cls-158" points="572.36 517 576.7 512.29 1180.27 1070.28 1175.92 1074.99"/>
          <polyline class="cls-160" points="575.25 513.86 579.6 509.16 1183.17 1067.14 1178.82 1071.85"/>
          <polyline class="cls-114" points="578.15 510.72 582.5 506.02 1186.07 1064.01 1181.72 1068.71"/>
          <polyline class="cls-114" points="581.05 507.59 585.4 502.88 1188.97 1060.87 1184.62 1065.58"/>
          <polyline class="cls-106" points="583.95 504.45 588.3 499.75 1191.87 1057.73 1187.52 1062.44"/>
          <polyline class="cls-105" points="586.85 501.31 591.2 496.61 1194.77 1054.6 1190.42 1059.3"/>
          <polyline class="cls-104" points="589.75 498.18 594.1 493.47 1197.67 1051.46 1193.32 1056.16"/>
          <polyline class="cls-98" points="592.65 495.04 597 490.34 1200.57 1048.32 1196.22 1053.03"/>
          <polyline class="cls-98" points="595.55 491.9 599.9 487.2 1203.47 1045.19 1199.12 1049.89"/>
          <polyline class="cls-172" points="598.45 488.77 602.8 484.06 1206.37 1042.05 1202.02 1046.75"/>
          <polyline class="cls-179" points="601.35 485.63 605.7 480.93 1209.27 1038.91 1204.92 1043.62"/>
          <polyline class="cls-179" points="604.25 482.49 608.6 477.79 1212.17 1035.78 1207.82 1040.48"/>
          <polyline class="cls-178" points="607.15 479.36 611.5 474.65 1215.07 1032.64 1210.72 1037.35"/>
          <polyline class="cls-178" points="610.05 476.22 614.4 471.52 1217.97 1029.5 1213.62 1034.21"/>
          <polyline class="cls-181" points="612.95 473.08 617.3 468.38 1220.87 1026.37 1216.52 1031.07"/>
          <polyline class="cls-181" points="615.85 469.95 620.2 465.24 1223.77 1023.23 1219.42 1027.93"/>
          <polyline class="cls-180" points="618.75 466.81 623.1 462.11 1226.67 1020.09 1222.32 1024.8"/>
          <polyline class="cls-174" points="621.65 463.67 626 458.97 1229.57 1016.96 1225.22 1021.66"/>
          <polyline class="cls-174" points="624.55 460.54 628.9 455.83 1232.47 1013.82 1228.12 1018.52"/>
          <polyline class="cls-187" points="627.45 457.4 631.8 452.69 1235.37 1010.68 1231.02 1015.39"/>
          <polyline class="cls-187" points="630.35 454.26 634.7 449.56 1238.27 1007.55 1233.92 1012.25"/>
          <polyline class="cls-190" points="633.25 451.13 637.6 446.42 1241.17 1004.41 1236.82 1009.11"/>
          <polyline class="cls-189" points="636.15 447.99 640.5 443.28 1244.07 1001.27 1239.72 1005.98"/>
          <polyline class="cls-189" points="639.05 444.85 643.4 440.15 1246.97 998.14 1242.62 1002.84"/>
          <polyline class="cls-192" points="641.95 441.72 646.3 437.01 1249.87 995 1245.52 999.7"/>
          <polyline class="cls-192" points="644.85 438.58 649.2 433.87 1252.76 991.86 1248.41 996.57"/>
          <polyline class="cls-191" points="647.75 435.44 652.1 430.74 1255.67 988.72 1251.32 993.43"/>
          <polyline class="cls-191" points="650.65 432.31 655 427.6 1258.57 985.59 1254.22 990.29"/>
          <polyline class="cls-188" points="653.55 429.17 657.9 424.46 1261.46 982.45 1257.12 987.16"/>
          <polyline class="cls-193" points="656.45 426.03 660.8 421.33 1264.36 979.32 1260.01 984.02"/>
          <polyline class="cls-193" points="659.35 422.9 663.7 418.19 1267.26 976.18 1262.92 980.88"/>
          <polyline class="cls-132" points="662.25 419.76 666.6 415.05 1270.16 973.04 1265.81 977.75"/>
          <polyline class="cls-132" points="665.15 416.62 669.5 411.92 1273.06 969.91 1268.71 974.61"/>
          <polyline class="cls-144" points="668.05 413.49 672.4 408.78 1275.96 966.77 1271.61 971.47"/>
          <polyline class="cls-144" points="670.95 410.35 675.3 405.64 1278.86 963.63 1274.51 968.34"/>
          <polyline class="cls-133" points="673.85 407.21 678.2 402.51 1281.76 960.49 1277.41 965.2"/>
          <polyline class="cls-145" points="676.75 404.08 681.1 399.37 1284.66 957.36 1280.31 962.06"/>
          <polyline class="cls-145" points="679.65 400.94 684 396.23 1287.56 954.22 1283.21 958.93"/>
          <polyline class="cls-136" points="682.55 397.8 686.9 393.1 1290.46 951.08 1286.11 955.79"/>
          <polyline class="cls-136" points="685.45 394.66 689.8 389.96 1293.36 947.95 1289.01 952.65"/>
          <polyline class="cls-127" points="688.35 391.53 692.7 386.82 1296.26 944.81 1291.91 949.52"/>
          <polyline class="cls-127" points="691.25 388.39 695.6 383.69 1299.16 941.67 1294.81 946.38"/>
          <polyline class="cls-146" points="694.15 385.25 698.5 380.55 1302.06 938.54 1297.71 943.24"/>
          <polyline class="cls-143" points="697.05 382.12 701.4 377.41 1304.96 935.4 1300.61 940.11"/>
          <polyline class="cls-143" points="699.95 378.98 704.3 374.28 1307.86 932.26 1303.51 936.97"/>
          <polyline class="cls-139" points="702.85 375.85 707.2 371.14 1310.76 929.13 1306.41 933.83"/>
          <polyline class="cls-139" points="705.75 372.71 710.1 368 1313.66 925.99 1309.31 930.7"/>
          <polyline class="cls-135" points="708.65 369.57 713 364.87 1316.56 922.85 1312.21 927.56"/>
          <polyline class="cls-130" points="711.55 366.43 715.9 361.73 1319.46 919.72 1315.11 924.42"/>
          <polyline class="cls-130" points="714.45 363.3 718.8 358.59 1322.36 916.58 1318.01 921.29"/>
          <polyline class="cls-138" points="717.35 360.16 721.7 355.46 1325.26 913.44 1320.91 918.15"/>
          <polyline class="cls-138" points="720.25 357.02 724.6 352.32 1328.16 910.31 1323.81 915.01"/>
          <polyline class="cls-131" points="723.15 353.89 727.5 349.18 1331.06 907.17 1326.71 911.88"/>
          <polyline class="cls-131" points="726.05 350.75 730.4 346.05 1333.96 904.03 1329.61 908.74"/>
          <polyline class="cls-129" points="728.95 347.61 733.3 342.91 1336.86 900.9 1332.51 905.6"/>
          <polyline class="cls-137" points="731.85 344.48 736.2 339.77 1339.76 897.76 1335.41 902.46"/>
          <polyline class="cls-137" points="734.75 341.34 739.1 336.64 1342.66 894.62 1338.31 899.33"/>
          <polyline class="cls-134" points="737.65 338.2 742 333.5 1345.56 891.49 1341.21 896.19"/>
          <polyline class="cls-134" points="740.55 335.07 744.9 330.36 1348.46 888.35 1344.11 893.05"/>
          <polyline class="cls-142" points="743.45 331.93 747.8 327.22 1351.36 885.21 1347.01 889.92"/>
          <polyline class="cls-142" points="746.35 328.79 750.7 324.09 1354.26 882.08 1349.91 886.78"/>
          <polyline class="cls-175" points="749.25 325.66 753.6 320.95 1357.16 878.94 1352.81 883.64"/>
          <polyline class="cls-177" points="752.15 322.52 756.5 317.82 1360.06 875.8 1355.71 880.51"/>
          <polyline class="cls-177" points="755.05 319.38 759.4 314.68 1362.96 872.67 1358.61 877.37"/>
          <polyline class="cls-186" points="757.95 316.25 762.3 311.54 1365.86 869.53 1361.51 874.23"/>
          <polyline class="cls-186" points="760.85 313.11 765.2 308.4 1368.76 866.39 1364.41 871.1"/>
          <polyline class="cls-176" points="763.75 309.97 768.1 305.27 1371.66 863.26 1367.31 867.96"/>
          <polyline class="cls-176" points="766.65 306.84 771 302.13 1374.56 860.12 1370.21 864.82"/>
          <polyline class="cls-184" points="769.55 303.7 773.9 298.99 1377.46 856.98 1373.11 861.69"/>
          <polyline class="cls-185" points="772.45 300.56 776.8 295.86 1380.36 853.85 1376.01 858.55"/>
          <polyline class="cls-185" points="775.35 297.43 779.7 292.72 1383.26 850.71 1378.91 855.41"/>
          <polyline class="cls-182" points="778.25 294.29 782.6 289.58 1386.16 847.57 1381.81 852.28"/>
          <polyline class="cls-182" points="781.15 291.15 785.5 286.45 1389.06 844.43 1384.71 849.14"/>
          <polyline class="cls-183" points="784.05 288.02 788.4 283.31 1391.96 841.3 1387.61 846"/>
          <polyline class="cls-141" points="786.95 284.88 791.3 280.17 1394.86 838.16 1390.51 842.87"/>
          <polyline class="cls-141" points="789.85 281.74 794.2 277.04 1397.76 835.02 1393.41 839.73"/>
          <polyline class="cls-149" points="792.75 278.61 797.1 273.9 1400.66 831.89 1396.31 836.59"/>
          <polyline class="cls-149" points="795.65 275.47 800 270.76 1403.56 828.75 1399.21 833.46"/>
          <polyline class="cls-151" points="798.55 272.33 802.9 267.63 1406.46 825.61 1402.11 830.32"/>
          <polyline class="cls-151" points="801.45 269.2 805.8 264.49 1409.36 822.48 1405.01 827.18"/>
          <polyline class="cls-140" points="804.35 266.06 808.7 261.35 1412.26 819.34 1407.91 824.05"/>
          <polyline class="cls-147" points="807.25 262.92 811.6 258.22 1415.16 816.2 1410.81 820.91"/>
          <polyline class="cls-147" points="810.15 259.78 814.5 255.08 1418.06 813.07 1413.71 817.77"/>
          <polyline class="cls-128" points="813.04 256.65 817.39 251.94 1420.96 809.93 1416.61 814.64"/>
          <polyline class="cls-128" points="815.95 253.51 820.29 248.81 1423.86 806.79 1419.51 811.5"/>
          <polyline class="cls-150" points="818.85 250.38 823.2 245.67 1426.76 803.66 1422.41 808.36"/>
          <polyline class="cls-150" points="821.74 247.24 826.09 242.53 1429.66 800.52 1425.31 805.23"/>
          <polyline class="cls-148" points="824.64 244.1 828.99 239.4 1432.56 797.38 1428.21 802.09"/>
          <polyline class="cls-152" points="827.55 240.96 831.89 236.26 1435.46 794.25 1431.11 798.95"/>
          <polyline class="cls-152" points="830.44 237.83 832.11 236.03 1435.67 794.02 1434.01 795.82"/>
        </g>
      </g>
    </g>
  </g>
  <g class="cls-8">
    <polyline class="cls-43" points="879.25 2156.11 878.31 2158.29 2720.77 2953.59 2721.71 2951.41"/>
    <polyline class="cls-43" points="880.28 2153.74 874.39 2167.38 2716.85 2962.68 2722.73 2949.04"/>
    <polyline class="cls-47" points="876.35 2162.84 870.46 2176.48 2712.92 2971.78 2718.81 2958.14"/>
    <polyline class="cls-47" points="872.43 2171.93 866.54 2185.57 2709 2980.87 2714.88 2967.23"/>
    <polyline class="cls-47" points="868.5 2181.02 862.61 2194.66 2705.07 2989.96 2710.96 2976.32"/>
  </g>
</svg>